/* XPM */
static char *_b27b66d20224e47ef52b64327d1f4e9TLYVXaxLqJAFi0IE[] = {
/* columns rows colors chars-per-pixel */
"64 64 246 2 ",
"   c None",
".  c #020202",
"X  c #0A0403",
"o  c #0C0906",
"O  c #03090C",
"+  c #0C0C0B",
"@  c #05050A",
"#  c #140401",
"$  c #1A0601",
"%  c #120B06",
"&  c #1B0B02",
"*  c #120E0A",
"=  c #180E0B",
"-  c #14110C",
";  c #1C140B",
":  c #1A1105",
">  c #040C11",
",  c #131313",
"<  c #1B1714",
"1  c #1C1916",
"2  c #1B1B1B",
"3  c #151B1C",
"4  c #0F1010",
"5  c #2C0000",
"6  c #220D03",
"7  c #240300",
"8  c #231505",
"9  c #221509",
"0  c #251A0D",
"q  c #2B1C0C",
"w  c #2A1606",
"e  c #341C03",
"r  c #321D0B",
"t  c #3A1F06",
"y  c #221B13",
"u  c #2B1E12",
"i  c #221E1B",
"p  c #311D11",
"a  c #330500",
"s  c #34220E",
"d  c #3D240C",
"f  c #392105",
"g  c #2D2113",
"h  c #24211D",
"j  c #292219",
"k  c #332415",
"l  c #3B2513",
"z  c #3D2A15",
"x  c #33261A",
"c  c #352A1B",
"v  c #3B2B1B",
"b  c #3C301D",
"n  c #1C2121",
"m  c #232323",
"M  c #2C2C2C",
"N  c #292725",
"B  c #3B2F22",
"V  c #342E25",
"C  c #3D3224",
"Z  c #39352D",
"A  c #323232",
"S  c #3B3B3B",
"D  c #3C3C36",
"F  c #2F2F30",
"G  c #42250C",
"H  c #472707",
"J  c #532B04",
"K  c #593507",
"L  c #432C14",
"P  c #432E1B",
"I  c #4A2B11",
"U  c #44311C",
"Y  c #4C341C",
"T  c #4C3517",
"R  c #553315",
"E  c #52361B",
"W  c #593B1C",
"Q  c #583917",
"!  c #653E1A",
"~  c #653406",
"^  c #412E22",
"/  c #453322",
"(  c #4B3522",
")  c #4D3A24",
"_  c #4B3C2A",
"`  c #453628",
"'  c #533C24",
"]  c #5A3D22",
"[  c #513D2C",
"{  c #533721",
"}  c #493E32",
"|  c #523D34",
" . c #68431A",
".. c #76461A",
"X. c #6C430A",
"o. c #5B4225",
"O. c #55432C",
"+. c #5C452B",
"@. c #564125",
"#. c #4A4337",
"$. c #5B4632",
"%. c #5D4A33",
"&. c #574839",
"*. c #5F503B",
"=. c #61442A",
"-. c #64492C",
";. c #6B4C2C",
":. c #654624",
">. c #754B26",
",. c #6A502C",
"<. c #79532A",
"1. c #644C33",
"2. c #6B4E32",
"3. c #664B38",
"4. c #6D5235",
"5. c #6D553B",
"6. c #66523B",
"7. c #725433",
"8. c #7B5B35",
"9. c #755B3D",
"0. c #7B5B3B",
"q. c #765736",
"w. c #764F30",
"e. c #7D633E",
"r. c #444443",
"t. c #4C4B4A",
"y. c #544D43",
"u. c #585146",
"i. c #664E43",
"p. c #685748",
"a. c #745B42",
"s. c #785D46",
"d. c #6D5F53",
"f. c #7C6345",
"g. c #7E644D",
"h. c #796449",
"j. c #6B655A",
"k. c #766756",
"l. c #787165",
"z. c #87572A",
"x. c #875C37",
"c. c #935D36",
"v. c #84623B",
"b. c #8C6238",
"n. c #936134",
"m. c #94643B",
"M. c #9D6A3B",
"N. c #9A663A",
"B. c #9D713F",
"V. c #A36E3A",
"C. c #A6733C",
"Z. c #826545",
"A. c #8B6B43",
"S. c #856B4C",
"D. c #8B6C4A",
"F. c #856548",
"G. c #966B45",
"H. c #93724C",
"J. c #9B734B",
"K. c #866B56",
"L. c #996E53",
"P. c #8C7258",
"I. c #957553",
"U. c #9C7A5B",
"Y. c #977958",
"T. c #8C724F",
"R. c #A9774A",
"E. c #A67A54",
"W. c #AF7B4E",
"Q. c #877768",
"!. c #9B7E6D",
"~. c #947968",
"^. c #8B786C",
"/. c #9A6754",
"(. c #9D805A",
"). c #A88358",
"_. c #B88659",
"`. c #BA824F",
"'. c #9C846A",
"]. c #8A8276",
"[. c #9B8574",
"{. c #A78867",
"}. c #BA8C65",
"|. c #BC926D",
" X c #B3946A",
".X c #A68A77",
"XX c #B38B73",
"oX c #AD947A",
"OX c #B89676",
"+X c #BBA37E",
"@X c #C18C5B",
"#X c #C38F63",
"$X c #C69568",
"%X c #C89A74",
"&X c #CE9774",
"*X c #C9A17B",
"=X c #D4A378",
"-X c #9A8E85",
";X c #AC9383",
":X c #A59686",
">X c #B59A8B",
",X c #B69A87",
"<X c #B0978A",
"1X c #B9A38B",
"2X c #BCA395",
"3X c #BEA899",
"4X c #CAA887",
"5X c #D7AD8A",
"6X c #DCB38C",
"7X c #C2A693",
"8X c #C2AB9D",
"9X c #C8AC9A",
"0X c #CDB399",
"qX c #DDB893",
"wX c #E2BB95",
"eX c #E0B58A",
"rX c #C6AFA1",
"tX c #C6B1A2",
"yX c #CAB3A5",
"uX c #CBB7A9",
"iX c #CDBAAB",
"pX c #C8BEA6",
"aX c #D2BCAD",
"sX c #D2B9A5",
"dX c #D2BEB1",
"fX c #DAA9A0",
"gX c #E5C29E",
"hX c #EBC39B",
"jX c #D5C2B3",
"kX c #D9C5B6",
"lX c #D9C6B9",
"zX c #DCC9BC",
"xX c #D4C0AF",
"cX c #EAC6A2",
"vX c #E9C8A6",
"bX c #E1CCBC",
"nX c #F2CDA3",
"mX c #DECFC2",
"MX c #DFD0C3",
"NX c #E2D2C6",
"BX c #E5D5CA",
"VX c #E7D9CE",
"CX c #EBDDD4",
"ZX c #E1CFC2",
"AX c #EDE3DB",
"SX c #F5EBE5",
/* pixels */
"                                                    '.].    Y.,.' v.8.Y z &.:X                                                  ",
"                                            oX(.(.e.T f Y Y T 7.7.e.@.9 U 7.A.:X                                                ",
"                                          k.e.8.,.@.s y . & c g _ 9.o.: z I.|.I.                                                ",
"                                        T.@.e.@.:.) 0 f v.B.x.Q . @.;.c j ; {.%XD.                                              ",
"                                        5.(.f.T ).T I _.=X$X`.M.R ; ,.z +.- q |.&Xs.                                            ",
"                                        {.+X:.(.*Xf ).hXeX=X}.R.>.$ ' s o.) . +.4X|.a.          r.                              ",
"                                        oX(.,.OX X .6XcXhX=X$X`.z.d : r @.( u . L.%XG.u.    #.n . F                             ",
"                                        v.8.,.(.(.).hXhXhX6X=X`.b.E 6 T o.v k . { }.E.6.l.M . . , . M                           ",
"                                      xXe.X.<.8.).|.|.,XvXgX&XG.v E $ +.8.c 0 X E J.W.G.w.| l * 4 O . N                         ",
"                                      S.J q.b.W B.4XsX~.XXvX_.J m.x.5 5.T.e j X L 8.G.x.w.q.;.( v < . . , N                     ",
"                                    1Xv.,.).v.K G.qX5XE.|.vXE.w.XX=.. 6.(.L , X w L { { ] 2.=.{ { P + X . . , A                 ",
"                                    1X1XI.H.:.H L.I.p.. [.nXL.| Q.> . ) H.[ O . o * 9 r U P P P Y ^ - . . @ . . 1 S             ",
"                                      0XI.8.m.f D.XXg.v.4XhXJ.G I.q.Q =.G.( @ X o . j.A . X < y , O . . . . . . . . ,           ",
"                                      0XI.%.I.Z.D.nXqXqXnXwXOXa J.W.c.w.G.( X o o . u.  j.. . . @ . . . . . . . . @ . . A       ",
"                                      4X).q 1.).E.qXgXcXqX4XL.@ c.W.z.F.T.G y + o O # ].    n o . . X X . . . . . . . . . n     ",
"                                      gX|.. $.G.{.%XgXgX5X%X}.~ L.W.~ F.D.6 j , + j X c         D 1 . . . . . . . . . . @ . n   ",
"S M M N F S S                         cX|.7 9.A.A._.5XvXgXvX5Xc.N.G.J f.5.b j @ . q #.b b           S M , . . . . . o . . @ . t.",
"m m n 2 2 < < 2 F S                   vXI.L '.s.x.J.|.vXgXyX/.3.H >.H 5.' C } &.O.c k.l.f j.              1 o . @ . . . . . @   ",
"2 2 2 2 2 3 3 < 4 4 2 M m 1 M M 3   qXqXx.5.oX. ;.R.E.gXE.XXrX/.R >.t =.v 1 < Z Z X ].].*.T                   o . X . . . X 1   ",
"< , < 3 2 , O 4 4 , + . . . . X . a.%X%X>.{.S.. Y b.x.6X4XfX,Xc.t ] r :.g o . . ; : #.j.l.p.l.                . X O @ @ 4 @ ,   ",
", , + , , 4 , , 4 3 i 2 3 < 1 1 . q.}.R.5. X+.. k x.~ 4XwX#X/.>.I w w G 9 = o . c k j.&.&.Q.j.            A 2 . o o 4 4 4 @ N   ",
", , 4 4 4 + + , 4 , n 2 2 1 3 , . 1.A.Q P.{.V . B x.c.|.hXwX5X`.>.$ $ w % o X X g b     j.[.j.          M . . + + O + 4 . m     ",
"+ o @ o O X @ o , < 2 3 2 < 2 4 X q Y C Y.Z.. _ &.=.c._.wXnX5XW.H X $ X . V + s O.#.    k.  d.        A . O o + + + + 4 @ #.    ",
"@ . . . - . . . o , 3 4 3 , , o X 8 8 } P.-.} a.u m t w.W.}.G.Q X $ . X . #.O z A.h.].j.].  k.      2 . . X O o + + + . F       ",
". . . . M   m , o , . X . X @ . + * & x a.9.a.w * y & G 5 5 . . $ # X . @ N . / I.T.@.c t.[.      n . . . o o + + + . 1         ",
"+ X . . . n r.      A . . . . . M j.) +.h.Y.8.r % @ & ! z.c.>.d # $ X X . - : o +.v.@.N . V t.A N . . . . @ O o o . +           ",
"4 + o + + . . 2   r.3 . . . . . . V ) O.a.{.H.L : k X I n.R.M.R X 6 X & c o : : o :.:.c c o . o . . . . . @ @ @ @ . t.          ",
"4 , + 4 4 + X . @ 4 + + . . . . . . . x 1.T.I.) z Y @ w >.R.R. .I t . k %.. X 9 o c ,.Y #.. - . . . . . . . X . . r.            ",
"4 , 4 4 , + + @ X + 2 + @ . o . . X . C O.1.q.; ) a.- # ! M.R.z.>.I . & $ X . u 9 0 f.<.*.< o o . . . . X . . . F               ",
", , , + , 4 4 @ O + 2 + @ o 4 @ . @ + ( ( ( W q x 5.' . H <.N.c.n.f . . O : j ( q . 6.H.,.1 . o . . X + o . . M                 ",
"4 , , 4 , 4 4 o + @ , 4 . 4 4 o + O y O.@._ ] q ` } 1.6 G K z.M.n.6 . % p 0 x _ s - g f.H.) . - - o . . . . A                   ",
"4 , 4 , , 4 + o + X , , o 4 + @ , . c @.5.6.Y L k u +.l d I K N.m.X % g z - 8 ' b o b k A.h.. X - 1 @.$.C D                     ",
"2 + , 4 , , + + @ @ , 4 4 2 , + . O &.4.1.S.L Y { P / { H R J J.G.. l { 9 j s o.5.1 h C W 5.Z . o o _ h.K.                      ",
"S n + 4 , + @ o o @ , 4 < m m 2 4 V Z 1./ 9.) -.2.Q ^ ] H R J W.G.. P { 9 l P ) h.%.h C @.Y O.. o . . n                         ",
"    F , o + o O @ + , , < n 2 m m < 1 %.( 1.-.O.s.W ^ P I R t G.x.# I p k L x v %.A.e.@.) ) @.j . . S                           ",
"      S N . . o @ o , , 4 , 2 2 3 < m &.' $.9.( =.-.[ q G R J z.>.! R 9 E l v s O.6.A.,.$.8.@.V . n                             ",
"          t.m . . . < , , 3 2 m 3 i m *.6.O.s.5.9 -.P @ d ! ....z.>.I k W s s u b v I.v.+.D.5.1 . n                             ",
"              r.1 . , , , n m 2 3 N 3 p.s.1.Z.G.( [ & X G ..z.z.z...w v =.s r 9 b k 4.v.] f.*.. . 1                             ",
"                  M 2 < m m 2 2 2 m > p.S.$.S.Z.` L q + d z.n.n.z.~ 0 v @.v l r d O b 8.-.g.C . o . t.                          ",
"                      n N m m 2 1 2 3 j.g.1.I.2.$.Y 9 y e z.V.M.z.Q l c Y L W l U . U o.$.9.. . o . A                           ",
"                    t.m M m m 2 < n N &.g.a.S.a.$.P : x L N.`.W.V.>.P x ' l o.T @.g z f b y . . O . m                           ",
"                    A m M m m m 3 2 2 *.h.h.S.3.v P u u R V.@X_.`.N.{ L ' 4.q.w.E l l g @ . X . X X +                           ",
"                    M N N n m m < m 2 &.h.D.0./ Y L u l z.V.@X#X@XW.3.P ] H.@.L @.5.,.U + . . . . @ o                           ",
"                  S m N m m n n 2 N * i.a.8.{ v p = u R N.R.#X$X@X@XA._ -.m.7.e.-.q.4.Y * . . . . . O M                         ",
"                  F N N n 2 m i i m = $.Z.g.P w @ 0 r ;.C.).#X$X$X&X$X5.3.x.b.Z.S.4.) P % . . . . . @ N                         ",
"                S N M n m m N m N * u 4.1.3.Y : 9 l 6 X.V.C.`.}.$XeXeX).5.+.G.X.-.4.=.k . . . . . . . M                         ",
"                F F F M M M M F j # P =.5 U.$.6 L r ' .X%XOXOX*X5XcXcX4XI.1.Y.{.f.5.9.c . . . . . . . M                         ",
"                N M M M M M F N y u 7 5.P.:.x d ,.d s.sXzXzXlXlXlXlXjXlX4Xe.K.XXY.g.f.U . . . . . . . m                         ",
"              m n m 2 n m M F , - . K.0X~.H p L v.R K.sXlXlXlXlXlXjXjXjXkXoXQ P..XP.4.U o . . . . X . A                         ",
"              m , , , n N F N . , . 8XzXG.>.! R =.0.;XdXjXjXlXlXlXlXjXjXaXsX.Xa F.~.5.b - . . . . . . S                         ",
"              < + , 2 N M F 3 % . $.bXBX9XE.J.a.=.F.rXdXjXjXjXlXjXjXxXjXkXdXaX;X2.s.a.v : . . . . @ . A                         ",
"              , 4 2 m M F m . < . [.CXZXsX4XU.{.s.!.fXsXxXjXlXlXjXkXkXkXkXjXdXdX>XF.-.v ; . . . . . . S                         ",
"            F 4 3 m M F F , . i . -XSXAXVXbX9XyX;XyX8XyXuXiXiXiXiXiXuXiXiXiXiXrX2X.X$.u 0 @ . . . . . F                         ",
"            N , m N M A N . . i . -XSXAXCXNXbXuXuXkXdXdXdXdXiXjXjXjXjXjXdXlXdXuX>X^.[ 8 ; X . . . . . M                         ",
"            N 1 M N M M , . . 2 . -XSXCXVXBXmXuXyXdXdXdXdXjXiXjXjXjXjXjXlXlXiX3X;Xk.` 9 - . . . . . . F                         ",
"            n m m N M N . . . 2 @ ^.SXCXBXZXzXdXrXsXiXiXiXdXjXiXiXxXiXjXdXiXrX>X~.p.c 9 % . . . . . . A                         ",
"            3 3 3 m M 3 . . . 1 . :XCXVXZXzXdXaXyXrXrXyXyXuXuXyXuXiXiXiXdXyX2X-XK.&.y 9 o . . . . . . S                         ",
"            , < 2 m m * . . . , . :XBXNXzXdXaXyXyXrXrXrXrXuXuXyXtXuXyXrXtX2X:X!.p.C 0 0 * . . . . . .                           ",
"          N + 4 2 m 2 . . . . * . &.dXdX9X7X7X7X>X<X>X2X2X3XrXrX8X3X8X3X>X.X^.d.` g p 0 * . . . . . o                           ",
"          N + , 3 m 3 . . . . * @ i.ZXdX7X2X,X,X;X!.!.!.!.!.!.!.[.[.-X!.k.i.| ^ k g q ; . . . . . . 4                           ",
"          m o , 1 n + . . . . * . d.dXdXfX7X,XoX.X.X!.XX<X;X;X>X>X>X;XK.i.| p p g w 0 - . . . . . . ,                           ",
"          m . , n 2 X . . . . o . $.7XzXlXaX9X7X7X7X>X3XrX3X2X2X2X>X.XK.i.( B x u y 0 % . . . . . . ,                           ",
"          m . 4 n 3 . . . . . . @ 7 <XBXVXVXZXZXkXdXzXdXuXuXuXrXrX8X<X~.3.| ^ p x 0 0 o . . . . . . N                           ",
"          , . , 2 * . . . . . . = . Q.dXlXmXBXBXZXVXBXdXdXdXiXuXuXfX2X;X^.k.i.| c q 0 % . . . . . X                             "
};
