/* XPM */
static char *a9741508a23e4b0cbdce86a8112b01a6f1RmsEdiazDsTYeO[] = {
/* columns rows colors chars-per-pixel */
"63 64 215 2 ",
"   c None",
".  c #010203",
"X  c #00000A",
"o  c #0A0B0D",
"O  c #0E0007",
"+  c #1C120D",
"@  c #010415",
"#  c #0E0E16",
"$  c #00031B",
"%  c #02091B",
"&  c #0C0D1B",
"*  c #100F19",
"=  c #0F101C",
"-  c #0E1016",
";  c #12121D",
":  c #1D1617",
">  c #22170D",
",  c #38190A",
"<  c #241712",
"1  c #241A14",
"2  c #291C15",
"3  c #261D19",
"4  c #291E1A",
"5  c #301C15",
"6  c #2C231C",
"7  c #27221B",
"8  c #31241D",
"9  c #3B251A",
"0  c #33291F",
"q  c #39261B",
"w  c #0C0F23",
"e  c #040A26",
"r  c #0E1124",
"t  c #0E132C",
"y  c #121324",
"u  c #1B1623",
"i  c #171922",
"p  c #1B1B25",
"a  c #12152B",
"s  c #18162B",
"d  c #16182D",
"f  c #1C182A",
"g  c #060832",
"h  c #0F1433",
"j  c #0E143A",
"k  c #131633",
"l  c #141936",
"z  c #1A1C36",
"x  c #121638",
"c  c #151B3C",
"v  c #191C3D",
"b  c #1A1734",
"n  c #261E2E",
"m  c #211C34",
"M  c #1F222A",
"N  c #1D213C",
"B  c #232225",
"V  c #2C2522",
"C  c #2D2924",
"Z  c #23242D",
"A  c #2B2A2C",
"S  c #26282F",
"D  c #322622",
"F  c #3A2727",
"G  c #342A24",
"H  c #3B2D24",
"J  c #332C29",
"K  c #3A2C2B",
"L  c #35262E",
"P  c #36312E",
"I  c #3A312B",
"U  c #393127",
"Y  c #242234",
"T  c #2A2C34",
"R  c #23243C",
"E  c #2E263B",
"W  c #29293F",
"Q  c #282636",
"!  c #332B35",
"~  c #3B3533",
"^  c #33343F",
"/  c #431C13",
"(  c #43210C",
")  c #442415",
"_  c #45291C",
"`  c #4C2B1B",
"'  c #4B2818",
"]  c #522C1B",
"[  c #592E1A",
"{  c #532813",
"}  c #54301E",
"|  c #5A311E",
" . c #60331E",
".. c #442E25",
"X. c #4A2E27",
"o. c #5B2E23",
"O. c #44352C",
"+. c #4B332C",
"@. c #473528",
"#. c #543123",
"$. c #5B3222",
"%. c #5B362B",
"&. c #583D2F",
"*. c #433533",
"=. c #463A35",
"-. c #573B3C",
";. c #583D34",
":. c #633623",
">. c #653925",
",. c #693C25",
"<. c #633B2D",
"1. c #6B3D2D",
"2. c #623728",
"3. c #763F2E",
"4. c #623832",
"5. c #48403D",
"6. c #54403B",
"7. c #6D412E",
"8. c #73422B",
"9. c #79442E",
"0. c #7C482F",
"q. c #6C4334",
"w. c #68453A",
"e. c #744432",
"r. c #794634",
"t. c #764937",
"y. c #7C4A34",
"u. c #744B3A",
"i. c #7D4C3B",
"p. c #7E583D",
"a. c #171D41",
"s. c #191E42",
"d. c #1A2145",
"f. c #1C2348",
"g. c #172046",
"h. c #232544",
"j. c #262946",
"k. c #292C48",
"l. c #2F324D",
"z. c #333543",
"x. c #32344B",
"c. c #3B3B4E",
"v. c #292D50",
"b. c #373A57",
"n. c #4F3742",
"m. c #403E55",
"M. c #3E4158",
"N. c #4B4643",
"B. c #424356",
"V. c #584843",
"C. c #674A48",
"Z. c #7B4D41",
"A. c #7E5243",
"S. c #76544A",
"D. c #7A5950",
"F. c #775B62",
"G. c #834D3A",
"H. c #884D35",
"J. c #85503C",
"K. c #8C533B",
"L. c #85543A",
"P. c #91543D",
"I. c #99543F",
"U. c #835344",
"Y. c #8C5543",
"T. c #8F5944",
"R. c #83564A",
"E. c #8D5649",
"W. c #835B4E",
"Q. c #935643",
"!. c #945B44",
"~. c #9C5C44",
"^. c #92574A",
"/. c #945C4C",
"(. c #9C5D4A",
"). c #845954",
"_. c #8D5F53",
"`. c #865F5F",
"'. c #975F52",
"]. c #A15E47",
"[. c #A25E4A",
"{. c #9E624B",
"}. c #96604C",
"|. c #9B6452",
" X c #9D675A",
".X c #96685A",
"XX c #A4634D",
"oX c #AC634E",
"OX c #AB684F",
"+X c #A06047",
"@X c #A26553",
"#X c #AA6652",
"$X c #A56A53",
"%X c #AA6A52",
"&X c #A3665A",
"*X c #AA6D5C",
"=X c #A36B5A",
"-X c #B36C56",
";X c #B46E5D",
":X c #B46855",
">X c #AF715D",
",X c #B5725C",
"<X c #B7735A",
"1X c #996665",
"2X c #A86C63",
"3X c #B47462",
"4X c #BC7962",
"5X c #B87668",
"6X c #AB736F",
"7X c #C2775F",
"8X c #C37E69",
"9X c #C27963",
"0X c #CC846C",
"qX c #C7826B",
"wX c #D18A72",
/* pixels */
"                                                                                                                              ",
"                                                                                                                              ",
"                                                          A V ~ =.                                                            ",
"                                                      ~ D K ~ I ~ =.~ N.5.*.                                                  ",
"                                                P J G D 1 V J G 7 7 I I I I I ~                                               ",
"                                              B 6 D 6 6 4 V V 6 D H =.0 6 I P P N.                                            ",
"                                            C + 4 3 3 V 4 4 V 4 D P I I 0 U I I ~ N.                                          ",
"                                          A 1 4 1 3 6 1 < 3 1 3 2 7 6 P 6 D H C 7 H N.                                        ",
"                                          B 1 3 7 1 1 1 4 1 < 4 3 4 6 D 0 7 0 7 2 6 U 5.                                      ",
"                                          P 4 ..&.) 6 : . . + 4 7 2 2 7 0 6 6 7 7 0 0 U                                       ",
"                                            I Y.(.Y.e.%.4.4.] , 5 < 2 > 0 0 6 6 1 7 0 C                                       ",
"                                            C.+XoXOXOX%X$XXXP.G.1.#.9 8 0 6 > 6 + : 0 C                                       ",
"                                            W.XXXX+X%X%XXX~.~.~.Y.t.w.@.2 > + 6 7 > 7 0                                       ",
"                                          *.U.,X%XOX,X<X#X~.].~.Q.r.8.6.0 7 + + 0 1 7 C                                       ",
"                                          V.W.>X>X,X&X^.}.Y.~.~.P.i.u.6.8 0 6 7 > + 7 G                                       ",
"                                          C.D.|.3X4X@Xy.i.A.!.!.K.G.u.#.> 2 q 0 + 1 7 0                                       ",
"                                          -.;..XqX{.9.Z._..X}.K.P.y.q...@.H H 8 > 1 3                                         ",
"                                          S.Z..X,X%X Xp.D.D.T.K.L.L.7._ @.+.D 4 3 > 3                                         ",
"                                          _.|.$X+X<X,XY.U. X=X{.P.P.t.) H ..D 0 6 > V                                         ",
"                                        D.XXoX].].4X8X5X3X>X,X%XP.T.p.` 9 q ) +.q 2                                           ",
"                                        S.$X8XI.I.<XwX0XqXqX<X+XK.H.7.` ` #.2.1.#.V                                           ",
"                                        A.XX@X9.9.P.9X0XqX<X+XK.0.8.>.| 2.,.G.[.u.V                                           ",
"                                        u.Q.G.i.|.OXOX-XOX].P.H.8.8.7. .3.9.'.*Xw.                                            ",
"                                          Q.*X5X4XOX+X].~.P.K.H.0.0.8. .>.H.3XE.                                              ",
"                                          P./.2X=X/./.{.~.K.~.K.y.0.,.[ y.>X!.O.                                              ",
"                                          }.y./ #.) 2.K.{.~.!.L.0.8.| { L.p.1                                                 ",
"                                          {.Y.u.R.4.o.@X$X!.I.L.0. .{ { { ( I                                                 ",
"                                          !.^. X2X&X*X3XXX{.!.y.7.] ` } $.` G                                                 ",
"                                          L.!.=X3X&X#X&X{.P.H.,.[ ` ] | | ` 6                                                 ",
"                                          p.K.^.XXoXXX(.P.K.1.` ` ] ] $.| ` < S                                               ",
"                                            |.,X4X,X+XQ.y.e.` ' ` ] ] [ [ #.< & z.                                            ",
"                                            U._./.!.t.#.} ' ) ' ` ] ] [ | ] 2 ; s ^                                           ",
"                                          ! n E L F 5 , ) _ ` _ ' ] $.>.2.] 5 y s y Y c.                                      ",
"                                        j.a.j h w X =._ ` #.] ] 2.e.r.3.>.<.8 r s y r v j.x.m.                                ",
"                                    x.v j c c z n . -.w., o.1.1.e.G.e.9.7.4.F y y y a c j j d.l.M.B.                          ",
"                                z.R x x s.v c x a X +.D.q.e.u.3.e.e.9.r.t.#.K r ; ; a v c s.c j c v.b.B.                      ",
"                              z h h b x a.c c x : @ F ).Z.3.4.1.t.y.r.U.t.%.K e * y k c c a.c x k c d.v.l.                    ",
"                          W c x c s.s.x x c c t y ; ; ).R.i.Z.G.U.G.Y.(.G.C.L & ; y a x a.c x x x x l c d.k.z.                ",
"                        Y x a.s.d.s.s.s.k x z e * u $ C.'.E.^.Q.(.Q.(.'.E.C.u & * a k k v x x x x c x l c c N                 ",
"                      x.s.c s.s.d.d.d.s.x x c k r y t 3 ).@X].].[.[.[.(.'.-.% u ; a a k c x x x c c l l k d k T               ",
"                      k.a.s.s.s.s.s.s.a.h x s.a.x x s $ O.&XoX[.[.oX].&X).@ * * ; y y t x c x c c N l l l d t M               ",
"                      k.c c s.a.s.d.s.a.h a.a.a.a.j k s @ Z.9X:X:XoXoX1X! X ; # # # r k c c a.c c l h l l a r s               ",
"                      d.a.c s.a.s.s.s.a.j a.a.j a.a.c z a 4 &X9X:X;X2Xn.X : * # y k c v c c c c g.h l N l t r d               ",
"                      h.c x s.s.s.s.s.a.x s.s.a.c a.a.a.m e 1.;X:X5X`.e : * * & b v c v v c c s.N h l N l a r d               ",
"                      s.c x s.a.s.s.s.a.x s.s.s.a.a.a.a.a.m O E.5X2XE g f * ; b v v a.x c c c s.c h N a a d t d Z             ",
"                    k.v k k v a.s.s.s.a.a.s.s.s.a.d.f.g.s.b % 4.6XC.g m y # s v s.s.a.c c c v c l t l a a a y a T             ",
"                    W s.k c s.s.s.s.s.s.a.a.s.s.a.g.a.f.s.b e *.F.g b w r a b s.s.s.c b v b s.a.l y t t a a r s               ",
"                    W v x k a.a.s.g.a.a.a.a.f.f.g.s.a.a.s.a.a n m y # ; z v s.s.v c x s.b c s.v N y a t a y r S               ",
"                    h.c c t c c s.d.g.a.a.c d.f.a.g.a.g.d.c a & * * y v s.v v a.c c c c c v s.v h r a t d a r Z               ",
"                    m c s.c l x v d.d.d.d.c a.g.a.g.a.a.a.c a ; * s v s.s.s.a.c c c v c c v v c l y a t a y y i               ",
"                    v a.d.c x x s.d.d.d.f.c a.d.g.N g.a.a.v y * k c s.s.s.a.a.a.a.a.v c b v s.c t d d r a y r M               ",
"                    m a.c c c x d.f.d.f.f.g.c d.d.g.g.a.s.k # a v s.s.s.s.c s.s.a.v v k x s.c z r d y a a y & B               ",
"                    N c N x l h c d.d.f.f.d.a.a.g.d.d.a.c e % v s.s.s.s.s.a.s.s.s.c x x c v v d y a r a a a y B               ",
"                    d.l v z k l g.d.d.f.d.s.a.a.d.d.d.d.c v j.v s.v s.s.d.s.s.s.v c k c c v s.a r d a k y a ; S               ",
"                  z.d.h c l t l c d.f.f.g.d.s.c d.d.g.a.x h.b.g.s.a.s.s.d.s.s.d.v x z x v v c r r a a a a s ; T               ",
"                  k.f.a z z t k c g.f.f.d.g.s.c a.d.a.a.z x x c x a.s.s.d.d.v d.c l z c v v k = y r a k a a ;                 ",
"                  x.g.l l N a h c d.d.f.f.d.s.s.c g.a.a.l l N a.s.a.s.s.d.d.v v N c c a.c v a # ; a b k z y ;                 ",
"                  W g.N l l k h c d.f.f.d.N s.s.a.c g.c c c a.N c v s.s.v d.g.N l c a.c v c y & y k k b k a i                 ",
"                  R g.l h l a h h c d.d.d.d.v s.a.c a.c h h l c c v c s.c g.c v N l c c v d - # r b k a a r i                 ",
"                  R c N t l t t t k N c c d.c c c c c N N h h j x c c b c l l z l l z c b ; o # r k k a a w ;                 ",
"                  N j N t t r r r t c l c l l l l l l c x l l l h l z l l l l l z x k k y # o & r h a a a & i                 ",
"                  M h N t r w % & t k t h a h k h t t h d h t t t t t t t t t t t t r r & o o & r r t r r @ B                 ",
"                                                                                                                              ",
"                                                                                                                              "
};
