/* XPM */
static char *_319b0deea494ae0fd0a0c736c5cf7cbZ67Rbmwgr8Gnsvvw[] = {
/* columns rows colors chars-per-pixel */
"64 64 256 2 ",
"   c #390100",
".  c #480100",
"X  c #5D0100",
"o  c #560302",
"O  c #531709",
"+  c #630200",
"@  c #6A0502",
"#  c #770700",
"$  c #69150C",
"%  c #7A1506",
"&  c #6F1B13",
"*  c #782417",
"=  c #6D2818",
"-  c #713029",
";  c #562217",
":  c #880902",
">  c #990A03",
",  c #881607",
"<  c #941304",
"1  c #99170A",
"2  c #841D15",
"3  c #971B15",
"4  c #A70D06",
"5  c #B20A03",
"6  c #A31C0D",
"7  c #A9160B",
"8  c #B71C0A",
"9  c #A31B12",
"0  c #A81814",
"q  c #B81B13",
"w  c #99220C",
"e  c #882618",
"r  c #9D2313",
"t  c #992719",
"y  c #9B3619",
"u  c #8D230B",
"i  c #A8250D",
"p  c #B5240D",
"a  c #BD220D",
"s  c #A32314",
"d  c #AD2314",
"f  c #A52419",
"g  c #AD241B",
"h  c #A32B1B",
"j  c #AC2B1B",
"k  c #AC2B14",
"l  c #B42413",
"z  c #BC2414",
"x  c #B42B14",
"c  c #BB2A15",
"v  c #B4241A",
"b  c #BC251B",
"n  c #B52B1B",
"m  c #BC2B1B",
"M  c #AA341D",
"N  c #BD321C",
"B  c #B7351D",
"V  c #9A2C25",
"C  c #983727",
"Z  c #8E3330",
"A  c #A72923",
"S  c #B42C23",
"D  c #BB2C23",
"F  c #BA2A27",
"G  c #AA3727",
"H  c #B43323",
"J  c #BC3423",
"K  c #BC332B",
"L  c #B8392B",
"P  c #B63934",
"I  c #AA3934",
"U  c #A41F20",
"Y  c #C9190C",
"T  c #C31D13",
"R  c #CA1E15",
"E  c #C81D1A",
"W  c #D71E18",
"Q  c #E01C12",
"!  c #C2220D",
"~  c #CB230E",
"^  c #C42514",
"/  c #CB2515",
"(  c #C42A16",
")  c #CB2A15",
"_  c #C5251A",
"`  c #CC251A",
"'  c #C42B1B",
"]  c #CC2B1B",
"[  c #D32515",
"{  c #DB2415",
"}  c #D32916",
"|  c #D3251B",
" . c #DB251B",
".. c #D42A1B",
"X. c #DA2A1B",
"o. c #DB2B16",
"O. c #C3321C",
"+. c #CD311C",
"@. c #C5381C",
"#. c #D4321D",
"$. c #DA311F",
"%. c #D4200F",
"&. c #E2251C",
"*. c #E22B1D",
"=. c #E62719",
"-. c #E2361E",
";. c #C42B22",
":. c #CD2C22",
">. c #C82926",
",. c #D42622",
"<. c #DB2522",
"1. c #D42B22",
"2. c #DB2B22",
"3. c #D32A2A",
"4. c #DC2F29",
"5. c #C43224",
"6. c #CC3223",
"7. c #C3332A",
"8. c #CC332A",
"9. c #C73A29",
"0. c #D43224",
"q. c #DB3224",
"w. c #D5342A",
"e. c #DB342B",
"r. c #D43B2C",
"t. c #DC3A2C",
"y. c #D63B25",
"u. c #C83733",
"i. c #D63B34",
"p. c #CC2E30",
"a. c #E22A23",
"s. c #E42926",
"d. c #E5342A",
"f. c #E93B34",
"g. c #F33A32",
"h. c #D81E21",
"j. c #A2481C",
"k. c #9C4C35",
"l. c #A84528",
"z. c #A74535",
"x. c #B54738",
"c. c #B55937",
"v. c #AF4F2F",
"b. c #B96237",
"n. c #C84636",
"m. c #D84837",
"M. c #CD4832",
"N. c #E84639",
"B. c #F14D3E",
"V. c #9B5241",
"C. c #AC5B46",
"Z. c #B85A46",
"A. c #BC5C50",
"S. c #B24C44",
"D. c #8D7053",
"F. c #AC644A",
"G. c #BC6549",
"H. c #A76954",
"J. c #BA6753",
"K. c #AE785C",
"L. c #B57354",
"P. c #BA795A",
"I. c #B5764E",
"U. c #B07865",
"Y. c #C85848",
"T. c #DA5648",
"R. c #D74F48",
"E. c #E75646",
"W. c #F5584C",
"Q. c #C46649",
"!. c #C46A55",
"~. c #C97558",
"^. c #D16F55",
"/. c #FB6A57",
"(. c #E76E57",
"). c #D87769",
"_. c #CA7968",
"`. c #F17967",
"'. c #B5835D",
"]. c #9A9370",
"[. c #A88969",
"{. c #B68667",
"}. c #A7946C",
"|. c #A68C75",
" X c #B68B75",
".X c #AA9779",
"XX c #B99878",
"oX c #BA926E",
"OX c #B7A57D",
"+X c #A9A57D",
"@X c #89815C",
"#X c #C58A69",
"$X c #CA976A",
"%X c #C68877",
"&X c #C79677",
"*X c #D49777",
"=X c #D78470",
"-X c #F48976",
";X c #C7A279",
":X c #D5A474",
">X c #A89C8A",
",X c #B99D84",
"<X c #A79D9B",
"1X c #B8A588",
"2X c #B8AA96",
"3X c #B7B095",
"4X c #B7B2A2",
"5X c #C79982",
"6X c #D99886",
"7X c #D08A83",
"8X c #ED998A",
"9X c #C6A989",
"0X c #D6A58A",
"qX c #C6B28A",
"wX c #C5AC95",
"eX c #C7B399",
"rX c #D4B897",
"tX c #D5A99A",
"yX c #EEA492",
"uX c #C8B9A6",
"iX c #CCB8A9",
"pX c #EAAAA5",
"aX c #F5B3A8",
"sX c #CEC398",
"dX c #CBC3A8",
"fX c #D8C7AA",
"gX c #CBC6B6",
"hX c #D8C8B8",
"jX c #E6D6BA",
"kX c #FFDBBC",
"lX c #F2C4AC",
"zX c #FBE5BE",
"xX c #DDDAC6",
"cX c #D0CCC0",
"vX c #E7D9CA",
"bX c #F9DCC5",
"nX c #FFDFD2",
"mX c #E6DCD8",
"MX c #ECE3C9",
"NX c #FAE7C9",
"BX c #E9E4D5",
"VX c #FEE3D3",
"CX c #FCECD5",
"ZX c #F6E8D5",
"AX c #FBF5DA",
"SX c #EEF0DB",
"DX c #FDF5E3",
"FX c #FEFAE6",
"GX c #FEF4EC",
"HX c #FEFCEC",
"JX c #F3F5E8",
"KX c #FDF6F3",
"LX c #FFFBF3",
"PX c #FEFEFD",
"IX c #FCF8F9",
"UX c #F4EEE5",
/* pixels */
"PXPXPXPXIXPXLXPXPXPXPXIXPXIXJXLXHXHXHXFXHXHXPXLXGXHXFXFXFXAXAXAXAXAXzXAXNXAXAXNXCXMXZXMXvXCXNXNXNXZXZXAXNXzXSXMXNXNXzXjXbXZXBXHX",
"PXPXIXUXBXBXBXZXGXGXUXvXxXxXuXdXuX2X2X4XvXjXiXeXiXdX2XuXfX3X1XqX1XqXqX:XsXjXsXqX1XOX1XoX[.qXsXOX1X,XOXsX;X{.}.qXqXlX9XoX&X1X.XMX",
"IXJXgX4X>XuX1X.X2X1XeX2XwXeXwXqXOXXX9X,X9X.X,XXX9XrX&XXX:X;X$X:X:X:X:X:X:X0X:X$X$X;X*X$X'.$X:X$X$XoX$X:X$X$X#X$X$X:X:X$X$X;X}.zX",
"IXJXxX>X XXX%XU.K.U.{.{.{.#XP.{.L.#XP.I.L.L.P.L.P.I.F.I.'.Q.'.'.'.b.Q.b.b.b.c.Q.v.b.Q.b.v.b.j.b.~.b.b.b.b.b.j.l.l.y j.j.j.G.'.NX",
"LXgX4X.XP.Z.v.y l.y M j.i i i w i M 1 w k H J w < 6 i i i k j.@.@.i N N N B i 5.n n 9.N x B 9.n B i d i c x l n m N n x B G C bX",
"LXdX.XU.% f w x x x c c ( ( ) ( a y.a +.( c ] ( ] +.] ) +.! ! #.#.^ ....y.1.` ' :.;.0.:.] ..] ' :.;.w._ / .._ _ :.1.( ' 6.g G VX",
"LXgX4X|.t 7.9.z ( c c ( a ! ) a ( ) ] ^ ( ^ _ ] ^ +.( a M.N.#.! ) } 1.] ` ] ` 1.` 1.w.1.1.^ T w.,._ ' ' 0.| 1.e.] _ z ] 8.P J.nX",
"LXgXuX X, F ;.z ^ ( ( ! ~ ~ ) ) ^ ( 0.p ] ' _ ^ +.z ] ] ~ +.#.) ) } ....| ` | 1...| 0.1.^ ) #.e.1.,.` | q./ 1.f.1.` _ ' ^ P =XnX",
"IXiX2X5XY.q _ ( / ^ ( _ / ` / ] ^ ' _ ( _ 6.;.^ ] z ' ] z ' ( ) } } o.} } } } } X...[ } } } X./ | | ..) [ } | | 2./ +.) +.k C.CX",
"LXiX2X[.V z ' ( / / ] _ ` ` _ _ ] ^ _ _ ' ] ] ^ ^ ' ^ ^ 6.^ ^ ..o.{  .{ { } { | } } } X.../ ..} o.| ....| ....| } $.) a ' f H.AX",
"JXgXdXoX^.i.@.@.( ( ) ] | ` ` ] ) / / ` ../ ] ^ ^ :.^ ^ ] ^ ] / ..{ } ..| ....| | ..../ / ..| 1.| ..........| ` 1.) ^ B.e.3 U.VX",
"HXgX1X0X8XH N.m.^ ) / ] _ / / ] ../ / / ` / / / ..^ / q./ q ^ ......} } ..} | | ....#...t.d.] ..| ....] ] :.:.] ^ #.) 6./.T.U.GX",
"FXvXwX*X~.T.M.p ( ) ^ ) ) ) ) ) ) ) / ) / ^ ^ ) ] 0.0.! 1.w./ #...X.} } } } } } } ..} #.t.d./ ) } } ) ) ] +.....) ) +.8 f.R.7XDX",
"HXdX,XU.F.n.i O.) ] ] ) } / / ) } / / ) ) / / ` _ / ] +.`.B.4 ] } } ..} } } } } } } } [ / } } ....} } ) ) ] ..] ) } ~ } h.> _.GX",
"UX<X,X X-X!.(.n O.] | | [ } [ [ | ` ` / } / / _ 1.] / q /.N.q 1.X...X.} X.}  .} ....2.q.X.....|  .o.....] :.] ..} ) ..| s.0 7XJX",
"UX2X1X0X*XyXT.m ' ` } ) { } { [ ..| ` ` ,.` ../ _ _ 1.^ 5 T 1.:..... . .| 1.....2.X.| 1.....4.| ..........:.....} $.| E d.0 6XGX",
"BX2XwXU.8X).M.m :.E | } } #.#./ ` 1.) ..1.,.` +.~ +.;.' 1./ ;.:...X.a.<.4.e._ 6.1.<.1.1.X.2.3.3.:.y.q.] :.6...X.} #.} ..d.7 pXLX",
"mX>X9XK.~.(.m.b ` :.] ) ) #.] ] ;._ ! ) >.S r.y.( 8 7 D ^ _ v 9 z ^ [ | F 0 l ( 1.T b b .._ S 0 7 _ 1.1.0.:.} o.....} | q.1 pXKX",
"BX2X0XL.-X`.4 ' ` | ) ) ) ) ~ +.> < 7 1 # + s ' O.p : d ] 5.V o < x ..;., o 6 6.] l # f +.6.C o 6 _ ....1.]  .X.X.} X. .s.9 pXGX",
"BX2X9XC., > 8.` _ ] ) ( ) ( ) +.s j 9.x.= O L ' ( y.0 d ] J e X L 5.) 5.e X K 1...8.t G 6.N C X J 1...| 1... .o.X.X.2.1.d.4 pXKX",
"bXiX6XJ.M.p ` R ` ` ] +.#.+./ ] S f f G $ & P 3.] 0._ 7 _ 7.X V K :.R 6.e o 8.<.2.:.S 3 ' 9.# e 5...| | 2.2.X.} X.a...,.s.4 pXIX",
"ZXuX6Xz.x.#.| | | ] ] ) +.....] 7.1 : 3 . $ F ,.,.` ;.4 5.9 + I 7.,.W 6.e X u.W W 4.>.0 J f # L ' ) ..X.2...} X.[ 2...| d.0 aXIX",
"vXtX*Xz.u._ R W ..` ) ( ) } | _ ;.q v P + * u.3.W 4.w.d y # t P 3.,.{ O.* o F 3.| | e.0 y % f 8.] } X.X.| | ..} [  .:.] s.0 pXIX",
"vXwX6Xl.B :.` | [ / ~ } ) } } q S F 8.S X 2 7.h.2.[ _ x @ % S >.1.X.X.( , + D 3.4.` | ;.o % 9.:.....o.X.<.| } X.{ [ 1.3.4.> pXIX",
"ZXiXyXz.< #./ [ | / [ [ [ } / z > 9 1 s % , a ..| | :.>.i c :.` |  .#.! p l q >.1.....1.;.;.6.] } { { o.X.X.} { X.} #.] a.9 pXGX",
"vXrX6XC `.m.8 X...| [ [ [ } ..' F n ' m B k +.} / 1.:._ ] ] R { <...o.} $.q.3.:.} X.X.2.<.<.1.} o.&.{ &.&. .$.X.o.{ ....d.4 pXLX",
"DXfX*XG.`.m.8 q...[ [ [ W [ ..` 3.,.| X.+.) ) } | W W ,.[ { } [ [ ~ o.} | | <.&. .{ <.,.| X.| | [ { &.&.<.<. .o.a.[ | ..d.0 yXJX",
"vXeX0X!.n.] _ / | } { { } | ] ] | a.W &.%.o.%. ...| | <.{ %.} } d.} o.} ..<.s.&.2.| 1.:.2. .[ { <. .a.<.<.2...X.[ X.q.| s.4 8XKX",
"ZXuX6XS.B 8 / ..` / } } [ [ ` ` | <.X.[  .*.[ [ ] 0...[  .{ ^ t.N...#.#.1.1.a.W 1.:.:.,.2. .| 1.t.:.1.3.>.3.0.1...2.q.2.d.0 8XKX",
"SXhX6XZ.J :./ / ../ } } ~ [ ..` [ <.| ` } o.{  .) 0.] ..| | / t.d.0.0.;.;.1.<.2.b D F :...| ` :.5.v ;.>.b 7.8.] ' 6.` 1.d.7 7XGX",
"BXdX6Xx.q ..a.R 1.] ) } [ } ..| / .._ ....` W <.| ) ( ( ^ _ ] ..X.0.5.0 n ' ' v 3 t 1 J 5._ _ ;.n 3 J S 1 S 5.z d 5.' | h.7 7XKX",
"BXeXyXY.5.N.N.R _ m c m z c b z ' v ' >.E.F ` Y ` ] p i b ' q ,.T r.R.7.c ' ;.D : A < 7.5.;._ 7.H h 7.9 # 3 S 0 9.m._ >.f.R.pXGX",
"AXfX0XY.m ] ^ ' B 1 t % u , r < 3 A 3 t P 3 3 D N./ ^ ' ;.' q E i././.m.^ 0.0.' > K 1 D ' :.' q g F b m : A n n n m.1.,.B.S pXFX",
"DXqX#Xb.9._ ^ ' l 3 f t r 3 V 3 f 3 r t I 0 f l 1.| ] ) ..^ T 3.y.B.Y ) ..| | 1._ b 0 8.1. .1.3.>.;.^ w.7 D u.z p _ 1.W h.n.*XDX",
"SX1X&X~.R._ | ` _ z ' ;.c m F F J c ] ] >.,.../ X.} #.+.} o.X.2.X.Y &.o.2.<.a. .2.1.3.1.{ =.{  .2.3.` e.w.:.0.1.0._ s.&.s.7._.AX",
"AXeX&X*XT.5 <.[ ..^ <.[ ) ..3.,./ 0...X.<.| o.{ o.X.) ) -.-.<.2.&.=.=.{ *.s.Q =.&.,.2.<.s.=. .*. .s.,.2.d. .[ a.| s.a.W f.7.8XGX",
"DXwX0XZ.7 X.[ %. .| <.[ } } W h.[  .| [  .{ [ o.&.W 3.3.} } 2.h.s.s.Q a.| 1. .&.a.a.<.s.Q Q o.} | 2.1.:.2.*.=.W s.s.W } 2.v C.VX",
"GXuX&XQ.4 W X.} | ..3.:.] ) X.2.2.| 1.1.,.2.o.) 3.p.p.7.' _ 7.p.E ,.<.<.8.>.4. .1.q E 4.{ =.d.....2.b 9.2.{ &.a.W 4.o.o. .;.A.nX",
"GXeX0X~.z [ ..) z d 1 f J x n v 0 7.F F F q 3.q # I $ @ F 0 @ k.. e P F # # >.p.1 @ # 9 e.{ <.| | :.# A 2.Q W 2.f 0 } &.a.5 !.VX",
"GXwX9XI.J [ ~ ] m < # : J 1 e & + I 3 V K : ;.A . - O + P 3 . ;   - P # V V > u.1 I I : 3.2.<.<.2.m . 2 1.g.B.R r 3 q.{ X.7 ).VX",
"DX1XqX'.6 f.d./ :.F G # L t $ . @ I V 3 I : F r   O ; & P 3 O   $ e x.< A F > p.3.8.G : ]  . .<.3.9 & 2 q s.f.3.f f ] X.y.9.C.nX",
"FXdX;X'.< e.1.E T F # @ P 3   ; & 2 2 2 I : n h $ O ; $ L t * O * , L : A F 1 S b D t , ] &.s.W F # Z $ u.,.E 4.3 f 0.q.E.(.C.nX",
"AX2X9XI.H e.2.E 3.F 2 @ P U   - & ).S.@ I : g h 2 * Z % n.B t 2 V % P 1 A P + G.!.V Z., ;.W W 3.S + =   `.T.q 3.0 g ;._ ;.m.Y.nX",
"DXeXqX#X9.1._ _ E S I * g F . - $ ).I o S., n K , t V 3 j d < A V : n.0 , A . ).).o 2 @ u.,.,.i.A % A.I V x.D u.3 9 r.1.` i.J.VX",
"LXvXrX#XG 8 a O.N h Z % A D o V 2 , C . & X K ;.7 L S 0 b z > p.F >.;.;.1 # 9 K v 0 3 Y.F t.N.W.j f K 7.> K 3 : + 1 D 0.' < J.nX",
"KXgXeXL.v.r.p ( x : # # q b r G S S L G @ 3 :.1.' b :.3.` ` >.;.>.>.| ..n D e.,.s.:.i.i.r.W.6.c 8.r.1.1.:.7.L h M L ' E N.b J.CX",
"LXiX9X#XY.E.p ( ) ^ c 6./ ..6.m _ 1.' m.u.3.,.W #.)  .[ [ } 1.] 3.q.{ *.2.d./ [ s.W E E +.8 +.$.m.d./ } q.r.8.5.r.N.` | g.q A.VX",
"KXxX0X%X^.i m +.] / } ~ o.Y ` 1.2.| ..R W s.<. .~ } *.*.{ [  ./ ..} { =.W { -.} / d.d.W } ) #.$.d.#.~ { q.2.| | } ..2.,.W 4 A.CX",
"GXuX,X%X^.i @.@.) ) [ [ [ o./ ` 1.X./ X.s. .*.{ } | { } { [ {  ./ $.=.W &.| } q.R d.f.E :.' ;.;.! } W W [ | | ` ..e.| | <.>.~.nX",
"LXuXqX#X`.x p c ( ) [ / Y } ` ..../ 1.` 5 / [ } [ { | { X.} } [ q.d. .&.{ } / q.4.T T :.:.5 -X/.8 ] [ g.1.` X...0.y...<.<.>.Q.NX",
"KX4X1XP.k ^ ^ ] ( ^ / / ] 0.] / ` :.l M./.m.#.#.| { } | ....} ^ E.m.` 2.{ q.) r.w.;.;._ :.z 0.r.O.z ^ t.^ 6./ ..) ../ | | ;.Z.NX",
"GXiXeXP.S ] _ z ( ^ / / +.0.` R ,._ 9.E.(.yXB.5 <. .| [ ] ] / z W.N.` X. .q.( +.^ ] _ ^ z w.p c 5.5.b 6.c l ^ ] / ) / | ,.5.v.zX",
"LXgX1XK.< 1.^ z m b _ ^ z b _ | | 5 E.W.7 E._ <. .<...| ^ _ ` / 8.1.|  .| ../ / ] ] / ' l p N c b 6.' J 9.J m ( ) ) / | 1.;.l.kX",
"IX4XuXH.r z 5.z n n m c z ' ^ ` ,.| 4.:._ _ | 2.W | ] _ / _ ` ] ` ` <.[ } } ] ) / T ] ' N c x O._ ^ ' n n.m.c ( ' ^ / ` | m G kX",
"GXiXtXV.w m l n c l b ( ' 6._ b ^ _ q _ | 4.` / _ ' ' c c ( ( 6.r.6.| | } / / ! ] _ T ' a O.( ( ^ ..^ ' M.5.O.' ) ( .._ ' z l.kX",
"LXcX XC.w 9.m.l l c m c ' ] ' ' b _ ] E / / / _ ;.b c c c z ^ ] O.( ) ..} ~ ) ( ( ^ ] ^ ( O.7 ] ] T ^ ^ N M.m O.( ( _ ^ b s z.bX",
"GXiX|.F.u m 5.z l m N c c p c N O.l ( ^ z ( ] ( ( 8 z a ] a ) a c a ( +.! ! ! ( a ' m s n.`.u.c ( ( ( ' c O.b m b ' m D n.^.V.NX",
"UX2X,XF.w n 8 v l m c p p @.x x p ( c c ' c z ^ ( ^ ( ( ( ( ! ( O.( ( ( ) y.M.! ' ;.m.P h `.K x N @.y.] 8.b 5.5.n n u.f Y.aXkXAX",
"JX4X.XK.w z l l J 8 8 z c m x ( _ ' p x x c 6.^ ^ ^ ' p x ( c z ( O.( p @.@.@.x v m S g 3 yX8XA J N ' ;.8.;.J S L n.R.I S.aXNXAX",
"LXgXdX{.t m S f 9 v 5.m n k m m O.b n B J B N O.' z n x M k m B N N m c N k x M S P x.S.!.8X`.S.M k j j r A G A.z.).S.S.V.aXVXDX",
"PXmX3XD.e 3 r t Y.G < 0 i 1 9 6 1 6 n.M < H J > 6 1 , l.u , 1 i S r r j w t t e V & 8XlXlXpXH.P.F.k.C.c.J.J.H.%X{. XH. XU.>XiXCX",
"KX<X<X[.k.Q.c.k.Z.C.x.c.c.Z.Z.Z.Q.c.^.!.Z.Q.Y.Q.Q.G.J.=XL.!.!.Q._.~.!.J.G.~.!.J._.U.[..X|.|. X XXX{.&X5X X5X|.2X.X|.>X2X4X<X|.mX",
"IXmXcX2XrX[.}..X}.[.&XoXoXoX{.;XsX'.oXoX{.oX$X&X{.$X;XXXoX;X&XXX0X XXX[.K.XXXXXX&X X.X].@X>X|.|.eX+X|.,X|.wX.X1XeX2XuXgXxXmX<XvX",
"IXIX4XxXqX+X1X>X]..XfXoXOX}.}.+XsX}.@X}.OX}.}.OX}.+X1XOX}.OX[.sXjXD..X+X@X+XfX1X9XfXdXdX4XdXfXfXjXMXjXvXjXBXBXSXDXFXFXHXHXKXUXKX"
};
