/* XPM */
static char *result[] = {
/* columns rows colors chars-per-pixel */
"64 64 130 2 ",
"   c #4C2E35",
".  c #4F3435",
"X  c #4E3C36",
"o  c #305C2D",
"O  c #395735",
"+  c #375E36",
"@  c #3A5D36",
"#  c #3D5E38",
"$  c #3A6237",
"%  c #3B633A",
"&  c #3F693E",
"*  c #3C723B",
"=  c #4C4237",
"-  c #4F4339",
";  c #524137",
":  c #524438",
">  c #544B3A",
",  c #57533B",
"<  c #58563C",
"1  c #416739",
"2  c #436A3A",
"3  c #41723E",
"4  c #49713D",
"5  c #50773E",
"6  c #3F6641",
"7  c #446B44",
"8  c #447542",
"9  c #467944",
"0  c #4A7C45",
"q  c #4A7C4A",
"w  c #507E4E",
"e  c #496E51",
"r  c #4C7E52",
"t  c #517F52",
"y  c #4F8146",
"u  c #4F814A",
"i  c #528347",
"p  c #54844A",
"a  c #558849",
"s  c #588949",
"d  c #518053",
"f  c #54825A",
"g  c #5E865D",
"h  c #79A652",
"j  c #7DAC55",
"k  c #7EAD5A",
"l  c #5D8E63",
"z  c #5F8F68",
"x  c #5F9165",
"c  c #57926B",
"v  c #5F9168",
"b  c #608F63",
"n  c #619366",
"m  c #679867",
"M  c #6A9B66",
"N  c #62946A",
"B  c #68976D",
"V  c #70986F",
"C  c #669671",
"Z  c #689774",
"A  c #6A9874",
"S  c #729D77",
"D  c #6EA167",
"F  c #81AF56",
"G  c #83B257",
"H  c #85B558",
"J  c #88B75C",
"K  c #87B859",
"L  c #89BA5B",
"P  c #8FC45D",
"I  c #91C75E",
"U  c #92C85F",
"Y  c #8BC060",
"T  c #92C660",
"R  c #94C962",
"E  c #9BCD6A",
"W  c #AAD67D",
"Q  c #779F91",
"!  c #789D90",
"~  c #7CA395",
"^  c #7FA59A",
"/  c #7DAEA2",
"(  c #79E0C7",
")  c #77E7CF",
"_  c #78E7CF",
"`  c #78E8CF",
"'  c #75E7D0",
"]  c #7BE7D0",
"[  c #77E8D0",
"{  c #7CE8D0",
"}  c #80A697",
"|  c #81A69C",
" . c #84A99D",
".. c #89AB9D",
"X. c #9AB799",
"o. c #9DBA9D",
"O. c #A1BC9F",
"+. c #82ADA1",
"@. c #89AFA1",
"#. c #9EBBA1",
"$. c #A2BEA2",
"%. c #A9BFA2",
"&. c #AED982",
"*. c #B0DB84",
"=. c #9DC3A8",
"-. c #A5C0A4",
";. c #AAC1A3",
":. c #A2C5A9",
">. c #C6CDA5",
",. c #CBCEA5",
"<. c #D0CFA3",
"1. c #CED0A5",
"2. c #C6D2AB",
"3. c #C9D3AB",
"4. c #D0D0A5",
"5. c #80DFC7",
"6. c #85E4CB",
"7. c #8BE6CC",
"8. c #81E9D2",
"9. c #89EAD4",
"0. c #9DF1DF",
"q. c #A2EFDC",
"w. c #A1F1DE",
"e. c #9FF2E0",
"r. c #A3F3E2",
"t. c #A9F4E4",
"y. c #C7F7ED",
"u. c #CAF9EF",
"i. c #CEF9F0",
"p. c #D0FAF1",
/* pixels */
"_ _ [ _ _ _ _ _ _ ) _ [ _ _ [ _ ) ) ) ) ) ) ) ) ) ) ) ) ) ) ) ) ) _ ) ) ) ) ) ) ) ) ) ) ) ) ) ) ) ) ) ) ) ) ) ) ) ) ) ) ) ) ) [ ",
"_ _ ) ) _ _ _ _ _ [ _ _ _ _ _ _ _ _ _ _ _ _ _ _ _ _ _ _ _ _ _ _ _ _ _ ) _ _ _ _ _ _ _ _ _ _ _ _ _ _ _ _ _ _ _ _ _ _ _ _ _ _ _ _ ",
"_ [ ] ] _ _ _ [ _ _ _ _ _ [ [ _ _ [ ) ` ) _ ) ) ) ) ) ) ) [ ) ) _ _ _ _ _ [ _ _ _ _ ` ] _ ) _ [ _ _ _ _ ] _ _ _ _ _ _ ) ) _ _ _ ",
") { r.r.8.{ [ [ _ _ _ [ _ _ _ _ ) [ ) _ ) ) ) [ ' [ _ ) ) [ ) ) _ ) _ _ _ _ _ _ [ ) ) _ _ _ _ _ _ _ _ _ _ _ _ _ ) _ _ _ _ _ _ _ ",
"{ t.i.i.u.t.e.{ [ [ _ _ _ _ _ _ _ _ _ _ _ _ _ _ _ _ _ _ _ _ _ _ _ _ ) _ _ _ _ _ _ ` ) _ ) ` ` ` ) [ _ _ _ _ _ _ _ [ _ _ _ _ _ _ ",
"t.u.p.p.u.t.r.e.w.{ ) [ _ [ [ _ _ _ _ _ _ _ _ _ _ _ _ _ _ _ _ _ _ _ _ _ _ [ _ [ _ _ _ _ ) ` ` ` _ _ _ _ _ [ _ _ _ _ _ [ [ _ _ [ ",
"u.p.i.t.r.t.t.r.t.w.{ ) ) _ _ _ _ _ ) _ _ _ _ _ _ _ [ _ _ _ _ _ ) _ _ _ _ _ _ _ ) _ ) ` ) _ ] ` _ [ _ _ _ _ _ _ _ _ _ _ _ _ _ _ ",
"p.p.p.u.t.u.u.t.r.r.q.8.8.{ { _ _ { [ _ ) _ _ _ _ _ _ _ _ _ _ ) _ ) ) ) _ { [ _ ` ` _ _ ] r.r.{ ) ) { _ { [ _ _ [ _ _ _ [ _ [ _ ",
"i.p.p.i.i.i.i.t.r.t.t.u.u.r.e.r.r.r.e.{ _ _ _ ] _ _ _ _ [ _ _ ) _ { { { 8.r.e.[ _ { r.r.r.t.r.e.{ { e.e.e.e.8.0.r.8.) _ _ _ [ _ ",
"p.p.i.i.p.i.u.t.t.i.i.i.i.t.r.r.r.r.0.[ { [ _ [ _ [ _ [ _ ) ` ` [ e.0.r.0.r.e.8.t.t.u.i.u.r.r.r.r.r.{ { e.r.e.8.w.0.{ _ _ _ _ _ ",
"p.i.t.i.p.i.t.r.y.i.i.u.y.t.r.r.8.{ { { w.e.[ [ _ [ _ _ _ _ _ _ _ _ { { { { 9.u.i.i.p.i.u.t.r.r.r.r.r.e.8.{ ] ] [ 8._ _ _ [ _ [ ",
"i.t.t.i.i.t.r.r.t.t.t.t.t.r.r.r.e.r.r.r.r.w.8.[ _ _ _ _ [ _ ` _ { ) ) _ 0.r.u.p.p.p.u.t.t.r.r.r.t.t.i.i.r.e.8.0.8.0._ _ _ _ _ _ ",
"i.t.r.t.i.i.i.t.r.r.e.r.e.{ { r.r.r.r.r.8.{ r.0.{ ) [ _ ) _ ] { w.{ [ 8.r.t.u.u.i.u.t.e.r.r.r.t.y.i.u.t.t.r.r.r.r.r.{ _ _ _ _ _ ",
"r.r.t.i.i.i.i.r.r.8.{ 8.[ ] e.t.t.0.8.r.r.r.e.8._ _ _ _ ` ] 0.r.t.r.w.r.r.r.t.t.t.t.r.t.t.r.e.r.t.t.t.r.r.r.r.e.0.{ ) _ _ [ [ _ ",
"r.r.r.r.t.t.t.r.r.r.0.[ [ ] e.r.r.8.w.r.r.e.{ _ _ [ _ [ _ ` 8.e.e.r.8.r.r.r.r.r.e.r.e.r.e.e.{ { e.r.e.e.r.e.{ ] { _ _ _ _ _ _ _ ",
"r.r.r.r.r.e.e.r.r.e.{ [ [ ] ] ] [ _ [ { { [ _ _ _ _ _ _ _ ) ) ] [ { ) [ [ { _ _ _ { _ { ] ] ] [ ] ] ] ] { { _ ) ) _ _ [ _ [ _ _ ",
"{ r.r.e.{ _ { { _ { _ _ _ _ ) ) ) _ _ _ ) ) _ _ _ _ _ _ _ _ _ _ ) ) _ ) _ ) [ [ ) ) _ _ ) ] [ [ ` ` ` ' _ ) _ _ ] ` [ _ _ [ _ _ ",
"] r.r.{ ) _ ) _ _ _ _ _ _ _ [ [ _ [ _ _ _ _ _ _ [ _ _ [ [ _ _ _ [ [ ) _ _ _ [ [ ' _ _ _ ] ] [ [ ` ` ` ` [ _ _ _ ) ) _ _ _ ) _ [ ",
"[ ] { ` _ _ _ _ _ _ _ _ _ _ _ [ ) [ { _ [ ) _ _ _ _ ` ` _ _ _ _ { [ [ _ ) _ [ 6._ _ _ _ ' ) [ [ _ _ ) ) ) _ ` ` [ _ _ ) _ [ 8.e.",
"[ [ ` ` ` ) _ ` _ _ [ _ _ [ ) 6._ ( _ _ _ _ ) ) [ ) ) ` { ` ` 8.w.t.w.8.[ [ 6.2.;.( [ _ ] [ ] ] ` _ _ _ _ ) ) ` _ _ ) ) { e.e.t.",
"_ _ ` ` _ _ _ ` [ _ _ [ [ [ 6.3.>.@./ _ ] ] ] ] _ _ _ ] 0.0.0.t.r.t.e.e.w.7.2.,.$.=.( 8.e.e.r.e.{ { e.r.e.{ ] ] _ _ _ { r.t.r.w.",
"_ _ _ { r.0.8.r.r.{ [ [ _ 6.3.4.,.$.| +.( { e.r.{ { _ ] { 8.{ r.e.e.r.7.3.3.<.1.;.%.:.q.r.t.r.r.r.r.w.r.r.r.r.w.{ { 0.r.r.0.{ [ ",
"_ 0.r.r.t.r.r.r.r.e.w.7.3.1.4.,.%.$. .| :.w.r.e.w.0.` ` 6.2.( [ [ 7.3.3.1.<.<.,.>.%.$.:.r.r.r.r.r.r.{ _ { e.r.r.0.{ _ { { _ ) _ ",
"{ 8.r.r.r.r.r.r.r.7.3.3.1.<.1.;.;.>.$.|  ._ { ] { { [ 6.3.>.@./ 5.2.<.<.4.1.<.,.%.$.@. .#.6.e.r.0.{ _ _ ` ] _ { { _ _ _ _ ) 6.3.",
"e.0.r.0.8.r.r.7.2.1.,.;.;.3.,.1.4.,... .| +.#._ ] ' 6.3.,.;.| ^ @.,.4.1.<.1.,.;.$.$.$.+.| $.8.] ] ) ] [ _ ] ' [ _ _ ) _ [ 6.2.<.",
"{ { _ { [ [ 6.2.,.,.;.$.$.;.,.4.4.>.$.$.$.| +.#.( 7.3.,.;.-.o. .| %.,.4.1.4.4.,.$.%.$.| +.$.#.( [ ] ' 7.>.@.( { _ _ ) ' 6.2.<.,.",
"[ ] _ ) ) ( =.%.;.-.$.$.-.$.,.1.%.$.;.$.@.| |  .:.,.,.%.-.#. .| |  .%.,.4.,.1.1...$.$.| | | +.( ) ( 5.3.,.| +.#.( [ [ 6.3.<.,.%.",
"_ ( _ ( c X.$.$.#.$.$.-.$.-.;.,.$. .$.$.| | | | $.%.>.%.#. .| | |  .,.,.,.;.;.>. .| $.| | | | +.+.+.,.,.%.+.| | +.) 6.2.,.;.$.$.",
"-.-.=.o.q t |  .+. . .$.$.$.%.,.;.| +.+.| | | | $.$.-.#... .|  .#...$.-.$.$.1.,. .| $.$.| ^ | | | $.%.%.$. .| | | +.$.%.$.$.$.@.",
"$.$.o.g 8 q ^ +.^  .#.@.$.$.%.1.>...^ ^ | | | | $.$.-.$.$.#.-.#. .|  .#...$.,.4.%.|  .$.+.| | | +.$.$.o.$.#. .| | #.$. .$.$.$. .",
"|  .^ ~ q q ~ | | |  .| $.,.1.1.<.$.| f | @.| | #.$.$.%.-.$.-.$.#.| ^  . .#.;.1.,. .| $.| ! Z } $.$.o.b X.@.| | Z | +.| $.$. .| ",
" .^ C d % 8 r N C ^ ^ | %.,.1.1.1.$.~ t X.$.$.| A |  .#.$.-.$. . .| | ^ |  .#.;.,.$.+. .A N b Z  .$.O.q t Q | ^ N C ^ ^ | | | ^ ",
"X.Z n l 8 % l N N N N Z X.;.,.4.,...r q o.$.| ^ N v Z |  .O.=.~ Z ^ | C C ^  .O.1.-.} | ~ B C ^ #.O.X.7 o f ~ Z Q Z ~ Z ~ ^ ^ C ",
"B N n q 9 $ q N N N N v S #.;.>.,.o.q 9 ~ ^ B N N B ^ ^ |  .} B x Z | ^ N Z X.S X.-. .~ Z ~ ~ | | Z N 9 6 ! | N N N N v C ~ C x ",
"n N n q 8 + % b N N v B X.-.$.%.V w 8 % d N N x C ~ | ~ Z ~ C v C ~ ^ | ~ N B l f -.=.C n v f ^ | N q 9 8 e ~ N N N q N N N x q ",
"N n q 8 - ; 8 q x N v q B m A X.t * % % l v v C ~ Z ~ f l N v B ~ ^ N N C N x 9 0 o.o.B x 0 q ~ ~ B l % * % z N N l q l N N x 9 ",
"n N x % X X $ 9 u v x 9 9 z N B l & 8 + 7 z v N N v v 9 q n x v B N q x N n v 9 q N B v N l q x B v q $ $ $ q N n q 3 q N v q 8 ",
"N N x % @ + % b v v u 9 9 N N x q 8 8 9 l N N z N v q 9 9 n q q x x q v N N N 9 3 q x v x q 9 9 v l 9 9 8 % l N x 9 9 q x N l & ",
"N N 2 8 % 8 % n N v x 9 9 l N n q 1 % 8 8 n B N v m n 9 q n 9 * q x u n N N x q 3 u m n q 0 9 q x p 0 8 + % q N N n q l N g q 8 ",
"G x 9 8 9 8 % 9 x n q 9 9 p n N m j % 1 j m k G m G j p j G i 0 q x n k D Y D L u m k k m j y x m k j > - l m k M j p n x 9 + 8 ",
"G a 8 % 8 : = + i h 0 8 0 F F M G G % % G M G H G H G M P K P P M k M H P P P P M P H H H j a j G H G ; : j k H k a j G n % $ = ",
"G j q + = X O 1 h s 0 9 8 s G G H j 2 2 G H H P H G H P I I U I P H k H H H K I I U P H G H G H H H F , < G H H F 0 G K j 0 8 @ ",
"G s 9 8 # @ + + 2 j F 9 9 F H I I H G G I I U I H I I I I I I K H K H H H K P I U P H H H H K H H H H G G G H H y 0 j G a 8 @ - ",
"H h 1 % + = # + $ 5 F i 0 G H U U I I H I H I I I I K I I I I P K Y H H P P U I I K H P K H P I P H I P H H H P 0 8 y H h & X X ",
"H s 8 8 1 ; 8 i L H I G G G H U I H H G G G H L P H G H I I I I P U P I U I I I I P P U P I I I U P U I P I I H i 8 i j 4 3 8 $ ",
"K L a 0 X . i P U U I I I I H H H H H G G H G G H H K I I I I I U U I I I I U P U U U I U I I I U I U I I I P P j i j G y 0 8 8 ",
"I U I L > : L R I U U I H H H H I H I I H P J H H K I U I I I I U U I I I I I K P U U I I I U U I I I I I K H H G p G H P F > X ",
"U P L P > > P L I I I I I U H U U I I U I I I I I I I I I I I I P U I U I U P K P K P I I U I I I I I I I I P H H G H P I G > . ",
"I H H G X ; H H H J I U U T I R W R I I I I I I I I I I I I I I U I I U I I I K I K U U R W U I I I I I I I I I K I P K H F :   ",
"I H G F , , G H H I U T I I U U U I U I I I I I I I I I I I I I I I I I I I I I I U R W R U U I I I I I I I I I I I K G H F < : ",
"U I J H G G H H I U I I U T I I I I I I I I I I U I I I I I I I I I I I I I U I I I I U U I I I I I I I I I I I I I P H G H F F ",
"U U I U U U I I I I I I I I T I U I I I K I I I U R U U U I I I I I I I I I I I I I I I I I I I I I I I I I I I P K H H H H K K ",
"U U U U U U U U U T I U T I T U I I I I H I J I U W R W R U I I I U I I I I U I I I I I I I I I I U I I U I I I I P K K P P K P ",
"U U U U U U U U I I U I I U I I I I I I I I I I U R U U U U U I I I I I I I I I I I I I I I I I I I I I I I I I I I P I I I I I ",
"U U U U U U I I J I I U I U R I I I I I I I I I U I I I I I U I I I I I I I I I I I I I I I I I I I I U I I I K I I I I I I I I ",
"U U U U U I J I H I J I R R W R I I I I I I I I U I I I I I I I I I I U U I I I U I I I I I I I I U I I I K P K I I I I I I I I ",
"R W R I U U H I U I I R W R R U I I I I U R I I I I I I I U I I U I I I I I U I U U U I I I I I I I I I I K P K P K I I I I I I ",
"U R U T U U U U U I U U R I I I I I I U W *.R U U I I I I I I I I I U I I I I I U U I I I I I I I I I I I I I I I I I I I I I I ",
"U I U U U U U U I T I I I I U I I I I L *.&.R &.*.I K I I I I I I U I I I U I I U R U U I I I K I I I I I I I I I I I I K I I I ",
"H H I U U U U I U I R I H I U I I I I K U J J &.&.L H I I I I I I I I I I U U U R W *.*.R I H H I I I I I I I I I K P I P K I I ",
"H I U I H U I J I U U I H H I I H I U I I I H J L I I H I I I I I I I I K I W W W E *.*.W I G K I I I I I I I I I P K K P K P P ",
"H J I H H I J I I I I U I H H I H I I I I U I I I I I I I I I I I I I I K H I W W W L L P I K I I I I I I I I I I I I H H H H H ",
"H F H H H H I U I I I U I H F H H H I I I I I U U I I I I I I I I I I I I H I J K K H P P P I I I I I I I I I I I I I H G H G H ",
"H H H H G H I U I R I H H H H H G G I I I I I I I I I I I I I I I I I I I I I I P P I I I I I U I U I I I I I I I H H G H H G H "
};
