/* XPM */
static char *_0d33592a108469dd1d9986c54566a3eUcZNhUsrpfNscanI[] = {
/* columns rows colors chars-per-pixel */
"64 64 179 2 ",
"   c #010202",
".  c #060709",
"X  c #090A0C",
"o  c #070809",
"O  c #0E100F",
"+  c #12110E",
"@  c #0D1111",
"#  c #121414",
"$  c #151719",
"%  c #1B1C1C",
"&  c #191B19",
"*  c #0B0C10",
"=  c #1C201F",
"-  c #21211F",
";  c #1A1E21",
":  c #1D2120",
">  c #232425",
",  c #252729",
"<  c #27292A",
"1  c #2A2C2C",
"2  c #242827",
"3  c #2F312E",
"4  c #31302E",
"5  c #2E2F31",
"6  c #2D3131",
"7  c #323333",
"8  c #353638",
"9  c #35393A",
"0  c #3A3B3C",
"q  c #373836",
"w  c #3C403F",
"e  c #41413D",
"r  c #3E3F41",
"t  c #3E4141",
"y  c #434545",
"u  c #464846",
"i  c #454648",
"p  c #47484A",
"a  c #4B4C4D",
"s  c #4E4A47",
"d  c #524F4D",
"f  c #4E504F",
"g  c #53514E",
"h  c #4F5150",
"j  c #535454",
"k  c #555658",
"l  c #57595A",
"z  c #5A5B5C",
"x  c #575857",
"c  c #605C59",
"v  c #5F615F",
"b  c #62615E",
"n  c #5D5E60",
"m  c #5E6062",
"M  c #636464",
"N  c #656668",
"B  c #67686A",
"V  c #6B6C6C",
"C  c #696866",
"Z  c #706E6F",
"A  c #6E706F",
"S  c #71716F",
"D  c #6E6F71",
"F  c #6F7073",
"G  c #737474",
"H  c #767876",
"J  c #787875",
"K  c #767779",
"L  c #76797A",
"P  c #7B7C7D",
"I  c #787773",
"U  c #807F7D",
"Y  c #7E807F",
"T  c #81807E",
"R  c #7D7E81",
"E  c #7F8082",
"W  c #838484",
"Q  c #898683",
"!  c #868887",
"~  c #8A8987",
"^  c #858689",
"/  c #87898A",
"(  c #8B8C8C",
")  c #918E8B",
"_  c #8E908F",
"`  c #91908E",
"'  c #8D8E91",
"]  c #8F9092",
"[  c #939494",
"{  c #969897",
"}  c #959699",
"|  c #97999A",
" . c #9B9C9C",
".. c #9A9896",
"X. c #A19F9C",
"o. c #9FA19E",
"O. c #9D9EA1",
"+. c #A09FA4",
"@. c #9FA0A2",
"#. c #A2A3A4",
"$. c #A9A6A4",
"%. c #A5A6A8",
"&. c #A7A9AA",
"*. c #AAABAC",
"=. c #A8A9A7",
"-. c #B1ADAB",
";. c #ADB0AF",
":. c #B2B1AE",
">. c #AEAFB1",
",. c #AFB1B2",
"<. c #B2B3B4",
"1. c #B6B8B7",
"2. c #BBB9B6",
"3. c #B5B6B9",
"4. c #B6B9BA",
"5. c #BBBCBC",
"6. c #C1BDBA",
"7. c #BEC0BF",
"8. c #C3C1BE",
"9. c #BDBEC1",
"0. c #BEC1C2",
"q. c #C3C4C4",
"w. c #C8C6C3",
"e. c #C6C8C7",
"r. c #CBC9C6",
"t. c #C5C6C9",
"y. c #C7C9CA",
"u. c #CBCBCC",
"i. c #C9C7C8",
"p. c #D2CECB",
"a. c #CED0CE",
"s. c #D3D1CD",
"d. c #CDCED1",
"f. c #CFD1D2",
"g. c #D3D4D4",
"h. c #D8D5D1",
"j. c #DBD9D5",
"k. c #D5D6D8",
"l. c #D7D9DA",
"z. c #DBDBDB",
"x. c #D6D8D7",
"c. c #E1DEDA",
"v. c #E0DBD7",
"b. c #DCE0DF",
"n. c #E4E2DD",
"m. c #EAE5DF",
"M. c #DCDEE0",
"N. c #DEE1E2",
"B. c #E4E4E3",
"V. c #E9E6E3",
"C. c #ECEAE6",
"Z. c #EDECEA",
"A. c #E6E8EA",
"S. c #F2EDE6",
"D. c #F1EDEA",
"F. c #F2EEEB",
"G. c #F1EDE9",
"H. c #F3EFEC",
"J. c #F2EEEA",
"K. c #EFF0EC",
"L. c #F4F1EC",
"P. c #F4F0ED",
"I. c #F5F0EC",
"U. c #F5F1EE",
"Y. c #F6F2EF",
"T. c #F5F2ED",
"R. c #F7F4EF",
"E. c #F4F1EC",
"W. c #F8F3EE",
"Q. c #F9F4ED",
"!. c #F6F3EA",
"~. c #EEEFF1",
"^. c #F7F3F0",
"/. c #F5F5F2",
"(. c #F9F5F1",
"). c #F9F6F2",
"_. c #FCF9F5",
"`. c #FDFDFA",
"'. c #F7F9F6",
/* pixels */
"F.H.H.H.H.I.I.D.H.I.D.D.H.H.D.H.!.S.S.Q.V.Q.).S.S.S._.C.L.R.L.L.L.S.H.S.^.V.I.(.S.!.!.S.I.Q.R.I.I.E.E.H.^.H.H.H.E.E.E.E.E.L.L.L.",
"U.U.U.U.^.(.(.^.D.H.I.U.H.U.^.^.!.!.!.S.I.S.S.I._.c.Q._.!.C.).R.L.U.H.S.I.(.(.S._.!.S.S.I.S.S.U.L.E.H.U.H.H.H.^.E.E.E.E.L.L.L.L.",
"^.F.c.p.r.p.h.h.h.h.v.v.p.p.h.p.p.v.h.v.c.S.C.^.G._.^.C.'.V.n.V.j.V.U._.^.^.I.(.K.K.!.K.F.I.I.F.U.H.U.H.^.H.^.H.E.E.E.E.L.L.L.L.",
"U.V.h.6.2.2.6.6.p.w.p.p.6.6.8.6.p.p.2.7.s.Q.Q.I.G.^.C.z.n.w.:.( $.8.p.r.w.n.m.S.L.R.R.L.F.L.!.R.H.U.H.U.H.H.H.H.E.E.E.E.L.L.L.L.",
"^.(.H.G.C.G.C.V.D.V.H.^.V.D.P.V.C.C./.C.L.C.Z.b.p.q. .#.r.8.q.a.z.w.6.u.w.w.5.s.s.s.j.L.'.K.Z.K.U.H.^.H.H.H.^.H.L.L.L.L.L.L.L.L.",
"C.G.G.H.H.^.^.D.D.D.D.U.D.I.(.D.K./.Z./.c.a.$. .2.#.q.x.5.5.l.5.+.' >.j.z.q.*.w.a.a.a.s.n././.C.H.U.H.H.H.^.H.H.L.L.L.L.L.L.L.L.",
"^.^.H.G.D.D.^.^.U.D.H.H.I.U.I.D.V.`.V.8...{ [ 7.%.<.g.e.5.,.1.,.%.,.5.+.+.5.i.d.A.b.u.7.8.b././.E.H.E.H.H.H.H.H.L.L.L.L.L.L.L.L.",
"H.H.H.H.H.^.H.D.D.U.D.D.U.U.D.U.K.K.5.j #.{ @.@.*.#.%.=.u.0.&.3.6.5.k.t.q.5.*.,.o.o.:.j.b.e.a./.E.E.H.^.H.^.H.^.L.L.L.L.L.L.L.L.",
"U.H.U.H.U.H.U.H.D.^.D.D.(.U.D.^.'.q.C o.o.G _ ] 3.3.0.0.O.O.| @.} D O.u.y.d.k.g.9.%.*./ :.e.u.7.c.^.C.V.).H.D.^.L.L.L.L.L.L.L.L.",
"H.U.H.U.H.U.H.U.U.(.U.U.U.D.U.^.e.Y  ._ A o.&.,.&.,.0.| &.9.E 0.9.+.+.9.t.t.9.9.t.d.u.q.E Y e.a.*.v.`._.C.H.).C.L.L.L.L.L.L.L.L.",
"U.H.U.H.U.H.U.H.U.U.D.(.D.D._.A.G E V A { ] *.@.9.0.M.3.9.| 9.y.A.O.O.M.B.M.k.6.&.*.#.3.a.7.T ;.<.w.V.H.D.^.^.^.L.L.L.L.L.L.L.L.",
"H.U.H.U.H.U.H.U.D.D.D.(.D.I.(.w.( _ Y ! _ Y 1.*.0.b.3.0.R R k.A.9.^ ^ O.} >.t.*.#.1.q.3.{ 1.x._ ) 6.C.D.D.).H.G.L.L.L.L.L.L.L.L.",
"U.H.U.H.U.H.U.H.H.H.H.I.D._.V.+.Y v ~ 7.;.0.k.7.&.E &.&.R n @.M.O.R } O.9.<.%.O.y.q.y.y.[ T 7.h.' X.p.W.^.F.F.H.L.L.L.L.L.L.L.L.",
"H.U.H.U.H.U.H.U.^.H.H.D.D.U.w.U A Y o.a.0.} 7.l.9.0.b.A.t.*.^ E O.' *.f.d.>.<.d.o.u.f.7.7.;.C #.r.U ) c.(.V.^.^.L.L.L.L.L.L.L.L.",
"U.H.U.H.U.H.H.H.H.D.^.D.I.V.X.I Y Y 7.a.0.#.&.0.&.0.N.N.d.+.' , O.' D >.9.d.k.3.M G 1.V.q.7.7.o.-.X...r.C.F._.B.L.L.L.L.L.L.L.L.",
"H.U.H.U.H.U.H.H.^.D.(.H.).n...Q Y o.7.;.7.E 3.0.E E E &.W ^ +.F ' R   p / 9.M.l.<.u _ a.b.7.=.2.) -.) -.U.F.F.L.L.L.L.L.L.L.L.L.",
"U.H.H.U.H.I.I.I.I.L.C./.Z.t.H / 4.e.| W E ' &.,.] ] } ,.<.} [ | | >.+.5 > R *.k.l.3.O. .d.k.+.^ I Q [ $.V.K.R.R.L.L.L.L.L.L.E.E.",
"H.U.H.H.I.I.I.I.L.Z.E./.A.<.F E 0.0.V ] 0.,.%.' ' >.<.9.9.} ^ +.t.d.i.<.N   j ] t.q.>.| +.t.9.W ~ M [ *.'.R.K.!.I.S.L.L.L.L.E.K.",
"U.H.^.H.I.I.I.I.E.K././.l. .G L y.f.( 3.0.&.O.} >.>.5.9.+.O.] N ^ 5.9.M.d.} a o l O.*.O.^ <.q.] H x [ r._.L.L.L.I.S.I.L.E.E.E.K.",
"H.U.^.H.I.I.I.I.R.E.K./.e.{ / } ,.<.*.5.W ^ [ &.>.,.*.,.9.5.,.O.B y ^ 3.l.A.0.+.z N O.>.,.>.f.>.W P C c.Z.Z.).L.!.!.I.L.E.E.K.^.",
"E.E.I.I.I.I.I.I.K.!.C.`.7.&.;.0.4.+.' >.' @.%.>.+.%.,.i.t.*.>.3.3.%.^ n ^ 0.d.t.,.K R [ R R | >.z.;.f n.'.Z.R.!.K.L.E.E.E.E.K.E.",
"E.E.L.I.I.I.I.I.K.R.K.'.;.3.7.f.9.%.M ' #.#.O.} 3.%.%.*.O.+.3.+.} | O.^ a F ^ +.3.5.' R W ' l G 5. .I A.'.C.C.R.!.L.E.E.E.E.^.K.",
"E.H.I.I.I.I.I.I.K.!./.A.@.7.4.f.>.>.R } O.} } O.' >.+.+.t.t.+.R } O.i.>.K 8 > N %.q.( r O.W V K I C [ C.!.Z.U.).S.I.E.E.E.E.K.E.",
"H.U.U.U.I.I.I.I.K.K./.l.@.7.0.N.G ^ O.O.W / ' } *.*.%.*.+.R M a D *.d.d.>.O.l 8 K } W ] W D K 3.5.W #.'.R.K.R.C.!.I.E.E.E.E.^.K.",
"U.H.U.E.I.I.I.I.F.L./.q.#.1.a.l.K ] %.R R O.R ] K R [ 3.q.t.9.+.M 8 D +.d.g.<.n R ' / ' R ' 9.t.;._ 5./.Z.K.L.L.S.I.L.L.L.L.L.L.",
"H.U.E.E.I.I.I.I.R.L.E.*.&.*.y.0.W %.| ^ ' ( R n ' 3.d.M.g.g.M.d.t.' 8   W 6.t.9.[ R R k O.>.5.t.#.W r.'.Z.L.L.L.!.I.L.L.L.L.E.K.",
"U.H.E.E.I.I.I.I.U.Z.C.{ 1.@.f.4.^ ,.W ] ' n n [ 9.t.0.d.M.g.g.d.l.k.d.' i h / ,.d.>.N ' 9.d.9.O.{ Y g./.L.E.L.L.S.!.I.I.E.E.E.K.",
"H.E.E.E.I.I.I.I.C.E.C.` 0.;.N.4.K O.} ' a B ^ &.>.t.d.M.A.d.k.N.d.k.t.>.n *   B <.i.9.g.d.t.<.}  .! q.'.E.K.R.L.I.I.I.I.E.E.K.E.",
"U.H.L.L.I.I.I.I.S._.Z.` <.,.N.0.R +.( n r ' O.W O.9.i.d.M.d.d.t.q.K r $ n R n $ p O.q.y.g.M.*.] { _ o./.R.Z.E.U.K.L.L.L.E.E.E.K.",
"H.U.L.L.I.I.I.I.S._.n.)  .2.N.0.N #.B a D l r 5   1 l ( 3.d.k.d.O.B F R %.9.3.' $ i ' 9.3.4.O. ._ _ Y V./.K.L.L.!.L.L.L.E.E.E.E.",
"U.H.U.L.I.I.I.I.C.R.B.( { y.Z.y.B / y j V V ( O./ N i n ' 9.d.t.+.^ ] 9.*.9.>.O.B . B ' *.%. .} ` ( G e.R.E.C.Q.S.I.L.L.E.E.K./.",
"H.U.E.L.I.I.I.L.L.R.C.[ o.x.~.y.K ^ , M K ' ( <.9.>.' K R *.k.g.+.] O.<.5.<.} R W y 7 ^ } } ,.o.| ( I ;.Z.R.C.Q.!.I.L.E.E.E.E.K.",
"I.I.Q.H.!.K.!.K.C._.z.~ O.g.~.k.n p r D K G K %.,.>.3./ K >.u.9.>.+.W D D n k N V N X R O.%.9.+.+.R ^ ' V.H.^.I.W.I.!.!.Q.L.C.K.",
"I.H.H.H.!.!.!.!.K.R.j.T  .k.~.B.F . y K F N G N B R D / ' O.9.t.3.9.R n k * p , N R r D O.+.>.>.O.O.^ R i.(.C.I.!.S.!.S.S.I.!.!.",
"I.^.S.Q.K.!.L.K.!.L.j.I %.x.~.~.^   k F D y , > o l K ' O.%.t.>.3.9.%.%.O.D D R ' &.R D O.%.>.9.+.+.} R <.`.C.^.I.W.I.S.K.!.E./.",
"I.H.!.S.K.!.L.L.K.L.j.G $.l.Z.A.B o l F D k , a D ' 3.>.^ +.u.9.+.9.t.d.>.,.9.0.t.t.>.G } >.,.9.9.+.O.} [ V.(.A.S.I.I.!.K.!.K.Z.",
"I.I.I.I.E.E.K.E.K.R.x.C *.l.Z.N.n   l ' R } ' +.>.3.9.3.' 9.M.d.9.>.d.d.d.y.M.t.g.0.<.R E <.<.5.9.9.&.| R t.`./.K.K./.K.!.R.K.K.",
"^.H.I.I.E.E.E.K.K._.r.A ,.l.Z.A.K . n ' O.9.i.t.t.k.t.O.} %.t.<. .3.f.d.M.f.d.M.d.4.>.[ N  .&.4.9.9.9.9.%.+.d.~.'./././.K.K.K./.",
"I.H.H.I.E.E.K.E.C.`.5.I 4.l.Z.~.} . M ^ %.9.i.i.k.k.d.+.N r p a   N %.z.N.k.M.d.y.4.%.[ j R { ,.9.t.9.d.9.} } 9.m.b.V.K./.K.K./.",
"I.H.Q.H.E.E.E.E.Z.`.1.W y.b.A.~.>.  D | ] *.9.u.d.d.0./   h j G ' , ( d.k.k.k.t.4.&.' R y V [ :.9.9.d.d.9.M.9.9.7.8.a.C.K.K.K./.",
"Q.H.!.C./.E./.K.`.~.+.<.g.l.Z.Z.%.. n R ' #.>.9.y.f.9.] ' ,.d.d.d.*.3.i.x.l.u.7.&._ ! Y = z ( ;.5.u.x.g.u.f.g.g.g.e.x.K./.K.L.K.",
"U.G.R.L.K.n.n.z.z.M.6.t.l.z.B.B./   y R W ' +.4.0.d.3.,.3.u.y.d.9.t.u.i.e.a.a.<.@.Y Y V = 3 ! [ 4.t.d.g.f.l.g.a.a.x.a.n.'.K.C._.",
"Q.C.R.R.Z.h.l.l.l.M.A.N.A.B.b.x.D # 5 k F ^ ' &.9.t.3.3.@.%.} } [ #. .<.7.7.7.=._ Y Y v < . h J #.-.q.u.f.f.u.q.e.e.x.C.K.R.'.C.",
"Q.C.I.I.Z.z.z.B.M.n.A.M.b.g.a.;.8   $ k B K ^ O.3.<.%./ V K B a M l f P 7.e.:.@.! ! C G q     7 z G ~ #.*.<.<.1.e.;.7.'.E.n.E.!.",
"!.C.L.K.E.j.d.g.y.y.0.4.1.&.#.G . X X y B K W } O.&.} j 9 6 : X       # A 1.&.{ E E Y v w 1   5.L.8.~ A A T [ o.} +.$.n./.L.L.Q.",
"K.L.K.Z.Z.5. .O.] ] ' / ! L F w ; %   r B R W ] O.@.n . : : w l ! P C a I ;.=. .{ _ Y A   O { '.E.).(.n.<.W M j I T } C.).).!.n.",
"K.!.F.E.H.X.B K E ^ / / E Y l 7 ,     i M K ^ W O.} N p ] >.,.7.e.1.{ W [ #.o.{ _ ~ G G A ! `./.L.C.C.R.'.E.u.<.V e x m.Q.V.Q.Q.",
"L.!.F./.H.~ a V m v C M v v >     V ,   f ^ K ^ ' ' E F L } @.] G G z V ! [ { W ! _ A ! /.K.K.K.K.I.R.L.L.U./.^.H.w.X.C.Q.S.!.!.",
"R.F.E.^.(.) % d q 4 7 4 - # g X.g.'.u.A C C E P W Y L M t ; X X   2 j I W Q W P T J b :._.C.C.Q.!.L.L.L.L.L.L.L.L.I.L.L.I.R.L.L.",
"L.(.F.C.(.Q # s d c b C Q 6.V.(.'.K.R.R.8.C I I G G G N n m Y E o.X.#.X...' W K P I g n.).!.Q.S.L.L.L.L.L.L.L.L.L.L.L.L.L.L.L.L.",
"F.H.F.C._.B.w.c.v.V.C.V.D._._.D.Z.E.'.E.`.#.e A B A F Y E 7.0.f.g.g.u.4.+./ R D C 7 Q E.R.!.K.K.L.L.L.L.L.L.L.L.L.L.F.L.K.L.L.L.",
"^.^.^.F.V.I.`.H.(.I.I.(.U.C.D.I.E.K.E.n.'.Z.S x V B Y E &.0.0.7.7.q.4. .T G N n s o e.K.R.L.C.!.L.L.L.L.L.L.L.L.L.L.L.L.L.L.L.L.",
"C.^.C.^._.D.D.^.U.U.D.D.D.U.(.P.E./.Z.'.K.K.=.4 v v V G Y /  .| [ ( E L B n r 5 0 4 i.`.K.C.'.L.L.L.L.L.L.L.L.L.L.L.L.R.I.R.L.L.",
"^.^.C.^.D.C.D.D.V.D.U.P.P.U.D.V.V.R.m.K.L.K.o.- u t j v f v B B x a a k a 5 , , a l u._.Z.K._.C.L.L.L.L.L.L.L.L.R.R.L.L.I.!.L.R.",
"C.C._.).D._.`.V.(.U.P.P.D.D.U._.).K._.K.C._.:.q u 3 w u t w w 6 t w 9 6 ; # , a M k k.C.E.K.S.K.L.L.L.L.L.L.L.L.L.L.L.L.L.L.L.L.",
"^.^.H.C.).^.m._.U.U.P.D.P.U.D.D.L.!.K.L.K.L.8.u v 1 = 3 6 6 w 9 2 6 2 = $ , i l M h k./.E.C.Z.'.L.L.L.L.L.L.L.L.L.L.L.L.L.L.L.L.",
"L.L.L.L.L.L.L.L.I.I.U.U.U.I.I.L.!.I.S.U.Z.E.8.u C u = 2 2 1 3 2 ; 2 = X 2 j m m V k i.`.).B.L.L.U.L.L.L.K.K.K.!.L.L.!.R.L.L.R.R.",
"L.L.L.L.L.L.L.L.H.I.U.H.I.I.L.L.K.R.E.L.K._.r.e b C j o < 2 = = : @ @ w m V V G N j v.^.V.).K.L.L.L.L./.Q.!.I.).L.C.!.I.L.C.C.C.",
"L.L.L.L.L.L.L.L.I.^.H.H.L.L.L.L.L.L.Q.Q.K.R.8.e S I S x   < 3 2 = 1 t v G A m V Z d s._.D.S.H.I.L.S.!.R.!.C.C.S.L.I.L.K.L.E.)._.",
"L.L.L.L.L.L.L.L.^.H.H.H.L.L.L.L.Q.Q.K.C.C.`.a.s b S Y I x . 2   . 3 j v z M B V n + 6._.B.).F.Q.E.R.I.I.U.Q._._.K.I.).)./.!.S.C.",
"L.L.L.L.L.L.L.L.L.L.L.L.L.L.L.L.m.)._.K.!._.#.+ C b I I A f   2 f b I W [ ..#.-.-.6.v.I._.Q.m.S.L.Z.n.j.j.m.n.j.m.n.n.v.n.m.L.).",
"L.L.L.L.L.L.L.L.L.L.L.L.L.L.L.L.Q.!.K.!.K._.h...:.7.2.u.g.a.z.j.n.A.C.Z.'.'.).)._.C._.C.m.Q.!.!.S.L.n.s.s.j.h.w.h.s.8.8.8.h.V.).",
"L.L.L.L.L.L.L.L.L.L.L.L.L.L.L.L.Q.C.K.Q.Q.C.V.'.K.`._.'.'.K.`.'.K._._.K.F.U.E.L.I.I.S._.Q.S.!.S.!.R.I.K.L.).).R.I.!.Q.Q.R.I.!.L.",
"L.L.L.L.L.L.L.L.L.L.L.L.L.L.L.L.S.Q.Q.K.!.Q.K.E.'.m.K.K.A.K.K.Z.K.K.Z.E.U.F.Z.E.I.S.!.S.!.Q.S.Q.K.S.I.Q.R.L.C.E.E.!.!.K.K.K.L.L."
};
