/* XPM */
static char *_db1a99304534d89a93a3da6199b18e9475X661W1ts3GUva[] = {
/* columns rows colors chars-per-pixel */
"64 64 256 2 ",
"   c #050609",
".  c #180B09",
"X  c #191409",
"o  c #040615",
"O  c #190B17",
"+  c #091818",
"@  c #1B1717",
"#  c #0B1107",
"$  c #24150C",
"%  c #241A0C",
"&  c #2C1C0C",
"*  c #29160A",
"=  c #321B0A",
"-  c #221513",
";  c #241B14",
":  c #2C1C13",
">  c #281819",
",  c #341A16",
"<  c #270D0F",
"1  c #1E221D",
"2  c #2B220D",
"3  c #37270D",
"4  c #2C2314",
"5  c #2C241B",
"6  c #282619",
"7  c #342314",
"8  c #3B2414",
"9  c #342A13",
"0  c #33241B",
"q  c #3A241B",
"w  c #332B1B",
"e  c #3B2B1B",
"r  c #3C2B14",
"t  c #3A3419",
"y  c #2C331D",
"u  c #2A1824",
"i  c #1C2321",
"p  c #2A2823",
"a  c #362924",
"s  c #3A3624",
"d  c #2B3623",
"f  c #46340E",
"g  c #432C14",
"h  c #472918",
"j  c #44331C",
"k  c #4B3B1D",
"l  c #473717",
"z  c #553B19",
"x  c #4B2C0E",
"c  c #442B24",
"v  c #4C3D23",
"b  c #473825",
"n  c #543B25",
"m  c #562D26",
"M  c #562714",
"N  c #4D421D",
"B  c #54431D",
"V  c #5A451C",
"C  c #5A481A",
"Z  c #575417",
"A  c #634B1C",
"S  c #654819",
"D  c #69531C",
"F  c #755B1B",
"G  c #6C4A0E",
"H  c #7A621D",
"J  c #4C4323",
"K  c #4D4A2B",
"L  c #484328",
"P  c #534423",
"I  c #5B4B23",
"U  c #534C2B",
"Y  c #5A4D2B",
"T  c #564726",
"R  c #5C522C",
"E  c #57512A",
"W  c #534D33",
"Q  c #4D5233",
"!  c #555233",
"~  c #5C5433",
"^  c #5C5A34",
"/  c #5A593A",
"(  c #4C4932",
")  c #624E23",
"_  c #654B26",
"`  c #635325",
"'  c #6B5423",
"]  c #65592C",
"[  c #6B5B2C",
"{  c #67562A",
"}  c #755B27",
"|  c #635A34",
" . c #645D3A",
".. c #685933",
"X. c #725632",
"o. c #75632D",
"O. c #7D6B2B",
"+. c #7B6427",
"@. c #6A6439",
"#. c #736433",
"$. c #7C6B34",
"%. c #72633B",
"&. c #7A6C3B",
"*. c #776938",
"=. c #7D733A",
"-. c #70642B",
";. c #5D6136",
":. c #696745",
">. c #756D44",
",. c #7C7443",
"<. c #7D7B4C",
"1. c #787549",
"2. c #7A7954",
"3. c #6E7049",
"4. c #635E45",
"5. c #35412D",
"6. c #85671A",
"7. c #836C2B",
"8. c #856927",
"9. c #85712D",
"0. c #846D33",
"q. c #876D37",
"w. c #847333",
"e. c #8B7434",
"r. c #857A3C",
"t. c #8B7B3C",
"y. c #87763B",
"u. c #967B39",
"i. c #96752F",
"p. c #875E1B",
"a. c #837B45",
"s. c #8B7C43",
"d. c #837C4B",
"f. c #877845",
"g. c #957D44",
"h. c #837C54",
"j. c #806F41",
"k. c #778E6B",
"l. c #738657",
"z. c #94843C",
"x. c #8F8134",
"c. c #AA8939",
"v. c #8D8144",
"b. c #8C834C",
"n. c #87844D",
"m. c #988848",
"M. c #8B8453",
"N. c #8D8A52",
"B. c #878659",
"V. c #958B53",
"C. c #9B8D52",
"Z. c #938C5B",
"A. c #9C8D59",
"S. c #938553",
"D. c #94935C",
"F. c #9B935C",
"G. c #9A9558",
"H. c #909258",
"J. c #A38B4B",
"K. c #A2945B",
"L. c #A49A5D",
"P. c #A79758",
"I. c #AA924E",
"U. c #8B8A63",
"Y. c #938E63",
"T. c #8A9468",
"R. c #949363",
"E. c #9B9562",
"W. c #9D9B64",
"Q. c #9D9B6B",
"!. c #959969",
"~. c #929B73",
"^. c #A39C63",
"/. c #A49C6C",
"(. c #A89B66",
"). c #A99D6C",
"_. c #9CA26B",
"`. c #8AA37B",
"'. c #9BA877",
"]. c #9BB27A",
"[. c #ABA365",
"{. c #A5A26B",
"}. c #ABA46B",
"|. c #A9A76A",
" X c #B2A76A",
".X c #ACAB73",
"XX c #A6A877",
"oX c #B3AC73",
"OX c #B4AB78",
"+X c #A8B17A",
"@X c #B4B37B",
"#X c #BBB57B",
"$X c #B6B477",
"%X c #A6A15E",
"&X c #C5B97C",
"*X c #C2AF78",
"=X c #CAC17E",
"-X c #7C9C85",
";X c #7DA287",
":X c #8AAD8C",
">X c #86A988",
",X c #98B48A",
"<X c #8AAD93",
"1X c #85AC92",
"2X c #8EB091",
"3X c #9AB992",
"4X c #92AF88",
"5X c #A9AD83",
"6X c #A7B787",
"7X c #B7BA85",
"8X c #A4BE94",
"9X c #B3B88D",
"0X c #819F87",
"qX c #C2BC83",
"wX c #C3BD8A",
"eX c #C0BF91",
"rX c #BCC48C",
"tX c #B7C38A",
"yX c #ADC99D",
"uX c #A8C398",
"iX c #B4CB9B",
"pX c #B7C794",
"aX c #B8CD9A",
"sX c #9FC4A3",
"dX c #ABCBA3",
"fX c #A6CCAB",
"gX c #ABCDAB",
"hX c #A4C6A4",
"jX c #B3CDA2",
"kX c #ACD1AD",
"lX c #ABD2A6",
"zX c #B2D3AD",
"xX c #BBD4A4",
"cX c #ACD2B2",
"vX c #A8D1B2",
"bX c #B2D4B3",
"nX c #A6CFB0",
"mX c #C5C38B",
"MX c #C9C588",
"NX c #CDCC94",
"BX c #C5CB96",
"VX c #CCD49C",
"CX c #CAD499",
"ZX c #D4D89A",
"AX c #D3CA8C",
"SX c #DBE19E",
"DX c #CCDCA5",
"FX c #C7DAA7",
"GX c #D3DDA4",
"HX c #D4DAA8",
"JX c #C7DEB0",
"KX c #DBE3A5",
"LX c #D5E3AB",
"PX c #D8E4A9",
"IX c #D4E3AE",
"UX c #E1E7B3",
/* pixels */
"hXsXsXhXhXhXsXsXhXhXgXgXdXjXuXuX,XuX].!.H.=.-.-.] ` P N n v P J k P P P P P N I I [ [ [ [ *.,.j.s.f.y.,.,.<.<.<.<.l.l.l.l.k.k.k.",
"hXsXsXhXfXfXhXhXhXdXgXdXdXdXuX8X6X9X].D.H.=.-.-.Z C N P ( P v v T T B P I Y Y R ` { { { o.$.,.a.d.a.,.a.n.n.l.a.B.B.l.k.k.k.k.k.",
"sXsXfXfXfXfXfXcXdXyXyXdXdXdXyXuX8X8X]._.!.x.=.-.` P v n J v v v v v z P ] R Y R ^ ] ..#.%.*.,.1.a.l.a.a.a.,.v.n.U.T.k.`.;X-X-X;X",
"hXsXfXfXnXvXvXvXgXdXhXyXdXjXzXlXyXuX,X_.H.l.=.@.[ ] I J j v v J k v k J J J N P I R #.*.*.*.*.<.<.<.n.a.a.r.l.l.U.T.`.>X;X-X-X-X",
"hXfXnXnXnXvXcXvXjXgXdXhXuXdXzXkXlXuX3X_.H.N.n.#.] ` E C N N J N J K K T U U E ^ ^ ] &.,.,.,.,.h.B.B.B.B.n.l.N.T.T.~.>X>X;X-X-X;X",
"fXkXkXnXvXkXcXcXlXgXgXdXdXdXjXgXlXuXuX'.!.H.N.*.` ` ` E I P N J N J K K I E ] @.&.>.,.,.j.a.a.n.T.T.!.!.B.T.k.`.~.>X:X>X;X>X1X;X",
"fXfXfXnXnXkXcXkXdXdXyXyXpXuXpXyX6X+X].]._.H.M.=.] ] E ` I J N T J J J B B I ] ..%.%.&.j.s.d.s.b.D.T.~.~.`.`.`.`.4X>X<X<X>X1X1X;X",
"gXlXkXnXkXcXzXbXdXuX6X6X5X5X'.+X_.T._.`._.B.v.=.[ ] E I T K U J J T P T I I { ..%.,.j.s.b.s.a.b.Z.H.T.`.`.>X2X:X>X:X<X<X<X<X1X;X",
"vXcXcXbXcXbXzXzXdXuX+X_.{.{.D.D.N.n.M.n.N.l.=.=.o.[ R Z C A C Y C ' } #.' ` [ X.#.>.B.U.B.<.a.S.H.R.T.~.`.:X4X:X:X2X<X<X<X1X1X;X",
"cXcXcXcXcXkXzXzXyXuX+X{._.G.N.n.v.=.,.=.,.w.o.-.o.' I I ` A ) ` [ o.$.} [ { &.>.*.d.h.h.h.M.n.N.R._.~.4X4X4X4X4X:X:X<X<X1X1X1X>X",
"kXkXbXbXbXbXzXzXuX8X+X_.F.G.V.r.$.=.=.#.=.$.-.o.' C B I C A ` D [ $.o.o.O.y.f.f.S.F.E.E.Z.M.Z.D.D.!.`.4X3X4X,X,X:X:X2X2X2X2X:X>X",
"zXzXbXbXbXbXbXkXyXuX+XW.G.Z.V.=.#.*.*.#.#.#.-.[ ' C z I I A D D } O.O.q.v.v.r.r.N.E.W.^.D.M.D.W.!.'.].,X3X,X,X,X4X4X2X2X2X2X:X1X",
"kXkXzXbXkXzXzXkXlXuX+X+XQ.F.F.=.@.@.-.[ ..] ` A ` C B V ' D F H 0.7.9.e.m.x.l.x.M.G.W.G.G._._.].].`.,X5X].,X,X,X,X4X,X3X2X3X2X2X",
"zXxXzXxXiXyXyXiXjXuX6X+X{.Z.s.*.-.[ { { ' ` V V B z B V ' } } 8.7.9.t.m.v.r.x.n.n.D.G.G.H.G._.].].].+X].].].,X,X3X3X3X3X3X3X3X3X",
"yXiXaXiXtXuXtXuXpXtX+X.X^.S.=.o.o.D ` ' A A V V z z V ` +.7.i.z.8.8.u.x.x.=.x.x.v.N.D.D.H.H._.'.+X'.+X5X].8X3X3X8X3X3X3X3X3X3X2X",
"iXiXtX6X].|.+X+X+X+X|.G.V.s.$.-.' S S S A D S z V I V D F 8.i.i.9.8.9.9.r.=.=.,.v.N.D.H.H._.W._.XX'.+X,X6X,X6XuXuX3X8X8XuX8X8X3X",
"iX6X@X+X|.%X[.[.|..X|.L.v.r.O.' _ A S _ V S S S A V D } D p.} 8.8.7.9.O.=.x.=.r.=.v.V.H.G.G._.|.XX.X5X6X8X8XuX8X8X8X8XuXuXuXuX].",
"tXtX$X|.%XG.N.G.%X|.+X_.N.r.o.[ ' A S S S S S S S D F } } } F 6.H 7.w.O.r.v.r.=.x.b.H.D._._.G.{.+X+X6XuXaXaXaXyXiXyXyXaXyXuX8XtX",
"#XoX|. X%XG.G.%X%X|..XW.G.s.#.' ' _ S S S S S A G D } p.8.8.F 6.O.9.9.9.r.t.r.r.n.b.V.G.W._.{..X+X+XtXpXxXxXxXaXaXaXlXaXaXaXiXuX",
"rX$X|.%X%XJ.G.G.G.%X{.F.D.s.o.' D A S G D ' { ' } } } F 8.8.} H O.O.O.O.r.r.=.x.v.b.V.G.G.L.|.oX7XtXpXaXxXxXxXxXaXaXxXxXFXFXxXaX",
"rXrX@XL.%XJ.z.J.m.V.C.b.v.y.+.} S S S D D ` { o.0.0.7.8.8.8.+.H +.O.+.O.w.r.r.m.m.C.G.G.%X|..X+X6XtXaXVXFXFXJXFXFXxXxXJXJXJXxXFX",
"tXtX@XL.I.m.x.x.t.g.m.t.e.9.+.[ ' ' _ { X.} o.0.$.y.e.9.8.8.8.H H O.O.O.w.r.z.V.G.G.%X|.|.$X$X@XtXpXaXDXJXJXJXDXDXJXFXJXJXJXDXxX",
"@X+X[.J.m.m.t.$.w.t.t.9.w.$.` E ' D ` ..%.f.g.e.o.0.u.e.8.} +.F H O.O.w.y.r.m.%X|.{.[.|.+X$XrXrXtXpXaXDXLXLXDXDXDXDXDXDXDXDXGXCX",
"oXL.m.u.J.u.w.w.w.t.t.O.+.[ T ( ' } %. .%.f.m.u.%.$.y.e.7.8.8.F H 7.9.x.m.m.G.oX7X@X.X+X@XtXtXaXmXrXBXDXLXDXLXDXPXPXKXDXSXZXSXSX",
"[.D.b.t.m.s.e.u.q.t.s.} 8...L ~ X.7.z.>.4.@.v.u.] $.0.q.0.8.8.7.9.w.y.z.m.V.{.@XtXtX7XqX7XtXrXrXrXaXDXLXPXKXGXGXSXGXKXKXSXSXSXSX",
"b.d.d.s.j.#.#.t.q.t.u.0.#.Y U ~ ~ 0.g.3.4.| w.e.] #.e.$.$.O.O.w.w.t.z.z.m.C.(.}.@X@XtXrXrXrXrXaXCXDXLXLXPXPXGXGXPXKXPXPXSXSXSXSX",
"d.j.f.j.>.~ | q.i.g.q.0...U Y U _ f.A.2.4.%.q.0...' 7...| &.t.y.z.v.s.t.m.J.L.%X X#XmXrXBXCXaXCXDXDXLXLXLXPXDXDXKXPXPXSXSXZXSXSX",
"h.2.2.,.%./ 4.&.u.f.y.q.| W ~ :.1.h.h.:. .| %.0.( [ =.| :.&.e.y.n.n.V.m.m.C.G.L.[.oX$X@XtXCXCXCXDXGXLXLXPXPXLXLXPXPXKXSXCXCXCXCX",
"1.2.h.1.%./  .*.j.X.R U J L Q ] %.| Q W / ^ ....( | *.^ ;.@.e.z.d.>.b.V.C.K.C.L.L.[.$X7XrXBXDXGXPXLXLXLXGXPXDXFXPXKXKXZXCXCXrX$X",
"2.2.2.1.@./ | [ ~  .! ! U L ! ] ^ | K L Q ~ R K Q E ^ ^ / @.s.m.2.>.d.V.C.F.G.F.^. X7XNXBXCXHXPXPXLXLXLXCXDXCXCXPXDXSXZXCXZXaX+X",
"M.<.<.3.4./ / ~ W / ( U W ( U I U Y T L K R R L Q ! ! ~ @.:.:.1.3.3.<.N.V.b.F.|.@X7XmXNXCXVXHXPXHXLXLXLXCXSXCXaXKXCXSXCXCXZXMX+X",
"S.N.N.1.W ( Q W ~ ~ ! I P ( T ~ | Y K U K U T U Q ^ 4. .^ :.4.:.3.>.@.N.W.Z.{.@XmXGXGXVXDXBXDXVXDXLXDXKXCXCXrXtXCXrXMXtXMXBXtX@X",
"U.U.B.3.E ! U ~ X.%.] K U U T Y ^ R N L K ! ^ U U _  .3.4./ ^ :.>.3.2.h.XX^.$XqXNXVXGXHXVXVXCXMXVXVXHXFX9X9X9X9X9X5X5X9X5X5X9X9X",
"3.>.h.3.^ ! ! ~ ]  .U K ! U U | R ~ ! L v R ^ E E >.%.3./ ~  .@.3.1.2.Y.7XoX7XwXMXNXNXNXNXNXAXAXNXVXVXBX9X9X9X9X5X6X5X5X5X5X9X9X",
"1.1.d.@.U Q ! R ! ! K ! ! W Y  .| R U W L K Y R | &.>.@./ %.%.3.2.2.k.!.7X#X#X7XMXMXMXAXAXMXMXMXwXeXmXeX9X5XXXXX~.XX5X'.5X5X5X,X",
"3.<.<.>.K U W Y ! ~ ! W U L J ~ @.E U W E R R R / %...@.;.:.3.@.1.l.B.Q.7X#XqXqXqXMXMXMXMXMXAX=XqXqXwXeX7XXX/.W.~.U.T.Q.XX5X5X5X",
">.>.,.>.Y K E ~ W ! ! ! W J U  . .^ U R Y R @.@.X.%.j.a.h.B.j.*.<.Z.B.{.MXqX&XqXmXqXMX&X&X=XAX&X&X*X&XqX@XoX}.W.E.D.E.^.XXXX).XX",
"n.n.n.,.@.:.2.2.:.^ ^ / / | | :.@. .@.1.>.>.d.S.S.C.L.G.A./.E.(.E.{.^.oXqXqXmXAXmXmXMXAXAXAXAX&X#X&X#X*X$XoX(.K.(.^.G.A.(.E.K.).",
"M.Z.Z.M.B.U.!.Z.d.:.:.>.>.>.>.>.:.1.h.U.U.Z.^.(.P.[.(.^./.).#X#X.XoX X$X7XwXNXNXmXmXAXAXAXSXAXwX#X#X#X7XoX).^.C.K.A.S.S.(.K.A.K.",
"Z.Z.V./.Q.Q./.Q.Y.B.Z.B.1.h.h.h.h.h.Q.{.).}.}.OXOXOX}.XX5XXX@X@X#XoX.XqXmXVXHXVXmXNXMXAXAXAXAXNXqX7XwXmXOX(.F.S.S.A.K.(.P.K.(.K.",
"E.E.A.).XXQ././.).Q.Q.Y.h.h.Y.J.A.U.Q. XOXOX XwX*X#XOXOX7X X5X5X+X X X#XrXAXHXmXNXBXmX7XwXwXAXAXBXBXBXBX9XOX^.F.^./.oX#X X X}.K.",
"^.K.E./.Y.Z.!.)././.Q.Q.E.Y.U.R.R.Y.{.(.5XOX*XqX@XHXHX7X9X7X@X X X(. X}.$X|.OX'.5XVXHXNX7XZ.A.7XeXVXUXUXGXOX}. X).&XwXqXMX*X X[.",
"Q.A.A.Y.Z.Y.R.^./.Q././.E.Y.Y.B.Q.). X{.XX*X*X$XoXBXmX5X). X(.P.[. X XOX XI.A.m.(.qXNXOXZ.s.d.h.h.qXUXZX7X).(.K.G.S.$X7X(.S.K.C.",
"U.M.M.Z.h.U.U.Z.Q.Q.Y.Y.Y.S.Z.C.P.).Y.E.F.(.P.P.XXXX).[.Z.F.E.(.P.[.[. XL.=.L.I.L.(.(.(.G.K.A.A.g.K..X).A.A.A.C.J.s.f.$.#.o.} } ",
"1.h.h.B.Y.Z.B.Y.Q.R.~.U.M.b.>.2.V.M.j.f.s.S.Z.A.E.V.t.j.V.b.m.J.I.P.I.s.f.O M.P.P.I.P.P.J.I.J.C.(.A.J.A.C.P.I.I.(.D.n.&.] ..@.a.",
"U  .$.s.M.M.Z.!.E.Q.'.5XR.l.4.d 4.1.&.' q.j.n.B.b.*.B ` t.v.7.^ m.J.9.x .   =.J.c.u.m.J.J.u.t.g.g.J.m.g.g.m.m.J.I.v.=.a.*.&.*.&.",
"& 3 Y %.|  .:.>...h.~.Q.Y.Z./ + @ ! T = >.w.O.$.=.t + #.O.) ; + *.w.$._   k @.D D q.%.#.g.J.u.g.g.g.m.J.g.m.g.g.g.w.=.t.y.b.d.[ ",
"e c h 3 l t 9 W , W E.h.#.f.E 6 p t :   b u.z.u.c.i.O.X.G f l o _ G , V N 4 3 c T n 0 f } u.u.i.i.e.y.q.G } 0.0.9.9.9.$.O.$.&.Z ",
") ` j , 9 k t ( p y :.@.k K b 8 e v $ # M p.x.8.i.I.c.i.Z   w t x S F 8 T . - o i 7 5.d v +.[ _ _ ' A F S x q G S ' F } X.A 8.%.",
"0 r N j = 2 k Y 8.-.o.8     q 3 8 t     M F 7.M t F i.i.Z 9 @ H z % 6.G . ; 9 t # > + l ..Z g ( n T v v g z z l z z I _ z 8 H O.",
"z k q a r 4 , s } 7.8.X.s . ; 4 = $ , = S p.G x     z F F C o k l   h i.S n z 1 + ^ i t X.> o p T K K T h B e 4 n h z ' I $ G D ",
"b e g s t t s a _ ` ' n d 6 6 3 , M S F p.p.G , 3   3 G >   # O < X * h n p.x o i 6 o w ` w o s ~ ..{ v q B l m k , T n h 0 c ! ",
"6 6 p a a K b   ` L q c + + 9 b s h 7 = M G x u 2   4 x :     X 8 * 7 f z D _ ` z O N 9 o.c o X.7.X...v u P n n T _ e j b > n 7 ",
"p a y p # L v X b s * = d 2 v r 2 q = = h 3 c h O . . @ 2 V { l k : 2 F 3 3 D 6.A p C i ) a + P X.b d w , v b { w b 9 a a - b 0 ",
"a p - @ ; 6 i o t s 7 2 & & g n 9 ; : * M 8 h x - & 8 : < F l 7 & l a G . B S h l 5 t L c : a d n k j b b k , b . a 9 : w ; j 0 ",
"s 6 t b - : Y N 4 9 h b q .   o > . : ; > - < h m 0 , x * x 3 5 @ j x x @ f C S S l _ F X.b I L W v P T b a u f @ : 4 > a O 7 : ",
"a b v U 9 q Y D v 2 w 5 , : 0 q 6 0 % 9 6 X : q M M < & 8 , l . A Z B 3 g g g r x l n n I z ..P b T g v a - $ 0 O a 0 , > - - 9 ",
"6 t y @ > e b e s 9 9 9 2 4 w X 2 4 : a p # o O 8 x 8 < < * h c S V z x g l 3 g h j r k g 8 8 8 B ' ` v s h l ) ) n k b 0 > - u ",
"w w y 6 6 L K v t 5 s 6 X 4 0 $ 4 0 $ $ a > #   , h C g = = < f = u z x I C O b T e 2 k I B = * c l Y n j M f B X.B h Y j k g 8 ",
"d a > i + # + p a 6 @ X X . 0 : . X $ $ * , q 5 - < > & = $ & h = = = * . 9 r % t 4 . - h k b > 3 k k f z { 7 - 8 h r v l b a , ",
"v @ u @ # 6 i   # p a % % . . ; , X ; ; < , , * X ; 9 % , h B & $ : 7 a . b 5.@ : > O . > w X # , < ; w 2 g q p 3 w > > > p > 6 ",
"e w w @ & T c . + p p X . - - . . X X . & = * % < O O   j f : 0 9 & q ; X @   X = q ; @ @ -   p : : 3 & : 7 r 9 4 ; @ ; 5 6 @ @ ",
"y s 6 w p d w c : % @ ; . - * & : : 2 2 3 b k t e 9 $ X & * t l L : : < - X % * 8 : $ - - - 0 O o 7 j , 8 q w 9 s w w w 6 1 @ i ",
"b w s t v t t 9 w 4 4 $ : ; * 9 3 8 8 0 e e q q q 3 e r 5 p t w 9 0 4 : : , a 2 , 2 l t j q 3 g 7 7 g 8 : 5 9 0 0 8 2 w > u @ ; "
};
