/* XPM */
static char *_181da9d5171494fa538134ce19fd446JR3hTyb8VjkTMW9a[] = {
/* columns rows colors chars-per-pixel */
"64 64 256 2 ",
"   c #166479",
".  c #317278",
"X  c #365A56",
"o  c #46747A",
"O  c #79936F",
"+  c #9B994C",
"@  c #A29D50",
"#  c #98A25D",
"$  c #A8A757",
"%  c #A7A650",
"&  c #909B6E",
"*  c #99A467",
"=  c #98A77A",
"-  c #90A778",
";  c #A9AB68",
":  c #AAB269",
">  c #A4AA7A",
",  c #A7B677",
"<  c #B5BB76",
"1  c #BAB669",
"2  c #C1BD6A",
"3  c #BEC06D",
"4  c #1C6A86",
"5  c #186B9D",
"6  c #0E6883",
"7  c #287599",
"8  c #2F7590",
"9  c #1C6CA3",
"0  c #1769A2",
"q  c #1D74A5",
"w  c #2A7DAD",
"e  c #2676A8",
"r  c #2979B3",
"t  c #2D74A8",
"y  c #0E5C8A",
"u  c #4C7D86",
"i  c #3A8698",
"p  c #3A838B",
"a  c #1982A7",
"s  c #2B82AD",
"d  c #2A88A9",
"f  c #378AA8",
"g  c #3994AC",
"h  c #2D83B1",
"j  c #2D88B6",
"k  c #338DB4",
"l  c #338DBA",
"z  c #3486B7",
"x  c #3592B5",
"c  c #3B93B5",
"v  c #3593BB",
"b  c #3A95BB",
"n  c #3C9ABD",
"m  c #339BBD",
"M  c #2E97B5",
"N  c #38A2BB",
"B  c #598896",
"V  c #518B92",
"C  c #658B98",
"Z  c #719394",
"A  c #76A89C",
"S  c #468BA7",
"D  c #4895A8",
"F  c #5899A9",
"G  c #439CBD",
"H  c #4898B8",
"J  c #579BB5",
"K  c #4F8BAC",
"L  c #6798A6",
"P  c #7898A6",
"I  c #6A9EB1",
"U  c #4AA4BC",
"Y  c #58A6B9",
"T  c #5FA3AE",
"R  c #6AA4AA",
"E  c #76A7AA",
"W  c #7AB3AA",
"Q  c #68A8B8",
"!  c #73A8B8",
"~  c #79B4B9",
"^  c #67B1BC",
"/  c #7FC0B8",
"(  c #3A95C1",
")  c #3D9BC2",
"_  c #369AC4",
"`  c #3384C3",
"'  c #3CA3C4",
"]  c #38A6C8",
"[  c #3DABD5",
"{  c #419DC3",
"}  c #499ACA",
"|  c #4598C5",
" . c #418FC0",
".. c #44A2C4",
"X. c #4AA4C5",
"o. c #45A3C9",
"O. c #4AA6CA",
"+. c #4DAACC",
"@. c #49ABC5",
"#. c #53ABC5",
"$. c #53ACCC",
"%. c #57A9C6",
"&. c #5AB5CA",
"*. c #4DABD2",
"=. c #45ACD5",
"-. c #53ACD1",
";. c #53AAD7",
":. c #5BB4D3",
">. c #57B6D4",
",. c #4BB3CF",
"<. c #65ACC4",
"1. c #77ADC2",
"2. c #63B5CC",
"3. c #6AB4CD",
"4. c #64BBCD",
"5. c #6BBBCC",
"6. c #67B5C4",
"7. c #77B8C8",
"8. c #64BCD3",
"9. c #6CBCD3",
"0. c #6CBCDB",
"q. c #65B8D5",
"w. c #73BDD4",
"e. c #77BAD6",
"r. c #6AC1CC",
"t. c #78C3CA",
"y. c #6BC2D3",
"u. c #6BC5D7",
"i. c #73C2D5",
"p. c #77C6D8",
"a. c #7AD0DB",
"s. c #71C5E1",
"d. c #5AC3D8",
"f. c #84929A",
"g. c #89A888",
"h. c #95A883",
"j. c #9AB489",
"k. c #88AA99",
"l. c #8DB39A",
"z. c #97B597",
"x. c #9CAF99",
"c. c #A5AC82",
"v. c #A6B589",
"b. c #A6B995",
"n. c #B3BB88",
"m. c #859BA7",
"M. c #889DAD",
"N. c #87AAA7",
"B. c #89B8A8",
"V. c #95BBA7",
"C. c #88AAB8",
"Z. c #87B8B8",
"A. c #97B9BA",
"S. c #94ACB3",
"D. c #A4BBBB",
"F. c #AABBAB",
"G. c #AAC498",
"H. c #B6C496",
"J. c #99C2AA",
"K. c #89C4BC",
"L. c #99C5BB",
"P. c #A7C5AA",
"I. c #BAC8AC",
"U. c #A6C7B8",
"Y. c #B6CAB8",
"T. c #B8D5BB",
"R. c #AED1B7",
"E. c #C8D7B9",
"W. c #D2D2B5",
"Q. c #EDDBB5",
"!. c #CBE2BA",
"~. c #D6E4B9",
"^. c #F9E8BB",
"/. c #E8E9BD",
"(. c #C8CE86",
"). c #87B9C7",
"_. c #97BAC6",
"`. c #90BAD4",
"'. c #A8BDC6",
"]. c #AFB9CC",
"[. c #C5BBC6",
"{. c #8AC6C9",
"}. c #9CC5CA",
"|. c #93CBCB",
" X c #99C7C6",
".X c #99D3CB",
"XX c #88C7D6",
"oX c #97CAD6",
"OX c #89D1DA",
"+X c #9CD3D4",
"@X c #96D3D8",
"#X c #A4CBCB",
"$X c #A8C8C8",
"%X c #B8CCC9",
"&X c #A2D3CB",
"*X c #A9D5C8",
"=X c #B7D7C7",
"-X c #A7CCD6",
";X c #B4CBD4",
":X c #A3D3D3",
">X c #ACD4D3",
",X c #A5DBD3",
"<X c #ABDCD3",
"1X c #A8D9DB",
"2X c #B6D8D6",
"3X c #BBE2C9",
"4X c #B9E1DD",
"5X c #9AD5E5",
"6X c #8FCBE2",
"7X c #A9D9E8",
"8X c #B5DAE6",
"9X c #AED7ED",
"0X c #B6E5E6",
"qX c #B8E8F8",
"wX c #AEE9F2",
"eX c #9DE1F4",
"rX c #C8D9C4",
"tX c #D6DCC7",
"yX c #C9C6D6",
"uX c #C6D9D7",
"iX c #CBCFD1",
"pX c #CCE2CB",
"aX c #EDE7C5",
"sX c #CCD8E6",
"dX c #C8E5E8",
"fX c #D7E8E9",
"gX c #C8E7F6",
"hX c #D9ECF8",
"jX c #CDFDFF",
"kX c #C8F6FC",
"lX c #DCF4FD",
"zX c #D4FEFF",
"xX c #DCFEFF",
"cX c #D7F7F9",
"vX c #CFF2EC",
"bX c #E9EAEC",
"nX c #F4EBE9",
"mX c #F9F8EC",
"MX c #E8EBF6",
"NX c #FAECF9",
"BX c #ECF2F4",
"VX c #E4F4FD",
"CX c #ECF5FD",
"ZX c #E4FEFE",
"AX c #ECFEFE",
"SX c #E7FBF3",
"DX c #FDF4F5",
"FX c #F3FBF5",
"GX c #FDFCF4",
"HX c #F4F5FD",
"JX c #FDF5FC",
"KX c #F3FDFE",
"LX c #FDFDFD",
"PX c #F3F4F3",
"IX c #E3F5EB",
"UX c #E6DDC0",
/* pixels */
"..o.+.o.n n ..O.+.+.+.*.*.+.+.+.+.#.Y Y 2.&.=.[ =.=.@.@.Y &.@.@.,.@.X.J X.X.N N m _ v (  .| ) ' o.o.O.o.o.) ) ( l ( _ ( j j j h ",
"o.O.+.o.) n ' O.o.o.+.+.+.+.@.o.@.@.#.&.&.>.*.[ ] =.&.2.&.Y ,.d.:.:.2.X.H H N ' M m (  . .| ) ) ' { o.o.o.) ) ) ( ( _ ` l l j s ",
"+.+.+.o.U ) ..o.o.o.o.o.O.o.o.o.' @.@.Y %.&.=.=.;.-.Y J I F D J Y J J J Y U @.m _ _ )  .} | ( ) ) ) { o.{ o.} ) ) ) ( ( _ _ j j ",
"+.+.*.+.o.) ....o...o.o.....o.' ] ' U @.Y $.,.=.( H J ! -XqXqXqXeX@X1.J J f @.] _ _ } } }  .) m v ) ) o.=.o.) ) ) _ ( ( ( M j j ",
"*.*.$.+.@.o.......U ........' ' ] ] ' @.X.%.O.;.} 6XqXhXVXAXAXZXZXZXzX9XXXf U ' ] _ ) } } ) ' m m n o.o.O.o.o.) ( v v ( l j _ _ ",
",.+.+.,.+.@.o.................o.] [ @.@.#.X.;.-.t XXxXAXKXLXLXLXVXKXAXZXqXY U M _ _ } } } ) ' ] ) ..@.*.*.=.o.) l l ( v j l _ ( ",
"-.-.*.-.+.+.+.X.o.o.........o.o.[ [ ,.#.X.%.-.;.S eXAXLXPXDXLXHXLXKXAXlXqXD X.N ) ) | } | | ' ' o.O.*.*.-.+.o.) v ) ( v ( ( ( ( ",
"$.+.+.-.-.*.+.o.+.X...X.o.o.+.o.=.=.*.%.%.#.%.:.t 7XAXKXmXGXLXLXmXGXLXLXkXV H n  .H H H H { o.] o.,.-.>.-.+.o.) ) ) ( v ( _ ) l ",
"{ X.O.+.$.+.X.X.X...X.X.{ G X.n } } ;.J <.J #.$.S 7XAXFXGXGXGXmXmXGXDXKXlXK Y U D H K %.K H ;.] N ..O.$.>.*.o.n o.) ( v b ( ) ) ",
"H } X.+.$.+.+.X.X.X.X.X.G ..X.} ;.<.<.J J K J H S wXAXFXmXmXmXmXmXmXJXLXlXL J D f S B J J H =.) ....o.@.+.O.{ n ) ) ) b ) ) _ } ",
"G { X.+.+.$.#.O.O.X.X.G n X.$.X.w I L ! ).1.p.Q V qXZXSXmXmXFXmXmXnXLXLXlXL Q 6.).1.I u K S f ......' { ..) N n n b m v _ ) o.o.",
"X.X.X.O.%.+.+.X.X.+.+.G G X.#.H e.9X9XkXcXzXzX6X8 jXAXSXFXmXGXFXGXGXLXKXVXI R kXjXzXVXgXqX6Xg O.' U G ....n n b v v b n ) ) ) { ",
"#.#.$.$.%.+.X.X.X.%.$.X.G U G S `.ZXHXKXZXZXxX6XV jXAXFXGXGXLXFXmXGXLXVXAXP B xXxXZXAXAXZXwXi n ) ........n b x x v n ) ) ) ) { ",
"-.:.:.$.$.$.#.O.#.$.$.$.{ X.{ S _.CXCXCXAXAXkX! B zXAXKXLXGXLXKXbXLXCXAXAX! o <XZXZXBXMXZX9Xf #.G ....@.N b c x v n n n ) ) b v ",
":.:.:.:.-.-.$.$.>.$.-.$.X.X.X.J S.MXBXFXLXAX-XB L dXAXFXLXGXJXLXKXLXKXKXVX! u N.AXSXGXHXHX-X8 c U ....n x g x x n ) ) ) ) n v k ",
"q.:.:.:.q.:.:.:.:.:.:.:.%.O.%.Q P fXPXFXKXlX_.P B -XlXBXLXLXHXHXLXCXKXAX-XC B Z SXBXLXDXVX`.8 X.....N x M d k v n ....{ n x k j ",
">.0.0.0.d.0.:.q.>.&.>.:.&.%.q.I S.MXSXAXZX2XC u V o N.SXHXAXAXKXBXLXKXS.o V V . ;XLXJXNXLX8Xi ,.G ) v n x k x ) { { ) { ..G c k ",
":.d.0.0.0.;.q.:.&.&.&.&.&.2.<.I 2XAXSXSXZXgXA.'.-XS.$XVXKXAXLXFXbXMXHX2XC.K.K.Z.;XHXJXNXLXqXF D n m v v k M m { b b b c c n c k ",
"q.0.0.0.q.q.q.q.u.>.>.Y 2.q.%.! lXHXBXCXKXAXhXAXKXVXVXLXKXLXLXGXJXJXLXKXSXcXxXZXCXLXNXNXHXlX|.D ..) v v k j k b x x k k l v n c ",
"q.0.0.0.0.q.q.q.u.>.y.Y 2.3.J `.VXNXbXHXLXLXKXLXLXLXLXLXLXDXLXGXGXDXnXLXKXSXAXAXFXGXDXJXHXAX1X8 #._ v l x k v x k k k x H H c k ",
"q.q.0.0.e.e.q.q.8.&.8.&.3.3.<.qXCXnXnXHXHXHXHXHXHXHXLXLXJXJXJXLXGXGXLXLXLXFXAXSXSXGXLXLXHXAXzXR #.n j x n ) b b k k k k k l k s ",
"2.9.w.w.0.3.w.9.r.8.8.&.3.<.<.wXAXBXMXMXCXHXKXHXLXLXJXJXLXLXGXGXGXLXLXDXHXKXKXKXKXFXJXPXHXAXjX7.X.) v n { { b l g d w d w s s s ",
"2.8.0.w.w.w.w.9.p.a.5.&.3.^ <.`.AXSXBXlXAXAXKXZXAXLXLXLXLXLXLXLXKXKXLXHXLXLXVXAXZXZXAXAXAXxX6XK } ) v { { ( v k h s w e w w w w ",
"&.2.w.w.w.w.i.i.u.a.6.6.5.<.Q I E m.k.k.N.f.f.C %XhXKXKXLXLXLXKXAXZXKXKXNXsXZ Z P Z m.C M.I B S D v b ) ) b l b h s w s s h s w ",
"3.2.5.w.p.XXs.p.9.y.4.Y 6.w.Q ! N.N.B.S.N.N.N.Z F.fXKXAXKXLXLXLXAXZXKXLXJX].f.m.P k.P P N.).V J H b b b l z l b k h h w w j h r ",
"2.2.3.w.p.p.p.e.9.r.4.r.r.7.7.@XZXAXAXKXAXAXKXAXAXHXAXLXLXLXFXLXAXAXLXNXLXJXHXAXAXxXAXZXlXlXqXF f { o.{ G b G l z h h w w w w w ",
"2.2.5.w.w.p.p.i.y.r.r.y.p.<.7.jXZXAXSXKXLXAXLXLXLXLXJXPXJXLXLXLXFXGXLXDXJXJXLXLXFXFXFXKXKXZXxXXXf { +.{  .{ b h h s w e r e e 9 ",
"8.2.9.9.p.p.y.y.u.y.r.4.w.%.7.jXAXHXBXKXLXKXLXLXHXLXLXJXJXLXLXGXGXGXGXGXJXDXDXFXGXGXGXGXKXcXkX@Xf b X.| b n k w e e e e e q 9 0 ",
"8.9.9.9.i.w.9.4.y.y.r.&.r.&.<.oXAXJXBXNXLXDXJXLXLXDXDXLXLXJXDXDXGXGXGXmXDXLXLXGXGXnXGXLXfXAX<Xp S c b b b z h w 9 9 9 9 q e 9 0 ",
"y.y.8.0.u.9.4.&.>.y.y.4.4.5.Y ! hXLXHXHXLXJXLXLXLXJXLXLXDXDXLXLXGXGXDXLXDXLXLXFXLXBXGXLXAXZXW p G c x c b c h w 9 9 9 9 9 q 9 0 ",
">.r.8.9.0.0.9.4.y.d.r.>.4.5.3.! '.BXLXHXHXHXLXLXLXGXLXJXBXFXLXPXFXFXLXLXHXHXKXKXHXLXMXHXKX-Xp U H n n b b l k e t 9 9 9 9 9 9 0 ",
":.:.8.q.0.i.0.8.u.&.r.u.3.9.w.e.P sXLXKXPXPXFXFXbXiXiXFXLXKXPXBXLXLXHXsX$XdXAXAXLXLXHXCXxXR D g x { G c c l s e t e 9 9 0 9 0 0 ",
":.q.3.3.3.3.u.u.y.q.s.0.e.s.s.u.1.).KXNXnXmXmXSXNXM.f.JXHXFXLXnXJXJXKXU.X vXHXLXJXJXHXVX6XJ k ' ) X.o.) ( v b c r ` z e t t 9 y ",
"#.$.<.<.%.&.r.s.u.p.e.0.3.0.s.q.s.J ;XHXDXmXIXIXHX;Xf.hXAXAXKXJXNXNXhXN.A ZXKXDXJXnXHXgXI f _ ) ;.;.' n ) } G l ` ` ` z r t 9 9 ",
">.>.3.3.3.2.r.u.u.p.e.e.e.e.s.u.0.J ].HXFXPXIXcXhXdXP ].AXAXVXAXHXKXdXC <XxXVXKXLXbXAX7XS H +.( ( O.+.N v l x n } ` j z r 9 9 7 ",
"d.&.&.5.w.i.r.4.r.y.0.`.s.e.8.r.$.1.`.HXCXSXxXcXxXZXM.`.jXzXcXVXhXlXoXC qXxXAXKXAXAXxXOXY $.o.O.O.{ c x v v M d r ` r e 9 r w 9 ",
",.Y &.y.p.p.y.y.u.a.p.XXXXi.5.4.y.7.).MXhXvXvXkXxXkX1.! 1.).oXoX{.{.^ ~ qXzXZXxXcXZXzX{.T U c $.-.X.G G ) v k k r r t t 0 0 0 0 ",
",.d.y.y.e.t.i.a.a.a.XX{.XXt.6.r.2.w.1.].'._.1X+X7X5X`.).<.Q 1.1.~ Q T t.@XwX1X#X8X:X7Xt.Y #.$.$.G J X.#.' v g g ;.r 7 t r q r j ",
"U &.&.5.7.7.t.r.r.XX).).XXt.^ w.6.7.).S.N.E Z.~ ! ! <.e.5.7.~ 7.w.Y ^ ^ T R I L B B B V T U X.H S f 8 i f d 8 4 t 8 4 4 5 q s h ",
"&.&.2.5.XX5XOXt.OX5X-X-X7X@X~ t.qXoX`.;XdXZ.Z.).-X`.).<.4.i.1.5X5X7.r.r.u.5.^ R Z.8X+X).wXr.Y 2.5XeXqX`.g f ^ eXt e.`.J 7 j ( w ",
"^ U 5.Q qXZX@XXX7.kXlXlXzXwX~ 1XxX:X$XAXdXB.Z._.zXzX~ XX5.7.1.xXqX7.5.6.6.r.t.^ Z.ZX8X_.xXOXD a.zXjXZXjX6.8 OXjX).`.lX`.4 b s t ",
"6.^ w.I gXAX0X{.Z.-XhXlX8X:XZ.oXZX>X2XKXdXL.L.#XZXxX).XXt.t.~ zXjX7.XXr.r.r.r.R C.AXsX].ZXXXi p.zXZ.%XZX^ p V xX9X].MX).6 s 7 t ",
"XXt.OX~ VXAXjXC. XZ.MXHX_..X}.#XZXuXfXKXdXU.L.2XAXAX.X.X{.{.Z.xXgX).{.t.i.r.y.~ _.CXyX].ZX-Xp OXxXN.D.KXQ D . 4XkX8XhXC.4 7 7 t ",
"OX|.@X XAXhXZXW #XC.CXLXA.:X}.;XVXfXSXKXuX*XD.dXAXKX2X X.X|.A.ZXgX_.oXXXt.t.a.{._.CXsXyXZX0Xp t.xXx.iXAXR V o  XVXgXMXM.4 d 9 7 ",
"|.|.|.|.CXsXZXA.}.S.PXKX#X|.Z.>XAXbXFXKXdX*XD.hXMXAXdX&X.X.XA.AXgXS._.).XX{.7.~ _.AXHXCXKX8X. K.jXk.F.JXR 8 L dXCXhXMXM.  a w e ",
"+X|.{.|.MXyXxX&XK.$XMXHX:X.X~ #XLXGXbXLXuX*X$XSXiXbXvX#X,X,X'.AXZX$X;X8XkXwX@X~ _.AXMXbXKX;XV {.ZXS.[.LX~   .XZX;XgXMXM.  a z r ",
"+X+X/ ,XVXiXxX<X XL.bXKX:X@X{.$XKXJXsXKXdX$X'.KXsXbXcXL.,X<X'.KXvXL.$X;XdX8X@X{.|.zX;XD.AX$XC |.lXF.yXHXQ 4 7XAXC ].MXM.6 a r r ",
"|.+XK.0XKXbXZX4X#XA.sXAX.X|.+X XKXBX%XlXsX$X$XAXBXLXAX$X&X&XD.AXvX.X2X$X;X_.}.:X XxX2X'.AX}.L .XxXS.yXLX! p oXVXI 9XCX_.5 q r r ",
"OX@X).1XdX'.lXdXA.S.gXxX|.{.oX#XAXdX>XZXuX_.sXcXuXfXKX%X#X X;XAXkX X#X<X$X2X<X&X$XxX>X$XZXoX1.-XZX$XyXxX).V #XxXE 5XxXC.7 } w t ",
"XXe.).kXcXN.dXAX_.C.0XqX{.|.{.oXZX2X XxXsXS.2XZX$X=XCX2XL.2XlXxXwX|.,X1X&X>X*XU.L.ZX>X XZXoX! oXxXkXZXxXZ.V 4XZX! 5XzXXXK  .t t ",
"w.5.7.7X7XZ.#X8X}.Z.oX7X{.{.).{.4X&XK.0X8XS.-XgX1X&XdX<X{.{.7X7X1X@X+X+X&X,X>X#XL.8X}.`.wX).~ 7.XX5X8X7X~ R ,X,XT w.5X3.H ` t S ",
"8.9.5.! )._.Z.W Z.~ 7.{.~ / ~ ~ W L.K.K.A.'..XZ.&X*XV.A.+X{.~ |.K.{.{. X.X>X&X$XL.A.L.A.).! 7.! 1.! R L R R A Z F F T F  .( z ` ",
"9.5.t./ W K.V.L.W W W W W W W W A z.J.K.F.V.V.B.V.*XJ.B.K.OXK.W Z.K.B.J.L.J.P.V.V.P.U.V.U.A B.Z.).1.R P E R Z A A D L T X.) j s ",
"t.t./ K.B.l.B.L.J.J.K.J.K.l.J.l.j.j.l.g.v.j.l.V.J.V.G.P.W K.K.W l.V.g.l.G.j.G.- H.v.G.j.z.h.j.J.Z.~ E B.J.A O P.A A W R J | j s ",
"/ K.J.W k.z.z.- j.z.l.z.G.- G.- : , v.- ; , > h.j.- , G.l.K.l.z.- , * , , * < : (.+ : : * # < c.V.V.l.k.l.z.O c.V.O J.W F Y H H ",
"K.L.J.J.j.j.j.& v.- - j.G.- j.# : ; n.> 1 1 * & = , , * z.3X- j.* * # : : % 3 $ 3 % % + 2 $ @ < P.J.z.- - z.# , J.O z.l.R ^ Y Y ",
"Z.L.V.l.z.H.j.& - G.& j.F.> > * 3 : < n.1 $ ; & = , < < I.U.b.n., , ; * $ $ 2 2 2 @ @ $ $ + @ 2 z.z.h.b.c.c.> < G.g.g.V.Z.Q Q D ",
"K.L.V.g.g.z.j.& - b.& b.b.= c.= : # = c.; ; c.h.v.= * : P.R.P.b.j., * * * * ; ; 1 # + @ @ + @ > G.F.h.c.h.> * * G.O g.l.E T F V ",
"|.{.K.k.k.V.z.l.z.F.k.P.D.h.x.b., j.z.z.> v.b.x.T.G., j.U.2XU.P.G.b.b.b.b.v.b.v.n.c.= > > ; > n.P.R.b.b.x.F.> > J.k.l.V.~ ^ ^ Y ",
"OX@XoX.X XU.L.R.L.*XV.#X=XA.U.F.R.R.R.R.I.I.Y.P.T.T.I.I.*X<X=X=XR.=XY.%XY.F.iXF.F.W.F.W.[.I.I.I.T.E.E.I.Y.E.W.I.R.A.D.L.).e.t.r.",
"6X6X5X7X,X,X<X<X.X1X.X:X>X#X>X$X*XR.,X<X=XpX3X*XU.R.!.T.R.<X<X2X=X=XT.3XiX%XrXY.Y.=XrXrXtXrXtXW.tXE.W.W.E.rXW.F.%X$XU.'.).7.7.7.",
"OXOX@X@X,X.X,X*X&X,X:X:X#X:X#X#X*X&X.X.X>X2X4X3X*X3XrXT.*X3X=X3XpXpX=XT.=XT.rXrXrXrXrXrXrXtXtXtXUX~.~.W.tXiXW.W.D.U.D.D.).).).Z.",
"OXOXOX.X.XR.R..X&X&X,X<X:X>X>X*X<X*X.X.X>X=X*X3X3XpXpXT.T.3XE.pXpX!.!.!.!.E.pXE.tX~./.~.~./././.^.Q.Q.Q.UXtXQ.Q.E.%XF.%X$X_.A.A.",
".XOX.XL..X*X*XR.<X,X0X0X<X2X2X2X<X<X.X,X4X2X*X3X3XT.rX!.3X3XrXpX!.!.!.~.~.!.~.~.~.Q.~././.aX^.^.^.Q.^.^.aXUXQ.W.tXiXW.iX;X$XD.D."
};
