/* XPM */
static char *_78edcc9a24c47dbfb608c5b552d25d5kJ0GSYcqwmi6SrQV[] = {
/* columns rows colors chars-per-pixel */
"64 64 244 2 ",
"   c None",
".  c black",
"X  c #010101",
"o  c #020202",
"O  c #040404",
"+  c gray2",
"@  c #060606",
"#  c #070707",
"$  c gray3",
"%  c #090909",
"&  c #0B0B0B",
"*  c #0C0C0C",
"=  c gray5",
"-  c #0E0E0E",
";  c gray6",
":  c #101010",
">  c #111111",
",  c gray7",
"<  c #131313",
"1  c gray8",
"2  c #151515",
"3  c #161616",
"4  c gray9",
"5  c #181818",
"6  c #191919",
"7  c gray10",
"8  c #1B1B1B",
"9  c gray11",
"0  c #1D1D1D",
"q  c #1E1E1E",
"w  c gray12",
"e  c #202020",
"r  c gray13",
"t  c #222222",
"y  c #232323",
"u  c gray14",
"i  c #252525",
"p  c gray15",
"a  c #272727",
"s  c #282828",
"d  c gray16",
"f  c #2A2A2A",
"g  c gray17",
"h  c #2C2C2C",
"j  c #2D2D2D",
"k  c gray18",
"l  c #2F2F2F",
"z  c gray19",
"x  c #313131",
"c  c #323232",
"v  c gray20",
"b  c #343434",
"n  c #353535",
"m  c gray21",
"M  c #373737",
"N  c gray22",
"B  c #393939",
"V  c #3A3A3A",
"C  c gray23",
"Z  c #3C3C3C",
"A  c gray24",
"S  c #3E3E3E",
"D  c #3F3F3F",
"F  c gray25",
"G  c #414141",
"H  c gray26",
"J  c #434343",
"K  c #444444",
"L  c gray27",
"P  c #464646",
"I  c gray28",
"U  c #484848",
"Y  c #494949",
"T  c gray29",
"R  c #4B4B4B",
"E  c #4C4C4C",
"W  c gray30",
"Q  c #4E4E4E",
"!  c gray31",
"~  c #505050",
"^  c #515151",
"/  c gray32",
"(  c #535353",
")  c gray33",
"_  c #555555",
"`  c #565656",
"'  c gray34",
"]  c #585858",
"[  c gray35",
"{  c #5A5A5A",
"}  c #5B5B5B",
"|  c gray36",
" . c #5D5D5D",
".. c gray37",
"X. c #5F5F5F",
"o. c #606060",
"O. c gray38",
"+. c #626262",
"@. c gray39",
"#. c #646464",
"$. c #656565",
"%. c gray40",
"&. c #676767",
"*. c #686868",
"=. c DimGray",
"-. c #6A6A6A",
";. c gray42",
":. c #6C6C6C",
">. c #6D6D6D",
",. c gray43",
"<. c #6F6F6F",
"1. c gray44",
"2. c #717171",
"3. c #727272",
"4. c gray45",
"5. c #747474",
"6. c gray46",
"7. c #767676",
"8. c #777777",
"9. c gray47",
"0. c #797979",
"q. c gray48",
"w. c #7B7B7B",
"e. c #7C7C7C",
"r. c gray49",
"t. c #7E7E7E",
"y. c gray50",
"u. c #808080",
"i. c #818181",
"p. c gray51",
"a. c #838383",
"s. c #848484",
"d. c gray52",
"f. c #868686",
"g. c gray53",
"h. c #888888",
"j. c #898989",
"k. c gray54",
"l. c #8B8B8B",
"z. c gray55",
"x. c #8D8D8D",
"c. c #8E8E8E",
"v. c gray56",
"b. c #909090",
"n. c gray57",
"m. c #929292",
"M. c #939393",
"N. c gray58",
"B. c #959595",
"V. c gray59",
"C. c #979797",
"Z. c #989898",
"A. c gray60",
"S. c #9A9A9A",
"D. c #9B9B9B",
"F. c gray61",
"G. c #9D9D9D",
"H. c gray62",
"J. c #9F9F9F",
"K. c #A0A0A0",
"L. c gray63",
"P. c #A2A2A2",
"I. c gray64",
"U. c #A4A4A4",
"Y. c #A5A5A5",
"T. c gray65",
"R. c #A7A7A7",
"E. c gray66",
"W. c #A9A9A9",
"Q. c #AAAAAA",
"!. c gray67",
"~. c #ACACAC",
"^. c gray68",
"/. c #AEAEAE",
"(. c #AFAFAF",
"). c gray69",
"_. c #B1B1B1",
"`. c #B2B2B2",
"'. c gray70",
"]. c #B4B4B4",
"[. c gray71",
"{. c #B6B6B6",
"}. c #B7B7B7",
"|. c gray72",
" X c #B9B9B9",
".X c gray73",
"XX c #BBBBBB",
"oX c #BCBCBC",
"OX c gray74",
"+X c gray",
"@X c gray75",
"#X c #C0C0C0",
"$X c #C1C1C1",
"%X c gray76",
"&X c #C3C3C3",
"*X c gray77",
"=X c #C5C5C5",
"-X c #C6C6C6",
";X c gray78",
":X c #C8C8C8",
">X c gray79",
",X c #CACACA",
"<X c #CBCBCB",
"1X c gray80",
"2X c #CDCDCD",
"3X c #CECECE",
"4X c gray81",
"5X c #D0D0D0",
"6X c gray82",
"7X c #D2D2D2",
"8X c LightGray",
"9X c gray83",
"0X c #D5D5D5",
"qX c gray84",
"wX c #D7D7D7",
"eX c #D8D8D8",
"rX c gray85",
"tX c #DADADA",
"yX c gray86",
"uX c gainsboro",
"iX c #DDDDDD",
"pX c gray87",
"aX c #DFDFDF",
"sX c gray88",
"dX c #E1E1E1",
"fX c #E2E2E2",
"gX c gray89",
"hX c #E4E4E4",
"jX c gray90",
"kX c #E6E6E6",
"lX c #E7E7E7",
"zX c gray91",
"xX c #E9E9E9",
"cX c #EAEAEA",
"vX c gray92",
"bX c #ECECEC",
"nX c gray93",
"mX c #EEEEEE",
"MX c #EFEFEF",
"NX c gray94",
"BX c #F1F1F1",
"VX c gray95",
"CX c #F3F3F3",
"ZX c #F4F4F4",
/* pixels */
"                                                                                                                                ",
"                                                                                                                                ",
"                                                              1XtX9X9X9X9XtX9X1X1X                                              ",
"                                                          +X9XaXaXaXtXtXsXtX9XtXkX                                              ",
"                                                      :X9X9X9XaXcXtX+X|.1XaXtX5X9X5X|.                                          ",
"                                                  tXY.S.[.%X9XsXbXcXtX5X:XtX9X:X9XaXtX_.                                        ",
"                                                5X:Xl.=X9XtXkXbXVXbXcXkXaX5X1X:X=X5XsX|.L.                                      ",
"                                                9XL.=XVXVXVXVXVXVXVXVXVXbXsXaX9X5X5XtXaX1X                                      ",
"                                              aX:X=XcXbXbXbXVXVXZXVXVXVXVXbXbXsX:X%X=X:X5X5X                                    ",
"                                            9X=XQ.sXbXcXbXVXbXVXVXVXVXVXVXVXVXVXaX_.|.:X1XsX                                    ",
"                                            5Xi.Q.bXcXcXcXbXVXbXbXbXVXZXVXVXVXVXVX9X/._.|.aXtX                                  ",
"                                            =X+.:XbXkXcXbXbXbXbXVXVXVXVXVXbXVXVXVXbX|.,...=X9X                                  ",
"                                          aXL.+.aXcXsXcXcXcXbXbXbXVXVXbXVXbXVXVXbXcX%Xl.9.l.=X                                  ",
"                                        5X5X&.*.aXcXcXcXbXbXbXbXcXbXZXZXVXVXbXbXbXbX:XG._.[.|.                                  ",
"                                      :X:XC.k ,.aXsXtX5X9XkXcXcXbXcXbXbXbXVXbXcXkXkX=X7.i./.9X:X                                ",
"                                      %XL.r.c *.9XtXtX=XY.|.aXkXcXaX+X[.5XaXsXcXkXkX:X[ ' ,.M._.:X                              ",
"                                      5X[.7.e &.9X5X=X+XL.G.:XcXkX|.S.Q.9XkXsXaXsXkX%Xc V +.[ 7.:X                              ",
"                                      5X%XS.e 9.5X/._.r.M.S.:XbXkXY.d.L.M.G.=XtXaXcX%Xa k [ ..i.[.=X                            ",
"                                      9X%XC.L M.aXaXaX:X9X9XtXbXkX1X|.:XS._.Q.|.tXcX=Xc k L +.i.M.[.+X                          ",
"                                      %X+XG.! Q.bXcXsXkXkXcXcXVXkXkXkXsXaXkXcXsXkXcX=XZ M Y ~ r.l.C.[.                          ",
"                                    =X5X|.7.. +XbXkXsXaXsXkXbXVXcXcXkXsXsXcXbXVXcXbX5X..M ! ..,.z./.1X9X                        ",
"                                    :XsX+X+.= %XkXaXaXkXkXsXbXbXkXkXbXcXkXcXcXbXbXkXaX_.L Y 2.i.i.[.tXsX                        ",
"                                    :X5X+X..M +XaXtXsXkXsXcXVXbXsXkXbXbXkXkXkXkXkXaX9X:XQ.[ l.Q.M.%XaX1X                        ",
"                                    :X=X+X! c Q.tXtXsXsXkXcXbXcXbXcXkXcXcXkXsXaXtX5XaXsX5X! G.|.r._.cX1X                        ",
"                                    5XL.:XG q d.9X9XtXkXtX/.|./.5XkXsXsXkXaXaX9X5X5X9XtXG.q 7.G.S.+XtX                          ",
"                                    5Xl.=XZ a &.:XtXtXcXaX/.z.&.S.aXcXaXaXaXtX9X5X5X7.! q V [ *.Y.aXtX=X                        ",
"                                    1XC.%X! a G %X9XaXsXsXtX_.=XsXcXcXcXsXsXaX5X9X:Xa . Z G L L [.tX5X=X                        ",
"                                    9XG.Q.= V . L.9X5X:X9XtXsXkXcXkXkXsXaX9XtX9XtX|.3 g ~ c a G /.=X:X=X                        ",
"                                  tX1X/.d.c ' c /.tX:XQ.L.S.Y.L.G.[.+X%X1XtX9X9X9X_.. q M c k 7.%X_.%X5X=X                      ",
"                                    tX+X+.&.*.*.S.5X=X%X|.G.i.l.r.9.d./.:X5X5X9X5XY.a Y ! L L G.[.[.|.1X:X                      ",
"                                    5X:X+.' ~ 7.M.Q.5X=X_.i.2.i.i.d.[.|.%X%X=X=X1XC.M *.9.~ &.L.L.C.G.5X1X                      ",
"                                    aX9X[ *.d.~ l.Y %XtX1X[.L.Y.Q._.%X=X%X=X|.|.|...g ..&.' r.|.=XM./.1X=X                      ",
"                                    aX5X9.2.|.&.! . *.:XtXtX9XtXaXaXtX=XY.M.M.+XL.a L &.' Y S.:X:X:X:X%X                        ",
"                                    tXaX%XL._.G.M.l.G G.=X|./.Y.Y.|./.9.~ G M.%XS.a ' Y ..&.M.L.S.G.Q._.                        ",
"                                      tX    +X:X    G.C.=X[.2.L ' ~ G c ! 7./.1XM.c Y L 2.M./.9X:X5X9X                          ",
"                                                        :X1XM.+.+.~ ~ ..9.G.%X:XG.Y Z ! r.Q.Q.%XkXkX                            ",
"                                                        :X5XY.r.2.2.7.9.z./.=X+X..3 Z 7.C.Q._.|.:X                              ",
"                                                      %X1X1X|.C.l.z.d.z./.[._.7.: Z *.9.i.G.[.tX5X                              ",
"                                                      [._.tX+XL.S.S.C.S.G.&.k e G ' ,.9.d.d.Q.:X1X                              ",
"                                                  5X[.7.G.9X|.L.L.z.i.7.V a 5 G [ ' 9.l.l.C./.:X5X                              ",
"                                              1X%X:XS.[ 2.%X|.G.l.&.a g k c G L ~ 9.z.d.C.Y.Q.sXaX                              ",
"                                            1X1X/.Q.d.+.c L.L.*.M q 5 : e V ! [ r.M.l.z.S.G.|.5X                                ",
"                                          :X9XY.Q.G.9.Y g *...a q . q M G ' +.d.C.d.i.l.S.Q.1XtX                                ",
"                                          |._.L.S.S.l.2.Y ~ ! . q g M Y ' ..i.C.r.i.r.d.C.G.|.1XtX5X                            ",
"                                          |.L.L.L.S.S.l.[ ..G M G Z ~ &.+.7.l.i.9.r.i.i.&.z./.|.|.1X5X1X                        ",
"                                        %XG.S.G.L.L.S.i.r.+.V ! Y [ ,.2.*.r.r.r.9.7.7.k 7.C.C.L.Q.+X+X1X1X:X:X                  ",
"                                      %X[.S.S.G._./.G.l.,.[ ~ ' +.r.7.*.7.9.2.i.7.*.V [ *.,.l.S.Y._._._.|.+X1X:X                ",
"                                    :X_.S.S.S._.|.Q.S.r.l.2.[ 2.d.r.2.9.2.2.2.2.,.L G &...r.l.M.C.Q./.Q.[.Y.G.1X5X              ",
"                                    =XQ.C.l.Y.|._.Y.M.i.l.&.&.d.z.d.9.i.2.2.2.,...k k ' 2.9.l.G.G.S.C.S.Y.C.S./.%X              ",
"                                    |.S.l.l./._.[.Q.Q.Q.&.! z.C.z.9.r.9.,.7.i.2.Z q c 7.r.r.9.r.7.,.r.9.i.&.,.G.[.:X            ",
"                                  =X_.d.7.M.Q._._./.L.M.&.d.M.z.M.r.i.7.9.r.r.' e e ' i.i.7.,.7.9.2.&...*.[ [ z.L.+X            ",
"                                  %XQ.l.d.C.Y._.Q.i.2.+.+.M.M.M.M.i.r.2.7.7.&.Z . V ' ' &.,.*...L a g ~ ..Z Z ,.9.+X            ",
"                                  _.G.C.i.l.Y.Q.C.7.z.7.i.C.C.M.i.9.9.2.,.,.Y 5 Z [ +.,.2.+.G 3 . M ..*.G e L 7.&.Y.1X          ",
"                                  /.d.z.r.S.L.Y.L.L.*.+.M.C.C.l.l.9.2.,.*.~ g G 2.9.2.&.! c : e ~ 2.2.L e a ~ ' Y i.5X          ",
"                                %XL.S.i.i.Y.Y.G.S.S.,.9.z.M.l.l.z.7.2.,.' M a ~ ,.&.L q . . M ..7.9.' 5 e g Y L L [ _.5X        ",
"                                [.M.r.2.M.G.S.d.z.9.,.d.i.i.i.i.9.,.2.+.V 5 q ' ..V 3 = q Y 2.i.9.+.a e q M L V G G G.1X        ",
"                              =X[.z.7.r.L.S.l.M.Q.2.9.z.M.d.i.d.7.,.*.Y e . Z ! a . = c ' 7.r.9.+.Z q q 5 c Z g 3 c z.5XaX      ",
"                              :XS.r.,.l.S.l.M.L.2.&.l.l.d.r.9.2.*.,.[ c . k M . . 5 V [ ,.2.7.,...c 5 5 g V c : q c *.1XtX      ",
"                            1X%Xz.9.*.M.z.M.M.l.[ r.i.d.9.9.9.&.*.+.V = : a + . e Z ! Y L +.r.,.G 3 5 e k M k = q G V %XsX      ",
"                            |./.d.,.9.z.M.d.9.+.*.i.r.d.2.2.*.&.&.! q + a a g M Z V c a Z &.*.L % : q e k k 5 5 q G L :XaX      ",
"                            [.L.l.9.z.r.2.+.l.,.+.+...*.*.+.+.~ ! k + : c q c Y G g c [ 9.7.! 5 = 5 e e g g = 3 e G ..5XaX    tX",
"                          +X[.S.r.i.d.7.7.7.7.' ' 2.+.~ +.' Y G M q % q c L ' ' G Z ,.i.2.G e 3 5 3 a k a 3 = : e L ! =XsX    tX",
"                          [._.G.7.r.7.7.7.2.Y L Z r.7.c Y ! G c e : % k ! [ [ Y ' 9.r.+.M q : : 3 3 a e 5 % = = g c L :X9X    aX",
"                          _.G.C.7.*.,.7.2.,.' ! L +.Y 3 c Y Z g 5 = + G ....~ &.i.7.! M M g 5 3 5 g e = = + % = k . S.5X5XtXtX9X"
};
