/* XPM */
static char *a54821f0744842f0b736f09fc4766228IPGhGtGS7pu8ZJvK[] = {
/* columns rows colors chars-per-pixel */
"64 41 227 2 ",
"   c None",
".  c #000002",
"X  c #0B0A0C",
"o  c #06060B",
"O  c #0E0E14",
"+  c #000819",
"@  c #13131B",
"#  c #151317",
"$  c #110D0F",
"%  c #261D1B",
"&  c #371D18",
"*  c #230000",
"=  c #38251F",
"-  c #1B1B24",
";  c #1F1F2A",
":  c #151820",
">  c #1F2434",
",  c #22222D",
"<  c #2D2825",
"1  c #382A25",
"2  c #3D312D",
"3  c #252531",
"4  c #272936",
"5  c #292935",
"6  c #2C2D3A",
"7  c #342F3D",
"8  c #2E313E",
"9  c #2C3033",
"0  c #393437",
"q  c #41261E",
"w  c #492E26",
"e  c #42332C",
"r  c #4B352C",
"t  c #49392D",
"y  c #56392C",
"u  c #423631",
"i  c #443A34",
"p  c #4C3B34",
"a  c #4A3A36",
"s  c #553C33",
"d  c #512627",
"f  c #603C33",
"g  c #4C423B",
"h  c #53443C",
"j  c #5B463C",
"k  c #57473A",
"l  c #63463C",
"z  c #66473B",
"x  c #73483C",
"c  c #65523E",
"v  c #2F3141",
"b  c #333544",
"n  c #3B3B43",
"m  c #37394A",
"M  c #3A3C4C",
"N  c #363748",
"B  c #3C3E51",
"V  c #3E4152",
"C  c #3E4344",
"Z  c #454245",
"A  c #5A4A44",
"S  c #524942",
"D  c #5D524B",
"F  c #434454",
"G  c #444659",
"H  c #4B4B5D",
"J  c #47495A",
"K  c #505058",
"L  c #634D42",
"P  c #694E47",
"I  c #6B5345",
"U  c #6C5549",
"Y  c #6C594D",
"T  c #655347",
"R  c #73544A",
"E  c #7D564A",
"W  c #755B4C",
"Q  c #7C5A4D",
"!  c #775647",
"~  c #6D5E55",
"^  c #635955",
"/  c #745D51",
"(  c #7C5D52",
")  c #705F58",
"_  c #734E43",
"`  c #746254",
"'  c #7B6454",
"]  c #73635C",
"[  c #7A685C",
"{  c #6E6057",
"}  c #595F70",
"|  c #796A62",
" . c #6C6770",
".. c #835A4D",
"X. c #865648",
"o. c #8A5F53",
"O. c #865C53",
"+. c #8B574E",
"@. c #826354",
"#. c #8A6354",
"$. c #85675B",
"%. c #8E655B",
"&. c #856C5B",
"*. c #8B6B5C",
"=. c #886857",
"-. c #956557",
";. c #916559",
":. c #936C5D",
">. c #9B6C5E",
",. c #996150",
"<. c #8A735E",
"1. c #9B715E",
"2. c #836142",
"3. c #B4745E",
"4. c #886D63",
"5. c #956D63",
"6. c #996765",
"7. c #857164",
"8. c #8B7361",
"9. c #88766C",
"0. c #927564",
"q. c #9C7466",
"w. c #937A65",
"e. c #9C7C6D",
"r. c #997968",
"t. c #8D7B71",
"y. c #9C7C72",
"u. c #917C71",
"i. c #A37A6B",
"p. c #AC7C6D",
"a. c #A6756A",
"s. c #A37D72",
"d. c #A77370",
"f. c #B37D71",
"g. c #BC7879",
"h. c #9A8473",
"j. c #9B867B",
"k. c #978579",
"l. c #968376",
"z. c #A5816D",
"x. c #A48372",
"c. c #AB8372",
"v. c #AC8976",
"b. c #AB8C7A",
"n. c #A88879",
"m. c #B58375",
"M. c #B98476",
"N. c #B48C7A",
"B. c #BC8C7D",
"V. c #B78778",
"C. c #BC927D",
"Z. c #B3917D",
"A. c #AE907C",
"S. c #C18C7D",
"D. c #C2967E",
"F. c #5B688A",
"G. c #6B7693",
"H. c #C47C80",
"J. c #A28C81",
"K. c #BB8B81",
"L. c #BB9484",
"P. c #BC9988",
"I. c #AA9387",
"U. c #B7A494",
"Y. c #BAA6AE",
"T. c #C48383",
"R. c #C48E81",
"E. c #C98485",
"W. c #C39583",
"Q. c #CB9387",
"!. c #C49985",
"~. c #C39B8B",
"^. c #CA9B8A",
"/. c #C99889",
"(. c #D29D8B",
"). c #D79C8A",
"_. c #CC9D91",
"`. c #D99B95",
"'. c #CAA18B",
"]. c #D3A48D",
"[. c #DAA18D",
"{. c #C4A291",
"}. c #CBA391",
"|. c #CEAA96",
" X c #D4A593",
".X c #DAA494",
"XX c #D5AA94",
"oX c #DBAB95",
"OX c #D4AA9B",
"+X c #DEAB9A",
"@X c #DDA699",
"#X c #DCB19C",
"$X c #E3AC9C",
"%X c #E3A798",
"&X c #E3B29C",
"*X c #E9B49E",
"=X c #C3B2A0",
"-X c #E6AEA0",
";X c #E8A6A3",
":X c #E4B3A3",
">X c #EAB4A4",
",X c #EBB9A4",
"<X c #ECBBAC",
"1X c #E8B7AA",
"2X c #F2BCAC",
"3X c #F0BAA5",
"4X c #E6BEB1",
"5X c #F3BEB1",
"6X c #F9BFB4",
"7X c #CCC0B0",
"8X c #F4C1AB",
"9X c #EDC1B3",
"0X c #F4C3B4",
"qX c #F9C5B5",
"wX c #F9C6BA",
"eX c #FBCBBC",
"rX c #F9C9B7",
"tX c #EDC0AF",
"yX c #B0B3DD",
"uX c #FBCDC2",
"iX c #FDD1C4",
"pX c #FCD5C9",
"aX c #FEDACD",
"sX c #F9D3C6",
"dX c #FEDDD1",
"fX c #FFE5DA",
"gX c #FFE9E2",
/* pixels */
"                                                                  u.9.                                                          ",
"                                                              l.n.u.k.J.j.j.k.j.                                                ",
"                                                          t.l.[ 7.k.k.t.t.t.l.k.9.9.                                            ",
"                                                        J.P.] p ] | t.t.7.| ) ) ^ | ~                                           ",
"                                                      8.l.U c j a S a r S A ^ ^ A T | ] {                                       ",
"                                                    U Q ;.C.v.` j r a u 2 a a 2 0 h S A {                                       ",
"                                                  T s q.tXrX#X'.s.5.4._ E R A a 2 a u 2 g ~                                     ",
"                                                L i *.tXpXaXdXdXsX5X4X1X4X4XW.y.( y r h L Y `                                   ",
"                                              ^ S 2.*XrXeXaXfXfXfXdXdXdXdXaXuXrX4X|.i.q.Z.&.L |                                 ",
"                                            9.[ 8.&X8X8XeXsXfXdXpXsXuXuXeXeXuXiXiXeX<XOX'.P.W T                                 ",
"                                            7.Y oX3X8X8X8XeXeXeX0X0XwX5X2X5X2X2X0X0X1X&XXXoX'.T Y                               ",
"                                          l.k e.8X*X*X*X*X3X2X2X<X<X<X:X>X>X-X:X&XoX.X].oXXX,Xn.e                               ",
"                                          W g D.&X&X*X&X$X,X2X0X<X1X>X-X$X-X+X.X].(.(.].].oX&X].k [                             ",
"                                          g c ].oXoX&X&X*X2XqXiXiXuX5X>X>X<X5X<X>XoX(.^.].].].].&.S                             ",
"                                          g c D.[.&X&X%X&X2XeXiXpXpX0X2X6XrXwX0X1X$X(.(.].].(.D.r.S                             ",
"                                          i c C.].&X&X&X2XrXeXeXuXuXwX6XwXuXwX0X2X>XoX(.].].D.C.<.k                             ",
"                                          g c B.].&X0XrXrX2X$X$X$X$X-X$X-X$X@X@X+X-X,X&XoX].D.C.=.h                             ",
"                                          S L L.].tXeX9X+XL.m.M.M.f.S.W.M.S.M.f.B./. X<X0X].D.N.W 2                             ",
"                                          S A L.|.:XP.4.I j f X.o.-.p.p.>.>.o...Q @.0.v.'.|.W.N.j i                             ",
"                                          S k !.#Xb.z l s r q w f +.S./.z.X.s e 1 w j z ! L.'.v.g g                             ",
"                                          D i {.{...z e < 1 2 r & X.1XpX+XE 1 & & 2 s L R 0.{.b.g                               ",
"                                          =.A |.L.Q y T Z 9  .P & +.pXfX<Xz & 2 + C ^ r c Q L.v.U N.                            ",
"                                          ,.=.|.L.i.N.m.d.4.;.x l V.dXgX0X..w s P [ 4.*.Q 2.C.A.#.3.                            ",
"                                          ^.i.XX&XoXB.a.6.X.x %.B. XsXgX:Xp.o.z x X.#.5.z.Z.'.A.1.                              ",
"                                          :Xv.XX,X,XoXB.p.f._.$X$X[.sXgX@XR.R.K.q.O.#.q.V.^.oXv.c.                              ",
"                                          1XL.XX8XiXaXiXwXuXwX5X*X%XuXdX;X/./.`.;X%X+X1X<X+X].N.C.                              ",
"                                          wX!.#XrXiXaXaXuXwX5X1X%X3XwXuX5X.X_.`.$X2XqXqX0X:XoXv.B.                              ",
"                                          4X!.&X2X2X0X<X%XQ.g.@X6X6XpXwXuX>X+XS.S.%X-X3X<X&XXXN.OX                              ",
"                                          9X#X XoX%X.XQ.p.,.;.%X6X5XwX5XwX-X5XR.X.a.S.).oX.X'.C.}.                              ",
"                                          OX XN.D.!.m.>.X.#.K.K.d.Q.).R.Q./.f.p.>...>.m.S.!.D.(. X                              ",
"                                        V 0 L c.B.i.X.x R s.P.L.R _ 5.;.;.E Q y.q...Q ,.i.V.P.N.                                ",
"                                  K J F N + < n.z.#.Q U r.L.~.L.y.R j I L R 4.e.h.=.! Q #.z.P.                                  ",
"                            J G J V N 6 ; o < h.z.&.R / y.L.~.~.L.e.( P R $.e.s.e.8.' R @.r.N.                                  ",
"                    H F G J F B M N 6 , @ . % w.e.q.' I L / 5.i.V.f.q.6.o.6.q.s.q.( U W *.r.v.                                  ",
"            H H J H H G V B M m b 6 3 - @ o . &.8.w.5.y.s.d 1 y.s.y.o.+...#.:.R * s ( w.1.<.z.                                  ",
"      F H H G G G F B M M N b v 6 5 , - O $ . ~ <.$.u.s.P.Q.O.k.=X=XU.I.U.j.l.I ..e.<.<.<.h.h.                                  ",
"    n m M B B M B B m m m b b v 6 5 , - O X . S [ ' [ x.P._.@XH.d.s.9.9.y.6.6.d.N.i.&.&.<.e.Y + n J                             ",
"  K 5 7 b M B B b B m N b b v 6 4 , ; @ O X . g ' / ` 8.L.~._.;X;X`.H.H.H.S.g.B.N.z.[ &.<.<.< . @ 9 M M m F K                   ",
"  0 5 7 b N m M v v N v v 6 6 4 , , - O X # .  .n.c [ | b.{.L.K.H.H.H.H.g.p.c.N.N.h.&.&.<.D + $ O O ; 8 N M M V M M             ",
"Z 6 5 6 8 v m m N 4 v v 6 6 4 3 , ; : @ X @ . G.Y.2.` <.j.{.}.c.6.O.( E ..#.i.L.Z.h.7.<.Y 3 5 ; @ @ @ , 5 8 b b b M M M M n     ",
"n 6 , 6 7 8 b N 8 3 6 6 4 4 3 , ; - @ O o : . F.yX1.U [ l.{.|.{.s.4.( ( 4.q.N.P.K.h.<.k.} . 4 3 , @ @ @ , , 5 8 6 8 8 b b N b   "
};
