/* XPM */
static char *_e99beec4b0240459cea0e889f2e0cd8MrgF1C0qIMJDtIRH[] = {
/* columns rows colors chars-per-pixel */
"58 38 219 2 ",
"   c None",
".  c #2A0000",
"X  c #3C0000",
"o  c #3B1100",
"O  c #431D0B",
"+  c #472100",
"@  c #542A06",
"#  c #562F11",
"$  c #5A3816",
"%  c #5C350C",
"&  c #643307",
"*  c #653B16",
"=  c #643E1A",
"-  c #693E16",
";  c #5F401F",
":  c #6C421D",
">  c #68471D",
",  c #74461D",
"<  c #774618",
"1  c #7A4602",
"2  c #654523",
"3  c #694320",
"4  c #6D4924",
"5  c #6C4D2A",
"6  c #68472A",
"7  c #744B25",
"8  c #744A27",
"9  c #6D522E",
"0  c #7B5324",
"q  c #73532C",
"w  c #7C552D",
"e  c #775727",
"r  c #7A5732",
"t  c #7A5A35",
"y  c #7C5E3A",
"u  c #765A37",
"i  c #7D613A",
"p  c #795846",
"a  c #7C6543",
"s  c #7C6349",
"d  c #7C6D53",
"f  c #7D6E5D",
"g  c #7C7259",
"h  c #955C1A",
"j  c #875829",
"k  c #825B32",
"l  c #975F2B",
"z  c #94602B",
"x  c #85643C",
"c  c #8B663B",
"v  c #866236",
"b  c #926A3E",
"n  c #996737",
"m  c #AA7234",
"M  c #A2703E",
"N  c #A76C2D",
"B  c #8B6641",
"V  c #856A44",
"C  c #8B6C44",
"Z  c #826D4D",
"A  c #8C6F48",
"S  c #816644",
"D  c #936D46",
"F  c #8E724C",
"G  c #9B7446",
"H  c #94734C",
"J  c #9B764B",
"K  c #9D7A4D",
"L  c #957446",
"P  c #826C51",
"I  c #8D6C52",
"U  c #837356",
"Y  c #8D7453",
"T  c #83755A",
"R  c #86785E",
"E  c #8B7A5C",
"W  c #88775A",
"Q  c #957954",
"!  c #9A7D54",
"~  c #937E5C",
"^  c #9A7F5A",
"/  c #947656",
"(  c #A37B4C",
")  c #AB7E4B",
"_  c #A67444",
"`  c #A37F52",
"'  c #837667",
"]  c #8A7D63",
"[  c #827A6D",
"{  c #847A61",
"}  c #947C65",
"|  c #827C71",
" . c #A57D61",
".. c #9B815D",
"X. c #9F8256",
"o. c #AA814D",
"O. c #BC844C",
"+. c #B68249",
"@. c #A48254",
"#. c #AC8553",
"$. c #A2855C",
"%. c #AB865A",
"&. c #AE895B",
"*. c #B38954",
"=. c #BB8A53",
"-. c #B38D5A",
";. c #B98D5A",
":. c #B18652",
">. c #B3915E",
",. c #BB935D",
"<. c #8E8165",
"1. c #948364",
"2. c #9C8563",
"3. c #968869",
"4. c #9C8C6B",
"5. c #9F8967",
"6. c #8B847C",
"7. c #878175",
"8. c #9A8D70",
"9. c #A28964",
"0. c #AA8A66",
"q. c #A38D6C",
"w. c #AA8F6A",
"e. c #A58563",
"r. c #B48E61",
"t. c #AF9165",
"y. c #AB936D",
"u. c #A4916E",
"i. c #B59061",
"p. c #BB9663",
"a. c #BD9964",
"s. c #B1956E",
"d. c #BD9C6C",
"f. c #A39575",
"g. c #AC9672",
"h. c #A99978",
"j. c #AC9976",
"k. c #B39A74",
"l. c #BB9E73",
"z. c #B39D78",
"x. c #B19670",
"c. c #A78973",
"v. c #B3A17D",
"b. c #BCA37B",
"n. c #BBA376",
"m. c #C1884A",
"M. c #C2945C",
"N. c #C8945D",
"B. c #CA985D",
"V. c #CA9054",
"C. c #C29562",
"Z. c #C29A63",
"A. c #C39D6C",
"S. c #C4976E",
"D. c #D29E61",
"F. c #C29E74",
"G. c #C4A26C",
"H. c #CAA26B",
"J. c #D0A46A",
"K. c #C6A474",
"L. c #CBA772",
"P. c #CDAB75",
"I. c #C3A57B",
"U. c #C3A87E",
"Y. c #CCAD7D",
"T. c #D1AC74",
"R. c #D1AE7C",
"E. c #D4B27C",
"W. c #D7B47B",
"Q. c #9F8D81",
"!. c #93918E",
"~. c #9A9896",
"^. c #989694",
"/. c #B49B87",
"(. c #A8988D",
"). c #B3A482",
"_. c #B8A682",
"`. c #BEAA83",
"'. c #BFAE8A",
"]. c #B7A885",
"[. c #B5A293",
"{. c #A6A5A5",
"}. c gray68",
"|. c #AFB0B1",
" X c #B4B4B5",
".X c #B6B7B8",
"XX c #B7B8B9",
"oX c #BABBBB",
"OX c #C0A582",
"+X c #C4AC83",
"@X c #CAAD82",
"#X c #C5AD89",
"$X c #C6B187",
"%X c #CDB285",
"&X c #C5B28C",
"*X c #CBB58C",
"=X c #CEB98F",
"-X c #D4B684",
";X c #DBBB83",
":X c #D5BA8D",
">X c #DBBD8A",
",X c #D4B888",
"<X c #CDBA93",
"1X c #C8B695",
"2X c #D4BD92",
"3X c #D4BC99",
"4X c #DBBE92",
"5X c #C3A994",
"6X c #E1BE82",
"7X c #DFC28C",
"8X c #DAC295",
"9X c #D5C29B",
"0X c #DAC69A",
"qX c #E1C28A",
"wX c #E4C185",
"eX c #ECCC92",
"rX c #D9C9A5",
"tX c #C1C1BF",
"yX c #C0C0C0",
/* pixels */
"                                                                                                                    ",
"                                                                                                                    ",
"                                                                                                                    ",
"                                                                                                                    ",
"                                                                                                                    ",
"                                                                                                                    ",
"                                                                                                                    ",
"                                                                                                                    ",
"                                                                      K.A.C.d.                                      ",
"                                                                3X*X@Xl.i.` -.w.                                    ",
"                                                        3X2X:X:XY.l.s...! J b C                                     ",
"                                                  3X<X8X4X%XI.z.s.w.$.L B v j w                                     ",
"                                          rX9X<X4X:X$X`.b.z.x.y.9...H x 0 8 p                         #Xd.;.F.      ",
"                                    rXrX9X0X8X'.I.v.b.j.w.e.} ! F C k 3 @ 6 H =.                  OXF.K.F.r.C.5X    ",
"                              9X=X8X8X0X=X$Xb.k.k.y.9.^ Y V C v 5 > 6 k G ` o.M.D.B.m.S.    1X&X@X@XI.l.t.` H K     ",
"                      rXrX2X0X0X*XU._._.].j.5.5.! / H V i q 2 2 u Y ` >.C.C.d.-.p.p.C.H.@X=X:X$Xb.k.s.y.2.H C x     ",
"                <X*X9X0X9X$X_.n.n.n.f.y.4.......F V i ; ; 9 V $.l.P.G.G.P.E.P.L.G.l.b.$X`.U.U.n.y.q.../ W a v t     ",
"          P.L.R.R.l.y.g.g.b.x.9.9.......X.A i i 9 2 9 x X.t.d.n.G.L.P.,X7XP.W.-X=X=X$Xb.b.v.k.j.q.2.W W a e e       ",
"    } I M.J.;.*.%.%.$.e.....e.^ X...V x i 9 > 9 i L >.a.a.T.T.T.;X-X;X,X-X$X8X9X9X*XU.n.v.h.4.3.~ d Z S s ~. X      ",
"    s . q *.` ` J J H Q Y H Q H A x 9 2 9 i b X.>.>.a.a.W.;X7X;XW.;XY.:X9X*X&X<X'.].v.f.4.4.<.E P a d 6. X.X        ",
"    S O O b G b C c x B C C v u ; $ 2 V @.>.*.#.a.>.p.a.W.;X7X7X@X*X*X&X&X'.&X_.v.f.8.1.E R W Z d 6.}. XoX          ",
"    S * o r n k k w k k r 4 % 2 i A X.&.*.M.T.Z.P.W.P.Y.W.E.E.$X&X&X#X).v.).).h.f.3.<.E U d T 7.{. XoX              ",
"      r O = k 8 8 3 3 = $ u G ( o.#.,.,.H.eXeX7X;X7X7X7X-X%X'.'.+X*Xb.h.h.f.f.8.<.W T d d 7.{.|.oX                  ",
"      c w @ 4 $ @ # 6 x G ) N.J.G.H.H.H.7XeXeXwXL.K.b.b.b.$Xb.n.b.b.v.f.3.3.<.] U g g 7.{. XoX                      ",
"        B k O O 8 8 k _ o.#.) ,.L.R.A.Z.;X7XE.F.d.I.I.b.U.z.z.k.g.q.4.1.W W g T T | ~.XX X                          ",
"          Q. .N l j M +.o.N.Z.,.,.K.P.,.,.M.;.;.d.Y.U.x.b.b.x.w.4.3.<.U d d T [ ~.XX X                              ",
"              OXN.N n n n _ V.H.Z.@.( *.=.=.=.i.-.s.n.y.y.g.y.4.3.R W U d [ ~. X X                                  ",
"                  /.m.h z O.B.J.,.- @ w ( :.-.*.$.X.0.w.q.5.1.] R U U [ ~..X.X                                      ",
"                    /.S.m.m.m.N.M.* = $ t ( @.! Q Q ^ ..Y U U W U ' ^. X X                                          ",
"                        /.(. .m m.3 * , * c ( J L A S S Z U U ' !. X XoX                                            ",
"                              V.m < - , < 0 L A S y t V Z [ !. X XoX                                                ",
"                              [.c.n < j , - t i t w y ' !.oXoXoX                                                    ",
"                                  r.h 8 , , 4 0 q f ^.oXoXtX                                                        ",
"                                    / j & & : T ^. XoXtX                                                            ",
"                                      } H ' (. XoXtX                                                                ",
"                                                                                                                    ",
"                                                                                                                    ",
"                                                                                                                    "
};
