/* XPM */
static char *_44d70438d32465aea22d15d48c03d85LpgJ5tklXTzfrb4O[] = {
/* columns rows colors chars-per-pixel */
"64 64 227 2 ",
"   c #560000",
".  c #5D0100",
"X  c #640100",
"o  c #6C0200",
"O  c #640D00",
"+  c #6B0A00",
"@  c #740200",
"#  c #7C0200",
"$  c #750A01",
"%  c #7B0B02",
"&  c #7E0C0A",
"*  c #731205",
"=  c #7C1105",
"-  c #7C120A",
";  c #761C0B",
":  c #7F1B0D",
">  c #7E1C11",
",  c #7D2214",
"<  c #762714",
"1  c #830401",
"2  c #8B0401",
"3  c #840B03",
"4  c #8B0B05",
"5  c #8B0708",
"6  c #840D0A",
"7  c #8C0D0A",
"8  c #870708",
"9  c #910603",
"0  c #920B06",
"q  c #930D0A",
"w  c #9A0D0C",
"e  c #841106",
"r  c #83130B",
"t  c #8C130B",
"y  c #821B0E",
"u  c #8C180E",
"i  c #8C1206",
"p  c #93130D",
"a  c #99130D",
"s  c #93190E",
"d  c #95160A",
"f  c #960F12",
"g  c #851410",
"h  c #8D1511",
"j  c #831C12",
"k  c #8B1B14",
"l  c #8C1F18",
"z  c #941511",
"x  c #9C1512",
"c  c #941B13",
"v  c #9B1B15",
"b  c #9E1719",
"n  c #951D19",
"m  c #9C1C1A",
"M  c #A4130D",
"N  c #A21514",
"B  c #A91515",
"V  c #A21A16",
"C  c #A4161A",
"Z  c #A31C1A",
"A  c #AB1C1C",
"S  c #A81915",
"D  c #B21D1D",
"F  c #B91B1F",
"G  c #A10904",
"H  c #872519",
"J  c #8C261A",
"K  c #8E2C1E",
"L  c #852617",
"P  c #932114",
"I  c #94231C",
"U  c #9C221C",
"Y  c #972519",
"T  c #A3221D",
"R  c #AB221E",
"E  c #A62017",
"W  c #B2241D",
"Q  c #BA261E",
"!  c #971F22",
"~  c #A61E21",
"^  c #AD1E21",
"/  c #A71721",
"(  c #B41E22",
")  c #BB1E23",
"_  c #BA1E29",
"`  c #8A2E21",
"'  c #9E2321",
"]  c #9C2C24",
"[  c #9E2C29",
"{  c #922B21",
"}  c #8C3323",
"|  c #893827",
" . c #933225",
".. c #9A3225",
"X. c #9B342A",
"o. c #9B3C2C",
"O. c #91392A",
"+. c #9C3C30",
"@. c #A42422",
"#. c #AC2423",
"$. c #A42925",
"%. c #AC2925",
"&. c #AC2628",
"*. c #A42B2A",
"=. c #AC2B2A",
"-. c #B42424",
";. c #BB2325",
":. c #B42A26",
">. c #BB2A25",
",. c #B42529",
"<. c #BC2529",
"1. c #B42B2A",
"2. c #BC2B2B",
"3. c #A2322A",
"4. c #A33B2D",
"5. c #AC312C",
"6. c #B3312D",
"7. c #BC322D",
"8. c #AE2D32",
"9. c #BD2C32",
"0. c #B42D31",
"q. c #A93A33",
"w. c #B43132",
"e. c #BB3232",
"r. c #B73C37",
"t. c #C31F25",
"y. c #C31F28",
"u. c #C22326",
"i. c #CA2526",
"p. c #C32A26",
"a. c #CB2A27",
"s. c #C3252A",
"d. c #CA252B",
"f. c #C42A2D",
"g. c #CB2A2D",
"h. c #D2262E",
"j. c #D22C2D",
"k. c #C2322E",
"l. c #CA302E",
"z. c #D3302E",
"x. c #C62731",
"c. c #CB2730",
"v. c #C52D30",
"b. c #CC2C31",
"n. c #CF2F39",
"m. c #D12731",
"M. c #D32D33",
"N. c #D92C34",
"B. c #D92F38",
"V. c #C43333",
"C. c #CC3234",
"Z. c #C53B36",
"A. c #CD3A37",
"S. c #CD3638",
"D. c #C43B3A",
"F. c #CD3B3A",
"G. c #C33738",
"H. c #D33235",
"J. c #DA3236",
"K. c #D43539",
"L. c #DB353B",
"P. c #D43B3C",
"I. c #DC3A3D",
"U. c #D13833",
"Y. c #E02F37",
"T. c #E3343C",
"R. c #E23A3D",
"E. c #EB383F",
"W. c #9B4232",
"Q. c #9E4936",
"!. c #9B4A38",
"~. c #97422D",
"^. c #A54439",
"/. c #A34939",
"(. c #A84637",
"). c #B2443C",
"_. c #B34535",
"`. c #AA513E",
"'. c #CB413E",
"]. c #C5413E",
"[. c #D9413F",
"{. c #D6423E",
"}. c #E4413F",
"|. c #CA3D41",
" X c #D43C41",
".X c #DD3D41",
"XX c #E23D42",
"oX c #EA3D43",
"OX c #E53741",
"+X c #AF4F43",
"@X c #B64C42",
"#X c #AA5443",
"$X c #A95843",
"%X c #B45345",
"&X c #B45C50",
"*X c #B9624D",
"=X c #BD705C",
"-X c #B86C57",
";X c #C24940",
":X c #D54342",
">X c #DC4343",
",X c #D6434A",
"<X c #C6554A",
"1X c #E44245",
"2X c #EB4245",
"3X c #E54549",
"4X c #EB4549",
"5X c #EA4A4D",
"6X c #E44849",
"7X c #F34349",
"8X c #F14247",
"9X c #EA4D51",
"0X c #FE5558",
"qX c #C26656",
"wX c #C66B59",
"eX c #D56D5D",
"rX c #CA7664",
"tX c #D57D6C",
"yX c #D4776A",
"uX c #F07E73",
"iX c #DB806E",
"pX c #D2856E",
"aX c #E78877",
"sX c #F2917E",
"dX c #EB8D81",
"fX c #EA9583",
"gX c #FB9A8A",
/* pixels */
"% h &.9.*.& b ^ _ <.<.p.p.Q M # c q.] r 8 C ) t.;.f.s.t.F 2 t ] ,.Z @ k @.%.;.p.a.Q 7.d i P 7.,.6 & / _ <.;.a.a.z.Q P d %.].P * ",
"n 8 f h @ k ~ ,.<.s.s.s.a.a.W 2 4 % $ $ n -.<.;.s.g.H.H.g.S % % g @ 6 ' 1.-.u.a.j.l.k.:.d e 1 @ @ ! ,.<.s.g.H.j.z.a.7.E e = $ e ",
"|.~ > ` > [ @.,.s.d.d.m.H.U.U.2.% I { = $.#.>.f.c.m.B.L.L.K.p ] !.. *.#.( p.i.N.J.T.I.{.Q p wXK & 8.,._ c.M.P.I.R.Y.U.d *X-Xo $.",
"|.@X* +. .g =.#.s.c.h.N.L.I.1XZ.3 @X).% $.&.-.2.b.B.L.oX5XS.4 4.yX. @.^ ) N.h.j.E.oX4XP.S d aX/.o &.8.x.c.H..X6X2X2Xz.9 tXpXo U ",
"e.~ b Y + - U :._ c.m.m.T.1XV.q 1 x 3 X u %.>.d.c.M..X3X XZ # p 3 X 3 @.<.F M.H..X3XXXf.4 3 3 $ o g :.<.f.n..X3X1XM.A 1 1 4 3 e ",
"A C S R t $ k U ,.x.m. XK.2.Z 1 #.A b t 3 z -.s.c.C. XV.m 2 x Z #.A % 1 A ;.v.K.>X>X<.9 4 P V :.h @ a W v.H..X3XP.A 2 q ;.u.Z e ",
"C D -.2.s.C % e @.,.x.n.,.q z m A ;.k.-.4 2 C -.f.b.G.@.t t ,.;.;.;.S 9 x R &.V.e.,.z p Z R k.;.7.p % c #.v.K.b.#.8 x <.F g.k.>.",
"D >.;.<.t.d.v % t ~ 9.( q 7 m &.s.) p.d.2.q 2 x 1.2.c # t &.-.<.i.i.g.W 4 3 &.w.&.4 1 Z R p.u.d.s.l.Y u p 1.V.N @ m Z -.c.a.u.l.",
";.;.>.2.b.M.s.Z @ 3 m 5 @ ' 0._ <.s.f.b.b.;.w @ u 3 @ 5 -.( x.<.a.g.H.j.A 8 3 r $ @ m -.s.b.i.M.N.j.a.a e % - @ 7 ~ ,.<.f.C.K.C.",
"p.-.>.k.d.B.L.b.Z r k $ k *.^ <.b.d.M.K.H.A.1.3 J J @ @.;.) <.f.b.L.J.L. Xx k ^.$ > #.,.t.d.s.XXT.E.T.C.% `.| o @.,.2.v.C.K.I.1X",
";.p.v.v.b.L.OX1X2.3 ^./.$ 8.,.<.s.d.K.L..X9XF.4 %XqX6 v ( x.<.V.b.1X4X4X.XN o.fX< > ,.s.s.M.I.L.8X2XOXS.3 gXrXO *.,.<.f.K.I.3X4X",
"-.<.b.b.b.L.L.b.w 3 H O - ! @._ s.H.M.L.3XP.Z # k y o z &.2.2.2.L.L.XXXXc.2 % L . % C ( f.c.c..X4X4XC.S @ u + . k #.9.v.U.I.4X4X",
"<.-.s.b.b.K.f.M 2 T z n o % &.9.f.f.m.L.P.S 1 4 A S 3 @ k U -.S.b.L..X2.q # v Z x 1 4 %.2.s.S.I.I.A.T % 0 E &.z @ t -.f.V.P..XT.",
"x <.2.f.b.;.w w Z -.2.-.@.% 7 Z 2.s.b.f.C 0 c R ;.u.1.p @ U 1.;.G.S.^ w t n ;.s.f.A 3 3 E 2.v.C.f.1.e u $.<.s.2.p u a D C.P.C.s.",
"1 Z :.1.#.t 4 Z -.;.s.<.s._ 1 z R 2.2.a 1 z $.-.s.y.s.( x t a -.9.,.5 7 x -.;.s.f.f.#.a 7 R G.2.x 4 4 %.-.s.b.g.V.#.a a ;.V.%.u ",
"f @ z [ % $ E -.W d.s.d.N.y.A @ 6 n t @ t T -.<.d.d.M.H.>.2 2 p f 8 @ ~ -.<.;.g.b.H.g.R q 1 4 t @ 3 :.-.s.s.M.N.S.f.Z 3 2 s r o ",
"9.f - > o h &.-.2.-.g.H.M.T.J.A % , $ r m ,.) d.d.b.b.>XA.k.2 c H . n &.;.s.g.a.z.}.}.U.E e ..* @ &.( <.f.S.L.R.R.U.k.1 (.o.  , ",
" X8.& o.` { @.&.2.f.s.L.L.L.4XV.$ #X+X$ 1.-.c.y.g.H.I.1X1X{.a _.tX  [ &.;.i.d.T.}.}.}.[.E P sX`.% &.<.x.c.b..X3X4X5X'.3 sXsX. } ",
"G.b 1 ! $ - $.-.;.b.d.B.Y..XP.R % ] J o %.^ ;.b.b.b..X1X1Xp.# P ).X k %.#.x.b.j.R.}.6XZ.d = _.k @ U 1.2.2.C.3X6X2XL.:.1 6._.+ = ",
"h 8 / b % $ P #.<.d.m.d.B.S.b @ 4 x 1 @ 3 @.<.;.C.v.M.L.;.9 2 t t 3 @ n #.-.g.H.L.U.A.E % e i i % 4 n &.v.b..XI.S.f.a 1 q 9 t $ ",
"5 Z <.( ,.7 % n 2.) h.M.s.A 3 u #.-.<.V 1 4 @.1.<.b.b.;.w 4 A -.<.-.w @ n -.2.c.H.S.m i i R 2.7.Z 3 e T k.d.M.K.1.m q a 2.k.1.V ",
"Z 2.F s.g.D t 3 x -.c.s.N 2 h %.;.) g.f.Z % 3 %.;.V.-.2 4 U A ;.s.g.2.q 4 m -.2.<.S 3 t 1.-.>.s.k.E i a A <.x.;.i 3 Z :.;.f.l.p.",
"D s.( g.g.b.2.0 1 n ^ f 1 6 ~ ,.u.i.i.g.d.W 3 4 A A 3 @ c ,.<.c.a.H.g.Z.w # z &.n @ 5 #.-.-.b.M.U.A.;.w 2 Z Z 0 # v #.1.C.C.U.P.",
"u.;.g.d.b.H.C.V.5 & r o $ *.,._ i.d.J.N.I.U.v 1 1 % o I =.-.x.s.N.J.R.K.2.q 6 $ X 6 @.-.<.b.M.L.R.XXC.E 1 3 $ o m #.1.2.g.I.I.1X",
"Q p.u.b.C.S.XX.Xx.8 !.O.- $._ y.f.j.N.T.R.5XS.p `.*X@ &.,.,.<.x.H.L.4X1X1XN [ dXH g @.<.c.m.K.I.7X}.1X'.% gXrX+ =.,.<.S.M.XX6X5X",
"p.;.p.i.K.S..XL.( 1 } < - $.9.<.s.g.N.Y.2X3X;.1 ..(.$ p @.2.9.b.U.I.XX5XK.q n %X$ 6 0.( c.c.b.XX8X8XL.1.@ qX^.o @.#.v.M.g.1X1X1X",
"R :.f.b.n.b.K.B 2 5 x & @ g ~ 2.<.f.g.I.H.( 4 1 a 2 @ r m :.<.s.l.K.I.f.N 1 7 t 3 o v :.s.f.S.H.R.H.>.4 3 3 r % $ U ( d.M.K.L.I.",
"T 6.-.<.d.f.A 2 x ^ s.( 6 3 Z ,.>.k.f.l.D x i v ) s.v @ t &.,.g.C.2.l.S p 7 A V.-.q 1 p ,.-.f.S.g.f.v 6 v 7.1.&.3 u Z f.b.b.U.g.",
"c n V.<.2.A 1 x ^ <.s.u.<.x 1 c :.>.-.#.i 3 x u.s.s.V.C 3 7 R -.2.2.v % p :.>.u.a.f.V a c %.>.2.1.q 3 v -.b.s.f.R s u v s.H.-.-.",
"1 7 T &.x @ n Z ;.( s.M.M.s.x 1 z :.$.3 % m s.t.f.C.b.v.%.4 1 :.1.Z @ t R -.p.b.U.a.2.V @ c 6.6.1 % Z Z f.i.I.I.A.1.i 4 :.7.m @ ",
"2.1 6 r @ t @.#.:.v.C.c.M.L.<.p 3 6 $ @ T R -.2.;.C.K.1XH.^ @ % $ o 6 %.-.;.f.H.U.}.{.p.0 @ r o & n ^ b.b.M.U.}.}.L.Q # + O % e ",
" Xe.% X.J n #.<.2.-.f.K.L.OX>XG.1 ).^.% T ;.<.d.b.K.L.oXoX.Xu o.yXX T #.>.<.g.H.I.6X6X[.A Z aX(.o w.<.y.b.M.[.5X8X8XU.i aXaXX K ",
" X~ % H j U A -.2.2.b.B.B.OX X1.# 3.X.% Z ,.2.s.b.L.B.oXOXK.= } &XX ' &.-.x.x.M.I.XX1XU.R u eX4.$ *.&.2.b.C.L.}.E.}.z.0 eXyXX K ",
"C 2 t u o 1 &.#.R V.c.d.M.M.,.2 0 7 $ @ m #.;.s.s.d.L.OXm.M % = - o 6 ~ ;.;.b.b.L.J.L.;.9 @ u + + h $.v.s.b.L.I.L.g.E 4 $ % % % ",
"1 w ^ -.V 3 t T V.( g.S.b.u.w 1 V :.%.7 % c >.s.c.b.d.s.x 2 q A 1.~ @ 6 #.( b.g.g.V.2.a 2 Y W 6.7 @ b #.<.g.B.C.k.%.i i $.7.R 1 ",
"v ,.( f.v.A 1 z A ( f.<.#.q 2 #.#.f.f.#.i 6 x -.f.<.<.Z 1 p <.) f.V.U 3 t #.2.<.l.-.4 7 Z -.7.f.e.x q Z ( f.p.f.E u P v ;.S.2.7.",
"( <.u.u.s.v.^ 0 x #.-.#.$ @ @.( s.s.s.A.s.v 3 c -.:.c @ h C ) c.b.f.b.-.7 7 Z 0.@.7 # z -.;.C.P.K.V.E # V 1.6.v 3 t Z 9.C.S.L.l.",
";.( C.c.n.L..X( 1 5 7 % $ l &.;.t.M.M.I.L.f.p % 6 3 X r @.<.x.d.N.R.4X.XA % 3 % @ @ ! 1.f.p.M.L.R.XXV.p 1 $ $ $ % T ;.s.S.P.4X4X",
"<.;.a.s.K.M.OXXX,.3 +.` % &.&.<.f.d.N.E.4X3Xf.3 W.$X+ U &.9.) M.N.L.R.4XL.w X.rX* - #.( ;.S.L.R.oX0XU.7.% pX#Xo @.( b.b.H.4X4X2X",
"Q f.g.i.M.B..XXX<.1 | | g *.&.,.s.d.Y.Y.L.1XS.3 W.#Xo [ 8.( c.m.z.R.XXI.3Xa H tX, l ^ 2.s.s.b.R.2XT.I.Z.% aXqX+ =.,.s.b.H.I.R.2X",
"W f.s.d.B.M.b.<.2 6 3 @ & { #.<.2.g.N.J.N.d.N 1 % % o k $.&.s.b.j.z.J.K.A p # % X & $.-.s.s.H.C.J.U.V.M 6 3 @ @ p &.1.x.b.H.J.T.",
"#.-.s.i.y.H.-.4 4 a ( C # 7 #.-.f.p.s.g.M.B 2 4 #.#.t $ k 1.<.s.j.a.l.>.x @ Z ,.Z @ 3 Z -.b.2.b.k.k.R q q T &.q 1 z :.2.s.g.L.a.",
"Z 2.;.s.b.R 6 3 Z ( b.s.C 5 z &.-.2.f.;.C 2 q #.<.f.,.0 3 U #.f.s.d.:.4 4 V 2.f.b.S 7 k T :.2.>.7.V 4 a A d.P.<.a q m A k.k.>.s.",
"q S -.#.#.3 % P ,.y.d.M.n.( w 7 T 1.-.v # p R <.s.b.S.V.x 3 x #.2.A 4 % v 1.<.N.K.K.R t r T e.2.v 1 p R s.g.K. XV.Z 2 v :.6.W v ",
"C 1 m x $ $ n ,.<.;.d.B.B.I.1.# 7 m 7 @ t T :.<.c.K.L.3XC.q # u k % # n ,.<.f.H.R.XXU.:.@ e p 4 @ 0 R ;.f.K.I.3X>XC.0 4 1 t u + ",
"|.~ # [ : r &.-.;.f.M.M.L.1X>X%.@ X.[ o $.&.<.f.d.K.T.XX6Xf.1 Y ).X n @.,.v.g.j.I.4X4X{.n % <Xn @ $.-.<.v.C.3X1X4X>Xk.1 ].<XX y ",
" Xw.$ X.I n =.-.<.C.d.b.L.T.P.F.3 ^.^.> 5.-.;.s.s.K.OXI.3XP.a 5.yXX [ &.<.f.t.L.L.2X}.P.7.p aX+X6 :.&.2.C.g.R.R.}.I.A.d uXaX  O.",
"0.8 & * o n T 1.,.s.g.H.M.H.g.x # $ o % ' &.<.s.c.b.H.U.l.Q 0 # @ o h =.2.) M.a.J.U.C.l.M 2 % X 6 ! 1.2.s.j.J.L.K.A.>.q @ % O ; ",
"5 2 b =.t % v $.;.>.c.b.b.s.C 1 0 %.Z @ t $.&.<.s.c.M.<.2.7 1 A &.2 @ Z ( <.d.d.M.b.g.A 2 p &.Z @ 5 #.#.x.s.d.M.d.V.Z 1 V R = + ",
"5 ^ :.-.%.p 4 m :.2.<.<.9./ 1 x -.>.s.W 4 i *.-.f.d.<.2.4 1 A -.2.k.w 4 b <.s.s.y.s.D w q R l.f.C 5 7 1.-.x.M.s.2.x p x Q S.:.s ",
"A -.2.2.v.f.A 5 T Z f.2.b # x / ;.f.f.K.D q c $.;.x.<.2 3 b 2.2.S.A.2.@.t c <.b.b.C # 3 &.>.<.:XP.1.r e #.,.f._ p 3 C ;.f.[.1Xl.",
"<.( 9.V.c..XP.B 2 c p t @ 7 ~ x.2.g.M.K..X1.1 6 z q 1 1 Z -.;.x.S.P.>XD.7 3 x 4 q # t @.-.2. XP.>X'.T % z w x v @ p -.d.C.I.4X7X",
";.u.f.g.M.I.OX.XB 1 o.; 6 ~ #.9.f.i.L.L.3X>XD # X.+.o x -.;.2.e.C.1X6X>Xs.9 L `.X - @.-.x.b.S.>X5X3XA.#.@ ). .  h %.<.f.L.R.2X8X",
"<.d.f.g.M.L.T.oX2.6  .O.6 8.,.,.s.a.H.L.OX>X X7 +.%X- ~ ,.x.2.V.S.L.L.1X1XN K rX< > ~ <.s.b.v. XXXXXXXA.% aX-XO 5.,.;.b.K.I.1XE.",
"s.<.d.g.b.B.N.s.N 4 $ o k ' &.;.s.H.b.M.M.b.-.7 j o % @.-.,.v.2.b.M.N.M.C.x r y + k :.( s.M.c.K.T.Y.N.;.@ } , + @.,.,.f.b.g.I.J.",
"-.>.l.f.i.b.s.B # p ~ 7 @ n &.,.f.;.g.H.f.;.4 # b z @ r m ,.,.f.d.M.N.d.A 1 4 z r @ b ,._ c.b.c.h.j.u.M % r & @ 8 &.<.2.f.b.U.a.",
"%.1.-.g.s.<.m % w -.<.<.b 4 v &.-.s.C.;.:.4 4 S ;.C.Z @ n $.( d.d.d.d.D 9 0 #.6.1.p 3 m -.s.c.f.p.p.x 3 z 2.F.C 3 h #.<.s.b.>.C.",
"p %.2.-.>.@.@ t #.;.c.n.x.C v m 1.:.>.:.i 1 N s.s.b.P.=.r h ,.p.s.u.A 2 2 -.-.F.:X2.#.4 Z -.;.2.2.p 3 v -.c..X X&.x x A ;.d.2.:.",
"=.s Z &.I X g @.<.<.s.L.L.S.#.% Z #.@.6 @ Z f.) b.M..X>X-.4 0 Z :.x @ t %.:.s.C.>X,XV.w 3 P @.#.t 1 x ;.f.H.XX5X XA 1 p D -.=.e ",
"'.#.c 3.+ : &.-.<.x.c.B.OX3XD.x @ @.g X U #.-.g.v.L.L.1X1XD # K I X r U R d.b.K.P.9X>XG.6 % [ % o t ,.d.d.K.1X4X3XI.&.1 p c $ = ",
":XG.o O.` n #.9.x.s.m.N.M.P.{.].8 r.).% %.-.>.<.f.K.I.L.OXP.p K =XO n e.f.d.d.B.T.R.XXP.-.u rX!.% &.,.<.M.M.P.I.R.R.J.9 wXpXX U ",
"v.v j * r @.&.,.<.c.m.M.b.C.l.R 3 & - r &.-.2.g.f.c.L.N.L.b.t , < O I &.;.;.M.N.B.h.L.S.-.7 X.; % 8.,.<.M.a.U.K.Y.J.z.0 ~.!.+ $.",
"~ # 7 ' @ h $.,.<.b.d.b.l.g.W 9 5 ! % o U 1.( s.g.d.d.h.d.M 1 t h @ h ' 1.v.) h.N.N.f.W 0 0 5 1 @ ! ,.<.p.i.z.a.a.l.W v t % 3 6 ",
"& z 0.9.8.h b ,._ d.s.a.a.D G 2 ! 3.3.k 7 v u.u.s.i.i.a.D 2 a @.e.#.# I m -.d.d.p.g.>.M 4 m 9.9.g & / <.;.a.a.z.a.Q Y c :.].*.r "
};
