/* XPM */
static char *_dd4998123f34175c61899376ad77abcnS5OsNahNIMGZyrw[] = {
/* columns rows colors chars-per-pixel */
"64 64 255 2 ",
"   c None",
".  c #000001",
"X  c #00000B",
"o  c #000015",
"O  c #00011B",
"+  c #00091D",
"@  c #170618",
"#  c #1B0000",
"$  c #220002",
"%  c #311218",
"&  c #000223",
"*  c #010C24",
"=  c #00042B",
"-  c #010D2B",
";  c #170727",
":  c #03122B",
">  c #0A152C",
",  c #071428",
"<  c #000435",
"1  c #041532",
"2  c #091632",
"3  c #0C1934",
"4  c #0C1C3B",
"5  c #051838",
"6  c #131B35",
"7  c #131E3B",
"8  c #181939",
"9  c #161429",
"0  c #281927",
"q  c #280C31",
"w  c #13213E",
"e  c #1B223C",
"r  c #1D2233",
"t  c #08223C",
"y  c #2C252A",
"u  c #2C252A",
"i  c #332A2D",
"p  c #36282A",
"a  c #23243B",
"s  c #292638",
"d  c #342C31",
"f  c #3A2A38",
"g  c #3D3234",
"h  c #38313A",
"j  c #4F060B",
"k  c #6F2D1B",
"l  c #501929",
"z  c #4B3B3B",
"x  c #45383A",
"c  c #563839",
"v  c #4B2D2C",
"b  c #6B2928",
"n  c #693B36",
"m  c #773C38",
"M  c #743028",
"N  c #78473C",
"B  c #6E4A3B",
"V  c #58443F",
"C  c #070543",
"Z  c #071E47",
"A  c #121F41",
"S  c #2A1E47",
"D  c #0A2244",
"F  c #142343",
"G  c #1B2643",
"H  c #1C2845",
"J  c #152649",
"K  c #1B2B4B",
"L  c #192648",
"P  c #1C3545",
"I  c #1C2E52",
"U  c #053656",
"Y  c #1D3155",
"T  c #1A375A",
"R  c #09274F",
"E  c #222B46",
"W  c #232D4A",
"Q  c #282746",
"!  c #2A324D",
"~  c #27314A",
"^  c #343547",
"/  c #243354",
"(  c #2B3552",
")  c #2D3955",
"_  c #22345A",
"`  c #28395D",
"'  c #343B54",
"]  c #3A3D53",
"[  c #343D59",
"{  c #353754",
"}  c #342E48",
"|  c #2C3D63",
" . c #303E60",
".. c #003C61",
"X. c #473946",
"o. c #523B46",
"O. c #433C54",
"+. c #532542",
"@. c #783247",
"#. c #781849",
"$. c #004347",
"%. c #37415A",
"&. c #3C435C",
"*. c #3B4A56",
"=. c #2D4B54",
"-. c #354465",
";. c #3C4764",
":. c #3F4860",
">. c #375D64",
",. c #336C6B",
"<. c #574647",
"1. c #434453",
"2. c #42445C",
"3. c #484A58",
"4. c #584958",
"5. c #4E505C",
"6. c #57535A",
"7. c #4E404B",
"8. c #6A4849",
"9. c #79544C",
"0. c #685758",
"q. c #765857",
"w. c #754652",
"e. c #7C625C",
"r. c #6F6058",
"t. c #434A61",
"y. c #454B66",
"u. c #565667",
"i. c #52586F",
"p. c #665665",
"a. c #6F5663",
"s. c #4F6B6E",
"d. c #6B6467",
"f. c #756667",
"g. c #676974",
"h. c #776B72",
"j. c #7A7276",
"k. c #6F736D",
"l. c #47655A",
"z. c #8F313B",
"x. c #884634",
"c. c #904F35",
"v. c #AD582F",
"b. c #A15D2D",
"n. c #CA6E3D",
"m. c #B13040",
"M. c #931C42",
"N. c #C5344C",
"B. c #864B47",
"V. c #8A564A",
"C. c #955649",
"Z. c #865956",
"A. c #975A54",
"S. c #864F52",
"D. c #A55D47",
"F. c #BC4B55",
"G. c #B45152",
"H. c #87655D",
"J. c #996758",
"K. c #95704F",
"L. c #AB6849",
"P. c #AA655A",
"I. c #A8675B",
"U. c #B76559",
"Y. c #B5735B",
"T. c #BD6B41",
"R. c #886966",
"E. c #9B6861",
"W. c #836B70",
"Q. c #857879",
"!. c #95746D",
"~. c #AD6D63",
"^. c #A86A66",
"/. c #A97568",
"(. c #BB7566",
"). c #B87568",
"_. c #AA7C75",
"`. c #B67B75",
"'. c #B46D62",
"]. c #CE5257",
"[. c #C36F4E",
"{. c #ED5B65",
"}. c #C47D6D",
"|. c #C47463",
" X c #CC756E",
".X c #E87471",
"XX c #2E837C",
"oX c #6A897D",
"OX c #568A7C",
"+X c #8A827D",
"@X c #978674",
"#X c #B9896A",
"$X c #AD8579",
"%X c #BB8776",
"&X c #B69976",
"*X c #A8956F",
"=X c #B79763",
"-X c #D4846A",
";X c #CB8A77",
":X c #CC8C7C",
">X c #C78677",
",X c #D28D7B",
"<X c #D58C75",
"1X c #D9917C",
"2X c #C99368",
"3X c #E58B72",
"4X c #D9A76E",
"5X c #C8A876",
"6X c #D5AC72",
"7X c #E5B775",
"8X c #E6AA6B",
"9X c #D08C4F",
"0X c #7C7F8D",
"qX c #556481",
"wX c #907C83",
"eX c #3B8881",
"rX c #719288",
"tX c #6AA094",
"yX c #888384",
"uX c #998988",
"iX c #938E93",
"pX c #979293",
"aX c #8B988C",
"sX c #B78B84",
"dX c #AC938E",
"fX c #9AA798",
"gX c #91A086",
"hX c #B1A38E",
"jX c #ACA4A3",
"kX c #B5B1AC",
"lX c #9D93A1",
"zX c #CA9587",
"xX c #D49584",
"cX c #D89A89",
"vX c #CD9893",
"bX c #E49487",
"nX c #DCA08E",
"mX c #DDA493",
"MX c #DAA895",
"NX c #CBAC8F",
"BX c #E3AD9C",
"VX c #E5A996",
"CX c #E6A792",
"ZX c #C5BDB9",
"AX c #CFB0A9",
"SX c #EAB9A8",
"DX c #F2BAA9",
"FX c #ECC3B2",
"GX c #F5C9B9",
"HX c #DAC4B7",
"JX c #D8D2CD",
"KX c #FDD7C8",
"LX c #EBE5D9",
"PX c #FDFBF9",
"IX c #EDEBE4",
/* pixels */
"                                                                                                                                ",
"                                                                                          uXj.0.0.0.Q.                          ",
"                                                                                      pXj.0.z <.z z 6.0.Q.                      ",
"                                                                                    uX0.g v g g d g g g z j.                    ",
"                                                                                  Q.<.d d i i u i u d g x p d.                  ",
"                                                                                +X7.u p u r d i u u y i g i V uX                ",
"                                                                                0.u i 6 g H.q.g u y y y g x % d.                ",
"                                                                                <.9 c E.;XmXMX9.y g i y y p u z                 ",
"                                                                                dXP.<XCXDXFXGXsXh g i u u u d g 6.              ",
"                                                                                zX X1XCXFXFXFXBX9.g i u u u d % 0.              ",
"                                                                                |.|.1XBXFXDXDXcXA.z i u u @ + . d.              ",
"                                                                                T. X-XbXnXVXBX>X(.q.u u 9 8.H.@ <.              ",
"                                                                                sX[.|.-XVXDXmXxX,XV.+ o.8.&XvX% 7.              ",
"                                                                                AX|.1XVXGXDXnXCX,XC.c %X_.:XMXp 9               ",
"                                                                                vX}.`.`.BXcX,X1X}.P.(.1XzXMX$X. u               ",
"                                                                                  A.E._.;X`.,X1X}.>XcX;XzXH.$ u u yX            ",
"                                                                                  h.BXKXA.I.nX1X}.,XCX;XC.I.A.l q f.            ",
"                                                                                    FXKXCX<X1XY.(.`.(.>X^.%XA.9.0.oXpX          ",
"                                                                                    GXSX:X<X-XU.|.I.I.}.I.%XH.@XrXrX^.          ",
"                                                                                    zX).-X1X XP.~.P.I.P._.%XoXrXW.F.B.'.        ",
"                                                                                        VX|.Y.U.(.~.I.J._.tXXX$.w.Z.9._.        ",
"                                                    BXSXzXcXq                         LXJXzXVX(.I.I.I.V.oXXX/ =.>.] X.u.iX      ",
"                                                  zXI.!.$ 0.<.          w.V 0.8.9.ZXHXAXH.}.1X(.A.C.n =.l.>.,.s.4.u.4.4.a.Q.    ",
"                                              BX    *.f.+XyX&XV.W.V.m C.c 0 l   4.0X  aXaXf.D.'.w.o U ,.XXs.t.O.O.O.4.4.o.4.    ",
"                                              hXA.@X@Xe.H.N M k k c.cX            X.fXfXQ.].].p b S.p.,.*.Q ( ~ S Q } o.O.f X.  ",
"                                            *.r.x.x.T.Y.G.B.9.Y.<X`.              uXpXl.$ ].9X#X{.F.c Q { &.&.] ! } F a } f s   ",
"    n.J.                        k.a 7.c x.b.n.v.b.'.xXcXmX,X:X}.xX).              NXk.# L.5X&X5XA.C U ' { %.*.[ ( Q E G S s ; u.",
"    n.L.H.dX        R.!.!.E.#X8.k k N b.v.C.      ^.Y.zXcXcX,X;X}.'.              B n N =X6X*XR.< { t.) &.t.&.&.( ~ w e Q s & 7.",
"    9Xn.).R.MX2X#XI.J.8.B x.k M V.R.            MX`.).zXxXmXcXxX,X}.w.l x.E./.L.$X/.G.K.7X&X#Xx W t.{ [ 2.t.t.%.~ K F F E a O ^ ",
"    [.c.Y.z j l v b n B.@.m f.yX              xXbX,XxX:XcXBXBXcXcX<X}.B.>X-X      >Xc.7X=Xd.#.D y.{ { &.&.t.y.*.W W w w G e O a ",
"    v @ A.V.. o 0 c j Q.            jXW.wXQ.Z.V.B.>X>XP.`.xXmXmX:XnXzX9.        j.@X7X2X*.*.R 1.&.~ %.[ &.&.2.%.F W w w E 6 * 3 ",
"    3.; sXJ.. 8.    K           lXQ.0.l n N j m m x.~.).}.:XzXxXmXAXpX7.q.    hX2X7X4Xc Q 2.} &.) &.( 2.&.&.t.~ w ! w w W 6 : , ",
"      f c c.E.      R.            e.k J.M b N D.L.    _.'.A.A.>X_.yXZXjXj wX  MX4X=X8.4.2.] { [ t.] [ &.&.*.y.w w ) 7 w E w , 6 ",
"      3.& B.          /.    I.J.$X/.b C.n               NX$X. q.h.JXPXIXR.o.k.K.7X8.< X.{ O.[ O.O.{ y.t.&.2.&.1 G ' w F w 3 & s ",
"                      /.J./.I.                              <.s 8.LXPXIXhXjX$ # K.v & 1 { ] [ t.[ t.t.t.%.&.( = E %.w t 3 r O *.",
"                                                          uX; 0.o.pXLXjXkXZX`.B X : 8 ~ { { [ [ %.%.! ~ %.t.E & W %.7 1 4 > o 1.",
"                                                            0.@ o.q # o.uXBXDX(.w., e ~ L ' &.[ ! E ! ) %.%.F * W ' 3 , , * * 5.",
"                                                            Z.d.8.o.h 8.<XDXSXxXI.& } %.&.' ~ ~ E ~ W ! %.( w + K ) 4 * , * r   ",
"                                                              +Xq.$ & ~.<XxXSXBX8.< ] ! { E G H 3 G K W ~ / w * W / 1 * , O ]   ",
"                                                              t m S.S R.:X;XcXvX-.] ! ' -.E H ' ! 2 5 L ~ K 4 * K Y 1 * : * g.  ",
"                                                              + Z.w.@.aX&X}.;Xp.i.y.;.y.[ H F K ) / w 1 t F 4 + K K : , O ^     ",
"                                                              O @.].sXgX5X>XI.U y.y.y.y.( W L ( ( H / / 7 w F * H F + : * 5.    ",
"                                                              + G..XtXhX9X9.R.T -.;.;.;.e ) H ) ~ 1 1 J L / K O t 1 , & s       ",
"                                                            4.$. X%XtX5Xc C p.i.-.y.y.-.~ -.- / ) w w : 1 w 3 + > : , * 5.      ",
"                                                            ~ q..XaXhX9X= +.} ;.;.y.y.) / / w I / H w : , : - , * , O ^         ",
"                                                            rX'. XgX8Xz.=XZ.< t.;.t.y.W L I H K Y K E 3 + : : * * , * g.        ",
"                                                            JX)..X7X%Xw.<Xc O { K F  .8 K / F L K P w > + * , * > o &.          ",
"                                                            kX`.4X7Xk.z S.; 1 ( 7 = / 3 H / L F F Y 5 * * * , : * 6 k.          ",
"                                                            sX<X7XgX[ R U - 8 W 7 - F 2 G / K F w J 4 : : - : 4 O 1.            ",
"                                                            .X8X5Xg.C ;.} 8 = - 2 - : - F ` K D Z w 1 - : : : & a               ",
"                                                          bX.X5X@XP | | _ L L A 1 : 1 - 2 F Z 3 4 1 6 > , > 2 & u.              ",
"                                                          {.(.5Xe.R  ._ _ | | A A K A Z s z : - , > . o = = O 1.                ",
"                                                           X&X3X#...| ` _ ` | F J K D F L Q 8 - : o g.u.a ^ 5.                  ",
"                                                          wX XN.D ` ` ` | _ _ Y 4 F J 2 W 5 A 2 & ^ yX                          ",
"                                                        sXuX{.l ..( Y Y | _ _ _ J A 5 = L F A 7 . iX                            ",
"                                                        yX`.m.= S I Y Y I _ T _ J 1 : 1 - K 5 6 o g.                            ",
"                                                        _.].l - ; 5 L I / T _ _ J - 4 5 - J 4 2 O 5.                            ",
"                                                        {.m.= a 2 A 8 { ( J I I F 1 5 - 1 K 5 2 o 1.                            ",
"                                                      mX{.#.= s 1 8 S C Z ;./ J A 2 1 * A K 5 2 + Q                             ",
"                                                      mXM.> 8 8 = 5 h lX0XC W A 4 1 : * G J 5 2 * w qX                          ",
"                                                    PXjXO a 2 : 8 O.g.JXiX. } 5 5 1 : * A F 5 1 , = i.                          ",
"                                                    PX0X. 8 1 e 5 O.h.yXa 1 s 8 7 : : * 4 J 1 3 , O u.                          ",
"                                                    PXa.o a 5 < 5.iXkXiXu.1.= > q : : - 1 A 4 O & 5.                            ",
"                                                    PX9.o 8 = h.Q.pXkXjX6.} & 3 6 > : - : 3 & 2.j.                              "
};
