/* XPM */
static char *a6cfacd6a795475cc49d06beb2c84d22VjJbnIBcgweSVL8h[] = {
/* columns rows colors chars-per-pixel */
"64 64 144 2 ",
"   c #01015B",
".  c #09065D",
"X  c #0C0D5F",
"o  c #0F105F",
"O  c #11125F",
"+  c #020263",
"@  c #0D0164",
"#  c #020C61",
"$  c #0C0F60",
"%  c #00006C",
"&  c #0E0068",
"*  c #000E6C",
"=  c #170367",
"-  c #180567",
";  c #130B64",
":  c #1C0A67",
">  c #150568",
",  c #180668",
"<  c #130A6A",
"1  c #190B68",
"2  c #061061",
"3  c #0D1361",
"4  c #081866",
"5  c #06156C",
"6  c #111662",
"7  c #1D1267",
"8  c #131963",
"9  c #191E65",
"0  c #15146C",
"q  c #1B136A",
"w  c #131D6E",
"e  c #1B1C6B",
"r  c #000070",
"t  c #0C1B70",
"y  c #121E70",
"u  c #240E64",
"i  c #251365",
"p  c #261A67",
"a  c #291A66",
"s  c #241C69",
"d  c #172167",
"f  c #1B2266",
"g  c #17216A",
"h  c #1C246A",
"j  c #1E2A6C",
"k  c #112176",
"l  c #1E2571",
"z  c #1D2A76",
"x  c #172578",
"c  c #1E2A7A",
"v  c #1E3476",
"b  c #222667",
"n  c #242867",
"m  c #22256C",
"M  c #2C2469",
"N  c #242B6C",
"B  c #2B2D6D",
"V  c #362B66",
"C  c #332D6A",
"Z  c #25316F",
"A  c #2E316E",
"S  c #34326C",
"D  c #3B3268",
"F  c #36396E",
"G  c #212671",
"H  c #232C73",
"J  c #2A2E70",
"K  c #222D79",
"L  c #253475",
"P  c #2C3472",
"I  c #263977",
"U  c #2A3976",
"Y  c #25367A",
"T  c #29357B",
"R  c #2B3D7B",
"E  c #323673",
"W  c #363A74",
"Q  c #3A3D72",
"!  c #333D79",
"~  c #443D6B",
"^  c #403E70",
"/  c #2D417E",
"(  c #384077",
")  c #32427C",
"_  c #3C477C",
"`  c #44406D",
"'  c #4D4569",
"]  c #414373",
"[  c #454976",
"{  c #464E7C",
"}  c #4C4E79",
"|  c #545274",
" . c #54567E",
".. c #2C3680",
"X. c #293F80",
"o. c #353E82",
"O. c #383F80",
"+. c #274183",
"@. c #2E4482",
"#. c #314683",
"$. c #3E4481",
"%. c #334984",
"&. c #434985",
"*. c #4D5289",
"=. c #575C90",
"-. c #6D6F8F",
";. c #676B96",
":. c #6F729B",
">. c #727492",
",. c #777A9F",
"<. c #7B7EA1",
"1. c #8487A7",
"2. c #898BAA",
"3. c #9EA0B7",
"4. c #A3A5BB",
"5. c #A6A8BD",
"6. c #B3B5C6",
"7. c #C0C1CF",
"8. c #C2C3D1",
"9. c #C6C7D4",
"0. c #D2D3DD",
"q. c #D6D6DF",
"w. c #D9D9D9",
"e. c #DBDBDC",
"r. c #DEDEDF",
"t. c #E2E2E2",
"y. c #E0E0E7",
"u. c gray90",
"i. c #E7E7E7",
"p. c #E5E5EA",
"a. c #E6E6EB",
"s. c #EAEAEB",
"d. c #E8E8ED",
"f. c #E9E9EE",
"g. c #EEEEEC",
"h. c #EFEFEF",
"j. c #F0F0F1",
"k. c #F3F4F6",
"l. c gray96",
"z. c #F7F7F8",
"x. c #F9F9F9",
"c. c #FBFBFA",
"v. c #FDFDFC",
"b. c #FEFEFF",
/* pixels */
"8 8 8 8 8 8 8 8 8 6 8 8 8 8 8 8 8 8 8 8 8 8 8 8 8 8 8 8 8 8 8 8 8 8 8 8 8 8 6 8 8 8 8 8 8 8 8 8 8 8 8 8 8 8 8 8 8 8 8 8 8 8 8 8 ",
"8 8 8 8 8 8 8 8 e f N A E B m f 8 8 8 8 8 8 8 8 8 8 8 8 8 8 8 8 8 8 8 8 8 8 8 8 8 8 8 8 8 8 8 8 8 8 8 8 8 8 8 8 8 8 8 8 8 8 8 6 ",
"8 8 8 8 8 8 8 f J J l % % * B J f 9 8 8 8 8 8 8 8 8 8 8 8 8 8 8 8 8 8 8 8 8 8 8 8 9 . Q N o 8 8 8 3 8 8 8 3 8 8 8 8 8 8 8 8 8 8 ",
"8 8 8 8 8 8 f P h T <.3.4.2.O.y J N 9 8 8 8 8 8 8 8 8 8 8 8 8 8 8 6 8 8 8 8 8 8 8 8 4 8 8 8 8 8 8 8 8 8 8 8 8 8 8 8 8 8 8 8 8 8 ",
"6 8 8 8 8 h J w ;.0.x.b.b.c.y.1.K P m 8 8 8 8 8 8 8 8 8 8 8 8 8 8 6 8 8 8 8 8 8 8 8 8 8 8 8 6 8 8 8 8 8 8 8 8 8 8 8 8 8 8 8 8 8 ",
"8 8 8 6 f B t 1.k.b.b.s.e.u.b.b.5.k B f 6 8 8 8 6 8 8 8 8 8 8 8 8 8 8 8 8 8 8 6 8 8 8 8 8 8 8 8 8 8 8 8 8 8 8 8 O 8 8 8 8 3 9 b ",
"6 9 f 8 m P *.a.b.v.b.i.e.e.h.b.c.<.w A 9 6 8 8 8 8 8 8 8 2 6 8 8 8 8 8 8 8 8 8 8 8 8 8 8 8 8 8 8 8 8 8 8 8 8 8 8 8 8 8 8 8 8 8 ",
"9 +   f A % 6.b.g.x.b.v.i.i.v.b.b.q.c B f 8 8 8 8 8 8 8 3 m 9 8 8 8 8 8 8 8 8 8 8 8 6 8 8 8 8 8 8 8 8 8 8 8 8 8 8 8 8 8 8 8 8 8 ",
"  } -.+ J _ y.b.i.j.b.b.b.b.b.b.b.l.:.w m 8 8 8 8 8 8 9 2 F b o 8 8 8 8 8 8 8 8 8 6 8 8 8 8 8 8 8 8 8 8 O 8 8 8 8 8 8 8 8 8 8 8 ",
"X C ( 9 m &.f.b.b.b.b.b.b.b.b.b.b.b.,.5 m 8 8 8 8 8 8 8 8 2 3 8 8 8 8 8 8 8 8 8 8 8 8 8 8 8 8 8 8 8 8 8 8 8 8 8 8 8 8 8 8 8 8 8 ",
"8 X   m h &.f.b.s.l.b.b.b.b.b.b.b.c.<.5 N 8 8 8 8 8 8 8 8 d 8 8 8 8 8 8 8 8 8 8 8 8 8 8 8 8 8 8 8 3 8 8 8 8 8 8 8 8 8 8 8 8 8 8 ",
"8 4 9 9 P r 9.b.r.t.b.b.b.b.b.b.b.a.&.B b 6 8 8 8 8 8 8 8 3 8 8 8 8 8 8 8 8 8 6 8 8 8 8 8 8 8 8 8 d 8 8 8 8 8 8 8 8 8 8 9 3 8 3 ",
"8 8 8 8 N K <.l.b.l.b.b.b.x.g.b.b.5.K B f 8 8 8 8 8 8 8 8 8 8 8 8 6 8 8 8 8 8 8 8 8 8 8 8 8 8 8 8 8 8 8 8 8 3 8 8 8 8 X 2 9 3 8 ",
"8 8 8 8 f E k 6.b.b.i.l.l.t.g.b.0.o.E N d 3 8 8 8 8 8 O 8 8 8 8 8 8 8 8 6 8 8 8 8 8 8 8 8 8 8 8 8 8 8 8 8 8 d 8 3 f   >. .  f 8 ",
"8 8 8 8 9 h W &.5.h.g.b.b.b.b.7.=.! j ( b o 8 8 8 8 8 8 8 8 8 8 8 8 8 8 8 8 8 8 8 8 8 8 8 8 6 3 d 8 8 8 8 8 d O d O 2 A n o 8 8 ",
"8 8 8 8 6 h m W c :.6.0.q.8.1.T W B f 3 8 8 8 8 8 8 8 8 8 8 8 8 8 8 8 8 8 8 8 8 6 8 8 8 8 6 8 f 3 8 O 8 8 8 O d O d 8 . 2 8 8 8 ",
"8 8 8 8 3 d b h E ! K T ..x T Q m f 8 8 8 8 8 8 8 8 8 8 8 8 8 8 8 8 d O 8 8 8 8 8 8 8 8 f   } >.  d 8 8 8 8 8 3 8 8 8 d 9 8 8 8 ",
"8 8 8 8 8 9 8 9 h m E E E E N m 9 8 8 8 8 8 8 8 8 8 8 8 8 8 8 8 8 8 O f ( O 8 8 8 8 8 8 8 3 f n O 8 8 8 8 8 8 8 8 8 8 8 O 8 8 8 ",
"8 8 8 8 8 3 8 8 8 9 f d e 9 9 8 8 8 8 8 8 8 8 8 8 8 8 8 8 3 8 8 8 8 8 8 O d 8 8 8 8 8 8 8 8 o # 9 8 8 8 8 8 8 8 8 8 8 8 8 8 8 8 ",
"8 8 8 8 8 8 8 8 8 8 8 8 8 8 8 8 8 8 8 8 8 8 8 8 8 8 8 8 8 8 8 8 8 8 8 8 8 O 8 8 8 8 8 8 8 8 8 9 O 8 8 8 8 8 8 8 8 8 8 8 8 8 8 8 ",
"8 8 8 8 8 8 8 8 8 8 8 8 8 8 8 8 8 8 8 8 6 8 8 8 8 8 8 8 8 8 8 8 8 8 8 8 8 8 8 8 8 8 8 8 8 8 8 8 8 8 3 d 8 8 8 8 d 3 8 8 3 8 8 8 ",
"8 8 8 8 8 8 8 8 8 8 8 8 8 8 8 8 8 8 8 8 8 8 8 8 8 8 8 8 8 8 8 8 8 8 8 8 8 8 8 8 8 8 8 8 8 8 8 8 8 8 8 8 O 8 8 8 O d 3 X 8 8 8 8 ",
"8 8 8 8 8 8 8 8 8 8 8 8 8 8 8 8 8 8 8 6 8 8 8 8 8 8 8 8 8 8 8 8 8 8 8 8 8 8 8 8 8 8 8 8 8 8 8 8 8 8 8 8 8 8 8 8 d O O F 8 8 8 8 ",
"6 8 8 8 8 8 8 8 8 3 8 8 8 8 8 8 8 8 8 8 8 8 8 8 8 O 8 8 8 8 8 8 8 8 8 8 8 3 8 8 8 8 8 3 8 8 8 d 8 8 8 8 8 8 8 8 d 3 9 A 8 8 8 8 ",
"8 8 8 8 8 8 8 6 8 8 8 8 8 8 8 8 8 8 8 6 8 8 8 8 8 9 8 8 O 9 8 8 8 3 8 8 8 f d Z 8 8 8 8 8 8 o 3 8 8 O d 8 8 8 8 8 8 8 X 3 8 8 8 ",
"8 8 8 8 8 8 8 8 8 8 O 8 8 8 8 8 8 8 8 8 8 8 8 O h I 3 8 8 8 8 8 8 8 8 8 8 8 d I o f 3 f O d Z O d 8 8 O 8 8 8 8 8 8 8 d 3 d 8 8 ",
"8 8 8 8 8 8 8 8 8 8 b 8 8 8 8 8 8 8 8 8 8 8 8 6 f I 3 8 8 8 8 8 8 8 8 O 8 o d / v O 8 d 8 d R 8 O 3 3 d 8 O O 9 3 d O 8 8 3 8 8 ",
"8 8 8 8 8 8 8 8 8 8 d 8 8 3 d 8 8 8 8 8 9 8 8 6 j I 8 2 F Z 2 8 8 8 8 d O d / %./ d O 8 8 d I o 8 d O d o ( f 4 d O 8 8 8 8 8 8 ",
"8 8 8 8 8 8 8 8 8 8 8 8 8 8 o o 8 8 3 f m 8 8 3 R #.d 8 8 8 8 8 8 8 8 8 8 / @.#./ d 8 8 o 8 R L 3 d 8 8 3 f 9 8 8 8 8 8 8 8 8 8 ",
"8 6 8 8 8 3 8 8 8 8 3 8 8 8 I j 3 8 8 8 8 8 6 f / #.j o 8 8 8 8 8 8 8 8 9 ) #.#.@.d 8 8 d d / %.d O 8 8 d 3 O 8 8 8 8 8 8 8 8 8 ",
"8 8 8 8 8 8 8 8 8 O 3 8 8 d #.#.9 8 8 3 8 9 $ P %./ j 6 8 8 8 8 8 8 8 8 8 / #.@./ d 8 8 o ) #./ d 8 8 8 8 8 8 8 8 8 8 8 8 8 8 O ",
"8 8 8 8 8 8 8 8 8 9 d 9 X ) %./ 9 3 8 9 8 8 2 Z %.%.j o 8 8 8 8 8 8 8 8 8 #.#.@./ d O O d I @./ d O 8 8 8 8 8 8 8 8 8 8 8 3 d O ",
"8 8 8 8 8 8 8 8 o U L 3 2 ( %./ d o j / 9 3 o Z #.@.j X 6 6 8 6 8 8 8 8 3 ) %.#./ d 3 O ) #.@./ d 8 3 8 8 8 8 8 8 6 8 8 8 8 8 9 ",
"8 8 8 3 f 8 8 d X L N X 6 U %.#.d d %./ 3 h 8 j %.%.8 P ) L 9 8 8 8 8 8 8 %.#.#.@.8 h ) @.#.@.@.3 j U o 8 8 8 6 f h 8 8 8 8 3 d ",
"8 8 8 8 8 8 3 8 9 U Y j . ) %.#.d 9 %./ L %.l j %.@.f U %.@.q ; 8 d 8 8 3 / #.#.@.6 N @./ @.@.@.8 j / . @ 8 6 h / %.j $ 8 8 6 f ",
"8 8 8 8 8 8 8 o Z %.%.U   R %.@.8 f / #.#.@.R R @.%.4 U %.@.Y ; O o o o f / #./ @.9 h P R #.@.@.6 N U 9 B 8 . U #.s h j 8 g 8 9 ",
"8 8 8 8 3 8 O X j %.#.I . U %./ Z ) #.#.@.#.#.#.@.%.F j %.@.E < L L L L / #.@.#.@./ v ! ) R %./ j @.%.U ! L O 9 B V | h . / h o ",
"8 8 8 o I / f j f / #.L   ) %.) %.%.@.@.@.#.@.@.@.@.Q S R X.S C +.%.%.#.%.#.#./ @.@._ L l Y %.@./ #.+.W C %.@.Y + ; : @ d ) Z g ",
"8 d 8 U #.#.@.#./ / #.I   R %.@.@.@.@.@.@.@.@.#.@.@.0 i Q L % p ( @.@.@.@.#.@.@.@.@.A < Q { +.%.%.@.P i M m R R M - = 1 N R @./ ",
"8 I f %.@.@.#.#.#.@.@.#.j / %.@.@.@.#.#.@.#.@.@.@.%.h @ m H = @ l #.@.#.@.%.N z %.@.B a V _ +./ / R ` : & @ Y R a : + B ' z @.[ ",
"Z / f / #.@.@.@.@.@.%.@.@.%.@.@.@.#.X.@.%.@.#.#.#.X.e = G L = = H %.+.W _ %.l h #.@.e = @ L %.W D 0 = = - = m Y @ - : - = Y +.s ",
"j _ S / #.@.#.@.) ) @.@.@.@.@.@.#.+.^ R X.#.#.+.P E p @ s G = = h @.( i H _ e K H = 1 = = H R 0 C - = = = = e Y = - C 1 @ H L = ",
"= i H %.L [ / @.S H %.@.@./ @.@.Y S S L Y %.@.) M i : = = = = = = Y ) a < ; = H l = = = = = = = = > = = = = 1 q = = = = = = q - ",
"1 @ G %.L p = s M z @.R Q ~ ] %.W = = L Y $.#.R p & = = = = = = = h 7 - = = = - = = = = = = - = = = = = = = = = = = = = = = = > ",
"= = 1 e q @ = = = 1 e e 1 = G X.M @ 1 q 0 s B H = - = = = = = = = = = = = = = = = = = - = = = = = = = = = = = - = - = = = = > = ",
"= = = = = = = = - = = = = = = = @ = = = = = @ = - = = = = = = = = = = = = = = = = = = = = = = = = = = = = = = = = = = = = = = = ",
"= = = = = = = = = = - > = = - - - - = - > - - = = = = = = = = = = = = = = = = = = = = = = = = = = = = = = = = = = = = = = = = = ",
"= = = = = = = = = = = = = = = = = = = = - = = = = = = = , - = = = = = = = = = = = = = = = = = = = = = = = = = = = = = = = = = = ",
"= = = = = = = = - = = , = = = = = = = = = = = , = = = = = = , = = = = = = = = = = = = = , = = = = = = = = = = = = = = = = = = = ",
"= = = = = = = = = = = = = = = = , = = = = = = = = = = = = = = = = = = = = = = = = = = = = = = = = = = = = = = = - = = = = = = = ",
"= = = = = = = = = = = = = = = = = = = = = = = = = = = = = = = = = = = = = = = = = = = = = = = = = = = = = = = = = = = = = = = = ",
"- = = = = = = = = = = = = = = = = = = = = = = = = = = = = = = = = , = = = = = = = = = = = = = = = = = = = = = = = = = = = - = = ",
"= = = - = = = - = = = = = = = , = = = = = = = = = = = = = = = = = = = = = = = = = = = = = = = = - = = = = = = = = = = - = = = = ",
"= = = = = = = = , = = = = = = = = = = = = = = = = = = = = = = = = = = = = = = = = = = = , - = = = = = = = = = = = = = = = = = = ",
"= = = = = = = = = = = = = = = = = = = = = = = = = = = = = , = = = = = = = = = = = = = = = = = = = = = = = = = = = = = = = = = = ",
"= = = = = = = = = = = = = = = = = = , = = = = = , = = = = - = = = = = = = = = = = = = = = = = = = = = = = = - = = = = = = = = = ",
", = = = = = = = = = = = = = = = = = = = = = = = = = = = = = = = = = , , , = = = = = = = = = = = = = , = = = = = = = = = = = = = ",
"= = = = = = = , = = = = , = = = = = = = = = , = , = = = = = = = = = u = = = = = = = = = , = = = = = = = = = = = = = - = = = = = ",
"= = = = = = = = = = = = = = = = = , = = = = = = = = = = = = = , = = = = = = = , = = = , = = = = = = = = = = , = = = = = = = , = ",
"= = = = = = = = = = = = = = = = = = = = = = = = = = = = , = = = = = = = = = = = = = = - = = = = = = = = = = - = = = = = = = = = ",
"= = = = = = = = = = = = = = = = = = = = = = = = = = = = = = = = = = = = = = , = = = = = = = = = = = = = = = = = = = = = = = = = ",
"= = = = = = = = = = = = = = = = = = = = = = = = = = = = = , = = = = = = = = = = = = = = = = = = = = = = = = = = = = = = = = = = ",
"= = = = = = = = = = = = = = , = = = = = = = = = = = = = = = = = , = = = = = = = = = = = , = = = = = - , = = = = = = = = = = = - ",
"= = = = = = = = = , = = = = = = = = = , = = = = = = = , = = = = = = = , = = = = = = = = = = = = = = = = = = = = , = = = = = = , "
};
