/* XPM */
static char *fa79e5b55d9645c6be3dc8254ff9bc83xpK53BOiRaCYSd0b[] = {
/* columns rows colors chars-per-pixel */
"64 64 246 2 ",
"   c black",
".  c #010101",
"X  c #020202",
"o  c gray1",
"O  c #040404",
"+  c gray2",
"@  c #060606",
"#  c #070707",
"$  c gray4",
"%  c gray5",
"&  c #0E0E0E",
"*  c gray6",
"=  c #111111",
"-  c #151515",
";  c #181818",
":  c #191919",
">  c gray10",
",  c #1B1B1B",
"<  c gray11",
"1  c #1D1D1D",
"2  c #1E1E1E",
"3  c gray12",
"4  c #202020",
"5  c gray13",
"6  c #222222",
"7  c #232323",
"8  c gray14",
"9  c #252525",
"0  c gray15",
"q  c #272727",
"w  c #282828",
"e  c gray16",
"r  c #2A2A2A",
"t  c gray17",
"y  c #2C2C2C",
"u  c #2D2D2D",
"i  c gray18",
"p  c #2F2F2F",
"a  c gray19",
"s  c #313131",
"d  c #323232",
"f  c gray20",
"g  c #343434",
"h  c #353535",
"j  c gray21",
"k  c #373737",
"l  c gray22",
"z  c #393939",
"x  c #3A3A3A",
"c  c gray23",
"v  c #3C3C3C",
"b  c gray24",
"n  c #3E3E3E",
"m  c #3F3F3F",
"M  c gray25",
"N  c #414141",
"B  c gray26",
"V  c #434343",
"C  c #444444",
"Z  c gray27",
"A  c #464646",
"S  c gray28",
"D  c #484848",
"F  c #494949",
"G  c gray29",
"H  c #4B4B4B",
"J  c #4C4C4C",
"K  c gray30",
"L  c #4E4E4E",
"P  c gray31",
"I  c #505050",
"U  c #515151",
"Y  c gray32",
"T  c #535353",
"R  c gray33",
"E  c #555555",
"W  c #565656",
"Q  c gray34",
"!  c #585858",
"~  c gray35",
"^  c #5A5A5A",
"/  c #5B5B5B",
"(  c gray36",
")  c #5D5D5D",
"_  c gray37",
"`  c #5F5F5F",
"'  c #606060",
"]  c gray38",
"[  c #626262",
"{  c gray39",
"}  c #646464",
"|  c #656565",
" . c gray40",
".. c #676767",
"X. c #686868",
"o. c DimGray",
"O. c #6A6A6A",
"+. c gray42",
"@. c #6C6C6C",
"#. c #6D6D6D",
"$. c gray43",
"%. c #6F6F6F",
"&. c gray44",
"*. c #717171",
"=. c #727272",
"-. c gray45",
";. c #747474",
":. c gray46",
">. c #767676",
",. c #777777",
"<. c gray47",
"1. c #797979",
"2. c gray48",
"3. c #7B7B7B",
"4. c #7C7C7C",
"5. c gray49",
"6. c #7E7E7E",
"7. c gray50",
"8. c #808080",
"9. c #818181",
"0. c gray51",
"q. c #838383",
"w. c #848484",
"e. c gray52",
"r. c #868686",
"t. c gray53",
"y. c #888888",
"u. c #898989",
"i. c gray54",
"p. c #8B8B8B",
"a. c gray55",
"s. c #8D8D8D",
"d. c #8E8E8E",
"f. c gray56",
"g. c #909090",
"h. c gray57",
"j. c #929292",
"k. c #939393",
"l. c gray58",
"z. c #959595",
"x. c gray59",
"c. c #979797",
"v. c #989898",
"b. c gray60",
"n. c #9A9A9A",
"m. c #9B9B9B",
"M. c gray61",
"N. c #9D9D9D",
"B. c gray62",
"V. c #9F9F9F",
"C. c #A0A0A0",
"Z. c gray63",
"A. c #A2A2A2",
"S. c gray64",
"D. c #A4A4A4",
"F. c #A5A5A5",
"G. c gray65",
"H. c #A7A7A7",
"J. c gray66",
"K. c #A9A9A9",
"L. c #AAAAAA",
"P. c gray67",
"I. c #ACACAC",
"U. c gray68",
"Y. c #AEAEAE",
"T. c #AFAFAF",
"R. c gray69",
"E. c #B1B1B1",
"W. c #B2B2B2",
"Q. c gray70",
"!. c #B4B4B4",
"~. c gray71",
"^. c #B6B6B6",
"/. c #B7B7B7",
"(. c gray72",
"). c #B9B9B9",
"_. c gray73",
"`. c #BBBBBB",
"'. c #BCBCBC",
"]. c gray74",
"[. c gray",
"{. c gray75",
"}. c #C0C0C0",
"|. c #C1C1C1",
" X c gray76",
".X c #C3C3C3",
"XX c gray77",
"oX c #C5C5C5",
"OX c #C6C6C6",
"+X c gray78",
"@X c #C8C8C8",
"#X c gray79",
"$X c #CACACA",
"%X c #CBCBCB",
"&X c gray80",
"*X c #CDCDCD",
"=X c #CECECE",
"-X c gray81",
";X c #D0D0D0",
":X c gray82",
">X c #D2D2D2",
",X c LightGray",
"<X c gray83",
"1X c #D5D5D5",
"2X c gray84",
"3X c #D7D7D7",
"4X c #D8D8D8",
"5X c gray85",
"6X c #DADADA",
"7X c gray86",
"8X c gainsboro",
"9X c #DDDDDD",
"0X c gray87",
"qX c #DFDFDF",
"wX c gray88",
"eX c #E1E1E1",
"rX c #E2E2E2",
"tX c gray89",
"yX c #E4E4E4",
"uX c gray90",
"iX c #E6E6E6",
"pX c #E7E7E7",
"aX c gray91",
"sX c #E9E9E9",
"dX c #EAEAEA",
"fX c gray92",
"gX c #ECECEC",
"hX c gray93",
"jX c #EEEEEE",
"kX c #EFEFEF",
"lX c gray94",
"zX c #F1F1F1",
"xX c gray95",
"cX c #F3F3F3",
"vX c #F4F4F4",
"bX c gray96",
"nX c #F6F6F6",
"mX c gray97",
"MX c #F8F8F8",
"NX c #F9F9F9",
"BX c gray98",
"VX c #FBFBFB",
"CX c gray99",
"ZX c #FDFDFD",
"AX c #FEFEFE",
"SX c white",
/* pixels */
"BXBXBXBXBXmXmXmXzXmXmXmXzXzXzXhXhXhXfXzXzXzXhXzXzXhXzXhXfXhXpXhXfXfXpXeXpXfXpXfXpXpXeX8XpXpX8XeXeXpXpXpXhXhXpXpXpXfXfXhXfXfXpX7X",
"BXBXBXmXmXmXmXmXzXmXmXzXzXfXpXfXhXhXhXhXhXfXhXfXpXfXzXzXpXfXhXhXpXeXpXeXeXpXeXpXpXeXeX8X8X8X8X8X8X8XpXpXeXpXeX8X8XpXpXpXeXfXpXeX",
"BXmXmXmXBXBXmXmXzXzXzXzXfXpXpXpXhXfXpXpXfXfXfXfXeXzX2X2XzXzXhXhXhXfXfXpXpXfXpXeXpXeXeXeXeXeX7X7X7X7XeXeX8X8X8X7X7X8XeX8XeXeX8XeX",
"BXBXmXBXBXmXmXmXhXhXzXzXfXfXfXfXhXzXeXhXfXpXpXhXmX8X] 7XzXeXzXhXfXpXpXeXpXpXpXeXeXeXeXeXeXeXeXeX8X8XeXpX8XeXeXeX8X8X8XeXeXeXpXpX",
"mXmXmXBXmXmXzXzXhXzXzXzXhXhXhXfXhXfXhXpXeXfXhXpXeXn.).BXhXhXhXhXfXfXfXpXeXpX8XeX8X7X8XeX8XeXeX8XeXeXeXeXeXpXeX8XeXeXeXeXpXeXpXeX",
"BXmXmXmXzXmXmXzXzXzXhXzXzXhXhXfXzXpXhXhXhXhX,X;.Z w.BXzXhXhXfXfXpXpXfXeXeXpXeX8XpX8XpXeXpXeXeX8X8X8XeX8XeXeX8X8X8XeXeXpXeXfXpXpX",
"mXmXmXzXzXmXmXzXzXhXhXzXzXhXfXhXhXhXeXmX2XU.6.. c h.hXzXzXhXhXfXfXpXfXpXeXpXeX8XeXeXeXeXeXpXeX8XpXpXpXpXpXpX8X8X8XeXeXpXpXhXeXfX",
"mXmXmXzXzXzXzXmXzXzXzXzXhXfXfXhXhXfXhX8Xw.;.F u ] ).mXzXzXhXhXfXfXfXhXpXpXpXpXpXpXpXfXpXeXpXpXeXfXeXpXpXpXeXeX7X8XeXpXfXfXpX X2X",
"fXBXzXzXhXzXzXzXzXzXzXzXzXfXhXhXzXzXmXpXw.%.] Z <.fXBXhXhXzXfXhXhXhXfXpXpXeXeXeXpXpXfXpXfXpXeXpXfXpXfXhXfXeXpXeXeXpXeXfXfXhXc. X",
"zXmXBXBXmXmXzXzXzXmXBXzXmXzXhXzXzXhXzXpX;.a +.<.B.eXmXmXhXfXhXfXfXfXpXpXpXpXfXpXpXpXhXfXfXfXpXfXpXpXpXfXpXpXpXeXpXfXfXfXhXhXi.).",
"BXhXZXZXZXBXZXZXBXZXmXBXBXBXmXBXBXmXmXf.8 f.h.<.).ZXmXfXzXhXzXhXpXfXpXpXpXfXpXpXfXfXfXpXpXpXpXfXpXpXfXpXfXpXpXeXpXpXpXzXhXfXc.i.",
"ZXzXBXZXZXZXZXZXZXZXBXZXZXZXZXZXZXZXJ.. I 6.f.$X,XfXBXzXzXhXpXfXpXfXpXfXpXfXpXpXeXpXpXpXpXpXeXeX8XpXfXpXeXeXeXfXfXfXzXzXhX7Xn.F ",
"ZXBXzXZXZXZXBXZXZXZXZXZXBXZXZXZXZX2XO B 8.c.=XfXhXpXZXZXmXBXmXmXzXzXzXzXhXhXfXfXfXhXfXfXfXfXfXeXpXeX8XeXfXfXeXpXhXfX7XJ.i.;.6.6.",
"ZXZXhXBXZXZXBXZXZXBXZXBXZXZXBXZXzXI , %.f.$XfX8XmXZXBXBXZXZXZXZXZXZXZXZXBXZXBXBXBXBXzXzXzXhXzXhXhXfXzXzXzXhXhXmXmXeX..] ;.w.8.i.",
"ZXZXBXmXZXZXZXZXZXBXZXZXZXBXZXZXi.O F ;.W.BXhX2XBXmXBXBXBXmXhXmXmXzXzXzXzXmXBXmXmXBXmXBXBXmXzXzXmXzXmXmXmXmXzXmXZXn.W h.8.8.i.h.",
"ZXZXZXhXBXZXZXZXZXZXZXZXZXBXZX/.. c ;.h.zXBXpX8XBXZXZXZXBXZXBXBXmXmXzXzXhXhXzXhXzXmXmXBXBXBXBXBXmXmXZXBXBXZXZXZX7Xu ..<.8.i...6.",
"ZXZXZXZXzXZXZXZXZXZXBXZXZXZX2X. j ] 6.8XZXzXpX7XBXZXBXZXZXZXZXZXBXZXBXmXzXhXfXpXfXfXzXmXBXBXZXZXBXZXBXZXZXZXBXZXn.+.;.&.n.B.I &.",
"ZXZXZXZXZXhXZXZXBXmXZXZXZXhX] . ~ %.{.ZXZXzXeX2XmXZXBXZXZXZXZXZXZXZXZXBXZXBXBXmXzXmXmXmXmXBXmXBXBXZXZXZXBXZXZX{.b 8.&.W ;.H.&.8.",
"ZXZXZXBXZXmXmXfX2XmXZXZXZXn.. _ &.n.BXBXZXfXfX,XmXZXZXZXZXZXZXZXBXBXBXBXBXmXmXmXmXmXmXmXBXBXZXBXZXBXZXZXBXZXmXC.I ..6...c./.w.J.",
"ZXZXZXZXzXeX+XpXZXZXZXZX=X% F h.B.fXBXZXBXzXfX2XmXZXZXZXZXZXZXZXZXBXBXBXBXBXBXBXmXBXBXmXBXZXZXBXZXZXZXBXZXBX+Xi.c.h.B.B.J.n.i.c.",
"ZXBXBXmX7XeXfXzXZXBXZXfXW 3 f.H.7XZXBXZXZXfXzX,XzXZXZXZXZXZXZXZXBXBXZXBXBXBXBXBXmXBXBXBXBXBXZXZXZXBXBXZXZX8Xn.f.c.8.<.<.w.h.H.U.",
"ZXBXmXmXBX,XfXpXfXmXmXi.. &.B.).BXZXZXZXZXhXzX2XzXZXZXZXZXZXZXBXBXZXZXBXBXBXBXmXzXmXmXmXBXBXZXZXZXZXZXZX8Xw._ ~ ] ;.i.c.{. XJ.J.",
"ZXBXZXZXmX{.mXBXpXmXJ.O ~ B.W.zXZXBXZXBXmXhXhX7XhXZXBXBXBXBXBXmXmXmXmXmXmXmXmXmXzXmXzXmXBXBXBXBXZXBXZXZX,XpXf.h.n.c.c.h.f.f.~ 8.",
"ZXZXZXZXeX$XZXBXBX,XF Z h.W.eXZXZXZXBXZXBXhXBXeXhXZXBXBXBXBXBXBXmXmXmXmXmXmXhXhXmXzXzXmXBXBXBXZXZXZXZXhXhXBXc...] &.W b n.i.j h.",
"ZXZXZXZX+XfXBXZXmX] % h.J.+XZXZXZXZXZXZXBXhXZXpXfXZXZXZXZXZXZXBXmXBXBXBXmXmXzXzXmXhXmXzXmXBXBXBXZXZXmXzXmXBXJ.b b c.+.j W.h.W c.",
"BXZXZXZX{.ZXZXZXw.. +.U.W.fXZXBXZXZXZXZXZXhXZXpXeXZXZXZXZXBXZXZXmXmXBXBXmXmXzXBXzXBXhXmXmXBXZXZXZXZXpXBXmXmX).~ I n.%...J.h.w.W.",
"ZXZXZXpX,XZXZXW.. K B.c.2XZXBXZXZXZXZXZXBXzXZXpXeXZXBXZXZXZXBXBXZXmXZXBXBXmXZXzXhXzXhXmXzXmX7XBXZX2XfXBX$XhX/.+.i.h.w.H.{.C.W.W.",
"ZXZXZX,XfXZX2X. j w.J.=XfXzXZXZXZXZXZXZXmXhXZXpX7XZXZXBXZXBXZXBXBXZXBXZXBXmXmXZXfXhXZX7XzXZXH.fXmX{.+X,Xc.{.C...w.h.8.h.W.i.%.n.",
"ZXZXZX{.BXhXI e +.J./.ZX).,XZXzXZXZXBXZXBXfXZXmX2XZXZXZXBXZXZXZXZXmXZXpXZXhX2XBX{.2XeXH././.B.C.c.f.w.i.w./.c.B ..c.] %.J.n.&.H.",
"ZXzX/.{.8Xw.O W h.B.7X=XJ. X,X XfX2X{.fX2X{.ZX8X/.fXmXfX+XmXfXmXeX+XzXC. XW.n.U.w.n.n.B.f.w.c.w.<.%.w.f.6.C.B.~ ~ 8.%.W B.n.K c.",
"8Xw.8.+X2XU.K f.n.J.+X/.B.h.W.h.n.f.6.w.i.w.h.c.w.6.c.n.h.f.<.;.6.i.h..._ %.6.w.8.h.i.8.6.h.<.i.8.8.c.H.H.{.H.] % 6.w.F B.B.&.C.",
"i.] B.$XU. Xh.w.n.).B.B.c.w.c.B.f.n.n.8.8.i.i.f.w.&.6.f.h.8.w.8...w.6.6.%.w.;.6.w.f.h.n.H.n.h.C.n.h.H.).J.$XJ.W 3 i.<...h.c.H.h.",
"i.%.h.f.W I _ ~ ~ h./.J.J.<.h.c.h.6.w.i.c.6.w.8.8.&.h.;.;.6.;.%._ _ %.8.c.H.c.i.h.h.h.B.c.8.h.h.c.n.c.H.B.2XB.b I _ ..+.8.w.h.w.",
"i.&.U.f.~ f.c.C.6.f.J.+X{.f.B.H.J.w.6.6.c.8.w.n.B.<.B.8.6.w.;.&.] %._ w.n.C.c.;.8.6.<.<.6.i.n.h.H.H.c.8.h.$XH.c _ <.W ..8.<.+.h.",
"C.%.U.6.h.i.c.f.;.w.h.+XC.n.i.n.n.i.f.6.f.f.i.n.c...w.f.<.c...8.~ +.I <.h.w.6.;.w.i.w.6.i.B.c.B.C.n.B.J.n./.8.F W I B K I ~ +.%.",
"H.&.W.<.B.W.h.&.+.n.$X=X/.J.n.J.n.c.i.w.h.w.f.i.6...<.8.6.w.] ;.+.&.] w.B.c.C.c.H.H.h.H.U./.U.W.W./.).).{. X6.%.i.;.i.6.f.f.f.c.",
"H.B.+X6.U.W.J.B.8.U.8X=X X/.U.J.n.i.h.i.f.w.;.f.i.i.+.;.6.f.6.6.;.;.;.f.W.{.{./.).U.). X$X$X X X,X$X$X). X=XC.%.Z f.c.Z C.J.B i.",
"i.W.=X+.B.c.8.h.;.C./.$XB.{.+X/.J.n.w.<.8.w.+.w...8.6...+.f.W 8._ &.%.h.c.B.H.f.i.c.B.C.H./.B.U.W.J.W.W.U.$Xh.+.. f.w.. B.C.. %.",
"/.$X2X] H.c.h.c.w.B.J. XB.{. XH.h.8.;.<.;.<...C.n.c.h.;.J.n.f.$X2X7XU.).W.f.;.B.U.H.W.h.W.).H.).W.c.+X{.W.2Xn.] O i.8.. C.n.a 6.",
"W. XJ.K C.B.W.H.H.{.2X2X{.+X+X{.).{.H.+XW.J.J.8XeX=X7XJ.pX,X2X$X$X8XeX2X{.U.J.U.).J.W.W.{.{.W./.$XH. XC.c.$Xn.] . i.8.. f.$X{.6.",
"i.c.8.I H.W.W. X=X,X7X+XJ.i.h.C.).$X X=X7X,X X)./.H.,X{.,XeX2XU.n.{./.n. X/.W.H.f.f.;.+.u K F . ..F u u c F c %.j c.w.. h.,Xw...",
"..%.+.c 6.c.i.f.H.U.W.B.<.W Z ~ 6.B.H.{.=X X/.B.n.n./.$X/.U.8.+.8.8.B.U.H. XU., . . . a b e e c . u u c a b a c u h.6.a B.h.. %.",
"B.f.f.6.w.<.W %.<.i.h.f.6.~ ~ +.<.h.<.f.h.w.6.w.h.B.C.U.H.c.8.;.+.6.w.h.C./.C.- . &.%.K B b u c Z B u c W F B F 8 8.8.u n.B.c _ ",
"B.H.B.w.c.i.;.] ] W K ] b ~ &.~ <.c.n.H.h.c.B.h.<.U.i.<.&.;.&.K +.<.+.%.I ] ~ % . %.&.K e a B ~ ] ~ b c Z F F W ;.;.B.c.n.n.6.6.",
"J.J.J.i.w.8.i.n.J.J.w.] ] B.C./.w.i.f.6.8.&.%.F b 8 = a c +.%.. 3 u B u ~ ..K . . b ~ ~ ] _ %.] +.&.~ W I j B ..<.h.J.U.).{.+X{.",
"W.{.+X).c.K ] 8.;.W ] 6.b . u Z . O , 3 j a a c c 6 a Z W ..&.B 8 ~ c ~ +.] B 8 . K ] F I _ ] ..~ ~ ~ B I _ _ Z u j F I %.w.<.w.",
"J.{.eX=X] . W _ I W I &.<...8 8 u j b c B Z c j a a j u j B +.&.b F W W K _ Z e O c I j F Z I K c Z W Z _ ;...+.~ +.] I ~ Z ~ +.",
"U.{.).c.B W F b W _ I _ ~ ] 6 u a a a u b b j u u a a u u 6 W 8.] ] W Z ] ~ b b I B K ] Z _ %...%...n.n.%.~ <.;.f.C.B.h.h.6.W.n.",
"/.c.6._ a ~ +...W _ ] I j , u e e e u u u c u a b a = 8 K Z Z K ~ ..~ ..] I Z _ ] b B 8.c <.C.%.] i.W.U.f.c.w.B.J.C.U./.U.f.C.f.",
"..] _ ~ I F ~ K Z I F W Z c 8 e u c j c c a b b 8 b K _ %.] _ K B W ;.%.8.8.H.<.c I a u j 3 e K +.f.J.n.f.B.h.H.c.B.B.C.W.H.c c ",
". W W ..%.] K Z Z B F 8 B a e a . u b F Z b 8 I ;.8.%.j 3 F B 8.w.w.w.6.C.U.+XK a w.u 3 u e a &.h.8./.W.<.] c 6.H.H.J.W.{.{.I F ",
"K ] _ I ~ ..I ~ Z F K ~ F Z ~ ] b e a K Z _ 6.<.;.~ ] ..&.i.h.c.B.h.8.B.J.c.n.. . ;.] ;.w.<.U.+X+X/.W.W ] <.. 8 c.U.H.C.).U.~ f.",
";.F _ K K _ _ &...+.+.W ..] W F b _ ;.;.&.c.%.~ +.8.6.f.C.c.h.B.n.c.C.U.C.&.J.H.<.H.H.H. X,X$X,X8X8X+X_ b ;.. c 8.J.H.W.{.c.~ h.",
"&.] W ~ _ _ ~ ;._ ;.w.<.B K +.f...<.h.8.i.w.%.f.).f.i.c.B.h.c.c./.U.J.h.J.).pX=X=X X=X+X+X7X,XU.+X,X+X_ a +.. c J.,X$X).$X X8.B.",
"&.;.+._ I I .._ +.+.<...+.+.%.&.B.h.n.B.U.H.w.). XC.U.H.H.n.B.i.B.{.W.{.{.C.{.W.{.+X8X7X2X,X2X7X+XH.).W <.8.] i.H.{.).,XeX2XH.H.",
"&.~ _ ] ..+._ B ..&.W +.%.;.;.B.J.B.B.W.C.w.J.$XC.{. XW.W.C.B.c.f.n.C.H.C.n.{././.$X$X$X$X).).{./.)./.C.c.6.I %.B 6.=XU.2XpX7X).",
"&...~ ] ....F ..W +.8.;.c.J.).).J.C.n.c.B.n.{.H.U.+X{.).{.{.H.H.J.B.C.i.i.8.W.).+X/.H.W.$X=X=X)./.2XU.<.6.i.K . 3 h.H.~ W ).f.%.",
"] W &.&.%.f.6.+.;.n./.<.h.{.J.U.B.6.n.W.H.J.W.C.)./.+X X).{.J.H.C.)./.H.h.&.B.h.C.B.W.).+XC.C.H.$XJ.;.;.%.&.K , Z K u b _ ..W B ",
"&.<.&.%.c.B.c.h.H.U.U.H.c.W./.H.C.n.w.i.B.W.n.C.{.).{.+X{.W.U.W.H.i.W.H.h.<.c.c.n.c.C.J.H.b u {.h.. F B.<...B u 8 e F K K %.Z K ",
"c.B.n.h.J.U./.+X/.J.H.J.B.W.c.8.<.6.h.J.8.8.B.$X=X$X X{./.U.W.B.W.B.;.%.i._ %.c.c.B.C.C.u 3 ] 8.. ;.%.~ Z c F b ~ j j B Z I I F ",
"U. X{. X$X).W.U.U.U.C.h.f.f.B.B.i.J.C.W.c.K H.H.U./.).).).W.W. X/.n.%.O ;.8 B H.f.B +.c.<.K I , 6.B.+.j W a I B K F j 3 I %.&.Z ",
"{. XW. XW.J.{.{./.B.C.J././.H.n.c.w.f./.+XU.H./.{.). X)./.{.+Xn.c.I ..6 j a 3 6.;.+.Z ] ] ~ _ b ] ~ . b j = W ... u F ..~ %.I ;.",
"/./././.).$X X{. X X).U.n.n.h.H.B.c.n.). XU.U. X X$X X X X=X,X;.w.6.. B W ~ a c . B F &.W W _ 8 W %., u 8 e . u u _ B <.I %.+.F ",
"{.$X X). X$X/./.W. XU.H.H.H.W.).).).+X+X=X{. X=X$X$X$X{.{.,X+Xc ..... 6 ~ I 8 8 3 6 3 b I _ I . 8 . 3 a 8 u , = Z W B W ] +.;._ "
};
