/* XPM */
static char *_84a602fed52462fd16a5ad98012d232acsYNhpDISW6w2zi[] = {
/* columns rows colors chars-per-pixel */
"20 20 247 2 ",
"   c None",
".  c black",
"X  c #000200",
"o  c #000B00",
"O  c #001400",
"+  c #001A00",
"@  c #001B00",
"#  c #001D00",
"$  c #002F00",
"%  c #003000",
"&  c #200020",
"*  c #220022",
"=  c #2E002E",
"-  c #2F002F",
";  c #2A082A",
":  c #2B172B",
">  c #291A29",
",  c #2B192B",
"<  c #291C29",
"1  c #300030",
"2  c #310031",
"3  c #320032",
"4  c #380038",
"5  c #390038",
"6  c #232223",
"7  c #252425",
"8  c #272727",
"9  c #2A212A",
"0  c #2B222B",
"q  c #2E222E",
"w  c #282828",
"e  c #30242F",
"r  c #312A31",
"t  c #312B31",
"y  c #004400",
"u  c #004A00",
"i  c #004D00",
"p  c #005100",
"a  c #005200",
"s  c #005F00",
"d  c #1E5B1E",
"f  c #007300",
"g  c #007500",
"h  c #007600",
"j  c #007700",
"k  c #007800",
"l  c #007900",
"z  c #007A00",
"x  c #007E00",
"c  c #047E04",
"v  c #0A720A",
"b  c #0A760A",
"n  c #09780A",
"m  c #0B7F0B",
"M  c #146B14",
"N  c #166916",
"B  c #107010",
"V  c #107D10",
"C  c #1B7A1A",
"Z  c #2B4A2B",
"A  c #2A4E2A",
"S  c #295929",
"D  c #285A28",
"F  c #315131",
"G  c #2B6C2B",
"H  c #2B702B",
"J  c #3E633E",
"K  c #3C653C",
"L  c #412341",
"P  c #493D48",
"I  c #4F4E4E",
"U  c #504E4F",
"Y  c #564656",
"T  c #584357",
"R  c #594C59",
"E  c #5D4B5C",
"W  c #515050",
"Q  c #525151",
"!  c #545354",
"~  c #555355",
"^  c #5E665D",
"/  c #616160",
"(  c #696868",
")  c #737273",
"_  c #797878",
"`  c #008200",
"'  c #008300",
"]  c #008900",
"[  c #008B00",
"{  c #008D00",
"}  c #008F00",
"|  c #009000",
" . c #009C00",
".. c #128112",
"X. c #128B12",
"o. c #138E13",
"O. c #148E14",
"+. c #148F14",
"@. c #168F16",
"#. c #0F9A10",
"$. c #169116",
"%. c #1D9C1D",
"&. c #00AE00",
"*. c #00AF00",
"=. c #00B600",
"-. c #208120",
";. c #288128",
":. c #2D802D",
">. c #2E892D",
",. c #2F882E",
"<. c #2F8F2E",
"1. c #30892F",
"2. c #209F21",
"3. c #2D922D",
"4. c #2D942D",
"5. c #308830",
"6. c #348934",
"7. c #379036",
"8. c #20A221",
"9. c #21A721",
"0. c #25A725",
"q. c #21AC21",
"w. c #24AC24",
"e. c #2EA92E",
"r. c #27B827",
"t. c #2AB22A",
"y. c #29B429",
"u. c #29B729",
"i. c #2DB12D",
"p. c #2EB32E",
"a. c #2EB52E",
"s. c #2BBF2B",
"d. c #2EB82E",
"f. c #2FB82F",
"g. c #2BC12B",
"h. c #2BC22B",
"j. c #2BC22C",
"k. c #2DC02D",
"l. c #2CC22C",
"z. c #2CC32C",
"x. c #2FC02F",
"c. c #2FC12F",
"v. c #2EC22E",
"b. c #2FC22F",
"n. c #2FC32F",
"m. c #2FC42F",
"M. c #2FC52F",
"N. c #2FC62F",
"B. c #30C430",
"V. c #30C530",
"C. c #30C630",
"Z. c #31C631",
"A. c #31C731",
"S. c #30C830",
"D. c #30C930",
"F. c #31C831",
"G. c #30CA30",
"H. c #30CB30",
"J. c #30CC30",
"K. c #31CF31",
"L. c #33CC33",
"P. c #35C935",
"I. c #3CC13C",
"U. c #33D433",
"Y. c #3ADA39",
"T. c #3ADA3A",
"R. c #4B9E4B",
"E. c #4F9E4F",
"W. c #42BC42",
"Q. c #5DB55C",
"!. c #5DB45D",
"~. c #648D63",
"^. c #41C241",
"/. c #44C244",
"(. c #47CF46",
"). c #47D147",
"_. c #45DB45",
"`. c #49D049",
"'. c #49D249",
"]. c #55CE55",
"[. c #56D057",
"{. c #7BCD7B",
"}. c #7CD07B",
"|. c #7DD77C",
" X c #7FD77E",
".X c #958D94",
"XX c #978F96",
"oX c #979696",
"OX c #979796",
"+X c #9BA19A",
"@X c #A0A59F",
"#X c #ABA9AA",
"$X c #AFACAD",
"%X c #B0AFAF",
"&X c #B1AFAF",
"*X c #B3B0B1",
"=X c #B5B7B3",
"-X c #B6B4B5",
";X c #BCB9BA",
":X c #BEBCBD",
">X c #BFBFBD",
",X c #C1BDBF",
"<X c #92CD91",
"1X c #93CE92",
"2X c #9CD19B",
"3X c #9ED29D",
"4X c #BAC3B8",
"5X c #BCC4BC",
"6X c #C9BFC8",
"7X c #CCBFCB",
"8X c #C4C3C2",
"9X c #C7C3C5",
"0X c #C8C5C6",
"qX c #CAC5C9",
"wX c #D1CFCF",
"eX c #CAD6C8",
"rX c #CAD7C8",
"tX c #D2D1D0",
"yX c #D0D7D0",
"uX c #D2D7D0",
"iX c #D5D5D3",
"pX c #D7D7D6",
"aX c #DCDBDB",
"sX c #DEDDDC",
"dX c #E0DEDE",
"fX c #C3EFC2",
"gX c #C4F0C2",
"hX c #E1DCE0",
"jX c #E3DDE1",
"kX c #E2E0E0",
"lX c #E8E7E6",
"zX c #EDE6EB",
"xX c #EAEAE8",
"cX c #EFEEED",
"vX c #F0E9EE",
"bX c #F1EFEF",
"nX c #E2F0E0",
"mX c #E2F1E0",
"MX c #FFE9FD",
"NX c #FEEAFD",
"BX c #F8F7F6",
"VX c #FBFAF9",
"CX c #FFF9FE",
"ZX c #FFFCFF",
"AX c #FFFEFE",
"SX c #FFFFFE",
"DX c white",
/* pixels */
"            = 5 =     1 5 -             ",
"          1 [ =.} 1 3 } =.} -           ",
"        % ' <XgX2X[ [ 2XfX1X' $         ",
"        A {.mXMXrX X|.rXMXmX{.Z         ",
"        ~ zXDX+X( CXDX/ #XSXzXI         ",
"        ~ lXDX#X_ BXVX) #XSXxXI         ",
"      . E cX9XL R .XXXY P 8XcXY .       ",
"    J  .E.*X~.z 6.g f 7.u ^ =XR.#.K     ",
"  p &.T.8.s y._.K.'.'.U.I.n o 0.T.&.p   ",
"* !.[.%.F ^.P.u.a.g.g.a.k.d.5.; 2.].Q.* ",
". yX5Xu /.k.S.3.H S.S.G 4.S.r.:.O 4XuX. ",
". hXqX# ).k.C.p.e.C.N.e.p.C.s.3.. qXjX. ",
". iX6Xy ).l.k.S.K.k.B.K.C.C.k.>.. :XpX. ",
". dXqX. W.k.C.B.b.N.N.f.C.b.q.1.. 0XkX. ",
". wX:X. 1.r.B.B.b.b.B.k.C.w.g ;.. ;XtX. ",
"7 W e . V c y.L.C.C.C.K.9.z g ... e W 6 ",
"  . %XsX# C X.@.o.$.o.$.m z -.@ aX&X.   ",
"    oX-X. D v z g z z g x b D . -XOX    ",
"      . r > d B N M N N B d : t .       ",
"          w 0 > < < < < > 0 7           "
};
